<svg width="970" height="250" viewBox="0 0 970 250" fill="none" xmlns="http://www.w3.org/2000/svg">
<g clip-path="url(#clip0_93_2)">
<path d="M970 0H0V250H970V0Z" fill="#202844"/>
<mask id="mask0_93_2" style="mask-type:luminance" maskUnits="userSpaceOnUse" x="616" y="15" width="331" height="221">
<path d="M946.682 15H616V235.264H946.682V15Z" fill="white"/>
</mask>
<g mask="url(#mask0_93_2)">
<mask id="mask1_93_2" style="mask-type:luminance" maskUnits="userSpaceOnUse" x="616" y="15" width="331" height="221">
<g opacity="0.6">
<path d="M946.682 15H616V235.264H946.682V15Z" fill="white"/>
</g>
</mask>
<g mask="url(#mask1_93_2)">
<path d="M642.511 195.962H912.021C912.021 195.962 918.572 177.219 899.855 157.54C881.14 137.859 878.869 90.8718 819.411 73.4599C759.954 56.0474 710.043 73.711 695.412 102.76C680.782 131.809 626.134 136.257 642.511 195.962Z" fill="#F8E5C4"/>
<path d="M912.019 195.96C912.019 195.96 916.228 183.907 908.245 168.983C898.834 174.303 888.549 184.673 871.538 187.459C845.563 191.715 831.803 181.234 806.977 160.002C782.149 138.771 730.943 168.946 719.187 144.907C712.164 130.544 695.081 122.357 682.464 118.094C661.501 135.899 629.463 148.391 642.511 195.96H912.019Z" fill="#EDD2A4"/>
<path d="M628.473 195.96H925.12" stroke="#EDD2A4" stroke-width="1.0612" stroke-miterlimit="10"/>
<path d="M759.217 137.391H705.031V200.502H759.217V137.391Z" fill="#874F2E"/>
<path d="M759.215 137.391H740.387V200.502H759.215V137.391Z" fill="#AD6E47"/>
<path d="M751.851 143.498H747.759C747.085 143.498 746.539 142.952 746.539 142.278V142.226H753.072V142.278C753.072 142.951 752.525 143.498 751.851 143.498Z" stroke="#704226" stroke-width="0.7889" stroke-miterlimit="10"/>
<path d="M759.217 153.168H705.031" stroke="#704226" stroke-width="0.7889" stroke-miterlimit="10"/>
<path d="M751.851 159.276H747.759C747.085 159.276 746.539 158.731 746.539 158.057V158.004H753.072V158.057C753.072 158.731 752.525 159.276 751.851 159.276Z" stroke="#704226" stroke-width="0.7889" stroke-miterlimit="10"/>
<path d="M759.217 168.947H705.031" stroke="#704226" stroke-width="0.7889" stroke-miterlimit="10"/>
<path d="M751.851 175.055H747.759C747.085 175.055 746.539 174.509 746.539 173.836V173.783H753.072V173.836C753.072 174.509 752.525 175.055 751.851 175.055Z" stroke="#704226" stroke-width="0.7889" stroke-miterlimit="10"/>
<path d="M759.217 184.725H705.031" stroke="#704226" stroke-width="0.7889" stroke-miterlimit="10"/>
<path d="M751.851 190.832H747.759C747.085 190.832 746.539 190.286 746.539 189.612V189.56H753.072V189.612C753.072 190.286 752.525 190.832 751.851 190.832Z" stroke="#704226" stroke-width="0.7889" stroke-miterlimit="10"/>
<path d="M821.088 156.314C850.692 156.314 874.69 132.337 874.69 102.76C874.69 73.1818 850.692 49.2046 821.088 49.2046C791.486 49.2046 767.488 73.1818 767.488 102.76C767.488 132.337 791.486 156.314 821.088 156.314Z" fill="#FFABAB"/>
<path opacity="0.2" d="M895.123 103.114H855V120.762H895.123V103.114Z" fill="black"/>
<path d="M894.083 101.911H853.961V119.559H894.083V101.911Z" fill="#3593BF"/>
<path d="M858.834 119.559H853.961V101.911H862.747L858.834 119.559Z" fill="#2D7EA3"/>
<path d="M866.767 114.259C866.12 114.259 865.55 114.125 865.057 113.859C864.565 113.593 864.18 113.188 863.906 112.642C863.63 112.097 863.492 111.41 863.492 110.581C863.492 109.713 863.638 109.003 863.928 108.452C864.218 107.9 864.619 107.491 865.129 107.225C865.641 106.959 866.22 106.826 866.871 106.826C867.229 106.826 867.575 106.862 867.909 106.934C868.243 107.005 868.516 107.096 868.73 107.205L868.403 108.114C868.185 108.027 867.933 107.949 867.647 107.879C867.36 107.809 867.093 107.774 866.844 107.774C866.347 107.774 865.934 107.881 865.604 108.094C865.275 108.308 865.028 108.622 864.865 109.037C864.7 109.451 864.619 109.961 864.619 110.568C864.619 111.148 864.698 111.643 864.858 112.053C865.017 112.463 865.255 112.776 865.571 112.992C865.887 113.208 866.283 113.316 866.759 113.316C867.14 113.316 867.481 113.275 867.788 113.195C868.093 113.114 868.37 113.02 868.619 112.91V113.879C868.379 114.001 868.112 114.094 867.818 114.161C867.523 114.226 867.173 114.259 866.767 114.259Z" fill="white"/>
<path d="M875.63 112.165C875.63 112.623 875.516 113.008 875.286 113.32C875.057 113.632 874.731 113.866 874.304 114.023C873.879 114.18 873.372 114.259 872.782 114.259C872.279 114.259 871.846 114.219 871.479 114.141C871.112 114.063 870.791 113.951 870.516 113.808V112.807C870.809 112.951 871.158 113.082 871.564 113.199C871.971 113.317 872.385 113.376 872.808 113.376C873.428 113.376 873.878 113.276 874.158 113.075C874.436 112.875 874.576 112.602 874.576 112.258C874.576 112.062 874.52 111.888 874.409 111.737C874.298 111.587 874.111 111.441 873.849 111.299C873.587 111.157 873.225 111.001 872.762 110.831C872.304 110.657 871.908 110.483 871.574 110.311C871.24 110.139 870.982 109.928 870.801 109.68C870.619 109.431 870.529 109.108 870.529 108.711C870.529 108.105 870.775 107.64 871.266 107.315C871.757 106.99 872.402 106.828 873.201 106.828C873.633 106.828 874.039 106.87 874.415 106.955C874.794 107.04 875.146 107.155 875.474 107.299L875.107 108.169C874.81 108.043 874.493 107.936 874.158 107.848C873.82 107.761 873.479 107.718 873.129 107.718C872.627 107.718 872.242 107.8 871.973 107.966C871.705 108.132 871.571 108.358 871.571 108.646C871.571 108.869 871.633 109.052 871.757 109.196C871.881 109.34 872.081 109.475 872.356 109.602C872.632 109.728 872.994 109.877 873.443 110.047C873.893 110.212 874.281 110.384 874.61 110.56C874.937 110.737 875.188 110.951 875.366 111.202C875.543 111.453 875.63 111.773 875.63 112.165Z" fill="white"/>
<path d="M882.693 112.165C882.693 112.623 882.578 113.008 882.349 113.32C882.119 113.632 881.792 113.866 881.366 114.023C880.94 114.18 880.433 114.259 879.843 114.259C879.342 114.259 878.907 114.219 878.54 114.141C878.173 114.063 877.853 113.951 877.578 113.808V112.807C877.87 112.951 878.22 113.082 878.625 113.199C879.032 113.317 879.446 113.376 879.87 113.376C880.489 113.376 880.939 113.276 881.219 113.075C881.498 112.875 881.638 112.602 881.638 112.258C881.638 112.062 881.582 111.888 881.471 111.737C881.359 111.587 881.173 111.441 880.91 111.299C880.649 111.157 880.286 111.001 879.823 110.831C879.365 110.657 878.969 110.483 878.635 110.311C878.301 110.139 878.043 109.928 877.863 109.68C877.682 109.431 877.591 109.108 877.591 108.711C877.591 108.105 877.836 107.64 878.328 107.315C878.818 106.99 879.463 106.828 880.263 106.828C880.694 106.828 881.1 106.87 881.478 106.955C881.855 107.04 882.208 107.155 882.535 107.299L882.168 108.169C881.871 108.043 881.555 107.936 881.219 107.848C880.883 107.761 880.54 107.718 880.191 107.718C879.688 107.718 879.303 107.8 879.035 107.966C878.766 108.132 878.632 108.358 878.632 108.646C878.632 108.869 878.695 109.052 878.819 109.196C878.943 109.34 879.143 109.475 879.418 109.602C879.693 109.728 880.055 109.877 880.505 110.047C880.955 110.212 881.343 110.384 881.671 110.56C881.998 110.737 882.25 110.951 882.427 111.202C882.604 111.453 882.693 111.773 882.693 112.165Z" fill="white"/>
<path d="M828.086 199.979H825.919L825.43 144.054H828.575L828.086 199.979Z" fill="#AD6E47"/>
<path d="M831.803 181.235H822.207L823.905 177.068H830.106L831.803 181.235Z" fill="#874F2E"/>
<path d="M831.803 181.236H822.207L824.056 184.653C824.295 185.096 824.759 185.372 825.261 185.372H828.749C829.253 185.372 829.716 185.097 829.955 184.653L831.803 181.236Z" fill="#704226"/>
<path d="M842.887 199.979H840.602L828.992 177.068H830.645C831.774 177.068 832.798 177.729 833.265 178.757L842.887 199.979Z" fill="#AD6E47"/>
<path d="M811.125 199.979H813.409L825.019 177.068H823.367C822.237 177.068 821.213 177.729 820.747 178.757L811.125 199.979Z" fill="#AD6E47"/>
<path d="M803.366 145.494C803.366 145.494 819.996 145.494 832.629 145.494C845.263 145.494 851.969 136.923 854.621 126.015C857.272 115.108 858.52 108.562 859.924 101.862C861.327 95.1607 858.831 85.3991 850.409 85.3991C841.988 85.3991 840.74 85.3991 834.345 85.3991C827.95 85.3991 824.503 83.404 821.548 93.8013C818.593 104.199 815.963 117.756 814.159 124.612C812.354 131.469 798.668 130.495 793.794 134.936C790.003 138.392 789.856 145.494 803.366 145.494Z" fill="white"/>
<path d="M846.979 112.029C845.458 104.9 843.119 98.6325 842.769 96.1563C842.457 93.9563 844.357 88.5457 842.734 85.3991C840.058 85.3991 838.078 85.3991 834.346 85.3991C827.951 85.3991 824.504 83.404 821.549 93.8013C818.594 104.199 815.964 117.756 814.159 124.612C812.355 131.469 798.669 130.495 793.795 134.936C790.003 138.392 789.856 145.494 803.367 145.494C803.367 145.494 809.978 145.494 818.03 145.494C816.178 142.828 814.4 138.911 819.958 138.911C828.381 138.911 832.708 138.911 832.708 138.911C839.611 138.911 842.769 137.041 845.342 132.716C847.915 128.392 848.499 119.158 846.979 112.029Z" fill="#E3E3E3"/>
<path d="M774.787 178.998C774.787 178.998 772.448 192.848 771.602 195.725C771.232 196.983 767.009 199.573 765.676 200.091C764.343 200.609 761.824 200.683 761.824 201.571C761.824 202.46 768.195 202.607 771.306 202.386C774.417 202.163 777.454 202.533 777.528 201.497C777.602 200.461 776.417 199.721 776.714 197.5C777.01 195.28 782.714 178.998 782.714 178.998H774.787Z" fill="#F86C6C"/>
<path d="M806.386 178.998C806.386 178.998 808.952 192.321 808.72 195.725C808.629 197.033 804.127 199.573 802.793 200.091C801.46 200.609 798.941 200.683 798.941 201.571C798.941 202.46 805.311 202.607 808.423 202.386C811.534 202.163 814.572 202.533 814.645 201.497C814.719 200.461 814.009 199.734 813.831 197.5C813.631 195.009 814.313 178.998 814.313 178.998H806.386Z" fill="#F86C6C"/>
<path d="M807.223 183.611L814.016 186.759C814.157 182.664 814.312 178.999 814.312 178.999H806.387C806.387 178.999 806.768 180.981 807.223 183.611Z" fill="#A63B3B"/>
<path d="M774.035 183.357L780.4 185.721C781.641 182.066 782.716 178.998 782.716 178.998H774.789C774.789 178.998 774.475 180.86 774.035 183.357Z" fill="#A63B3B"/>
<path d="M791.147 180.869H772.742C772.742 180.869 779.917 139.574 781.945 132.872C783.972 126.172 793.95 121.04 821.09 121.034L817.647 133.807L798.477 141.131C798.477 141.131 795.763 145.656 795.093 150.952C794.422 156.248 794.578 158.585 792.862 161.234C791.147 163.882 792.551 165.752 792.083 169.492C791.614 173.232 791.147 180.869 791.147 180.869Z" fill="#38856D"/>
<path d="M782.957 130.666C787.66 129.726 789.353 134.656 789.664 142.534C789.94 149.511 793.131 154.468 794.488 156.273C794.675 154.856 794.812 153.164 795.092 150.952C795.763 145.656 798.477 141.131 798.477 141.131L817.647 133.807L821.09 121.034C797.019 121.04 786.453 125.078 782.957 130.666Z" fill="#286150"/>
<path d="M774.926 176.895H788.962" stroke="#286150" stroke-width="1.0612" stroke-miterlimit="10" stroke-linecap="round" stroke-linejoin="round"/>
<path d="M797.773 134.936C797.773 134.936 792.938 137.273 791.768 141.013C790.599 144.753 790.247 154.687 788.961 157.96C787.674 161.232 788.65 162.869 788.454 165.907C788.26 168.946 786.855 176.893 786.855 176.893" stroke="#286150" stroke-width="1.0612" stroke-miterlimit="10" stroke-linecap="round" stroke-linejoin="round"/>
<path d="M799.338 89.0054L793.177 112.068L767.598 118.223H796.516C799.28 118.223 801.743 116.479 802.655 113.872L809.319 94.8495C809.319 94.8495 804.094 87.7587 799.338 89.0054Z" fill="#B85050"/>
<path d="M809.315 94.8491C809.315 94.8491 804.089 87.7588 799.333 89.0054L797.422 96.1596C797.899 96.6583 798.559 97.0781 799.489 97.2874C802.412 97.9447 803.396 104.25 805.214 106.553L809.315 94.8491Z" fill="#A63B3B"/>
<path d="M819.408 73.4595C819.408 73.4595 827.211 75.0978 831.423 77.0846C835.633 79.0714 836.92 83.863 838.032 91.3432L829.824 91.8106C829.824 91.8106 833.645 106.848 835.516 112.224C837.388 117.6 841.365 120.327 838.636 120.873C835.907 121.419 813.526 120.873 809.86 120.873C806.195 120.873 810.874 115.575 811.342 112.458C811.81 109.341 811.108 103.887 809.314 101.627C807.521 99.368 805.182 100.147 805.571 93.1345L797.773 89.9396C797.773 89.9396 800.502 82.07 805.649 78.3304C810.796 74.5912 814.374 73.73 819.408 73.4595Z" fill="#638296"/>
<path d="M835.52 112.224C833.648 106.848 829.828 91.8104 829.828 91.8104L831.992 91.6871L822.653 92.191L823.482 87.4893C823.482 87.4893 821.406 92.5117 820.938 97.6545C820.519 102.255 814.525 105.53 811.445 109.028C811.525 110.287 811.491 111.487 811.346 112.459C810.879 115.575 806.199 120.873 809.864 120.873C813.53 120.873 835.911 121.418 838.64 120.873C841.369 120.327 837.392 117.6 835.52 112.224Z" fill="#313F4A"/>
<path d="M836.215 91.4463L829.792 112.263C828.699 115.806 825.421 118.224 821.709 118.224H788.961C788.961 118.224 789.819 115.419 792.159 115.185C794.498 114.951 795.044 115.419 796.681 115.497C798.319 115.574 818.669 110.75 818.669 110.75L824.308 92.1908L836.215 91.4463Z" fill="#F86C6C"/>
<path d="M802.609 91.9204L805.572 93.1345C805.884 90.645 806.98 87.8948 806.977 85.8882C806.973 84.4833 805.962 86.2953 804.636 88.8578C803.984 90.1195 803.219 91.1737 802.609 91.9204Z" fill="#313F4A"/>
<path d="M824.305 92.1901H822.648C822.648 92.1901 822.922 87.9473 824.305 85.3984" stroke="#313F4A" stroke-width="1.0612" stroke-miterlimit="10" stroke-linecap="round" stroke-linejoin="round"/>
<path d="M837.392 118.691C837.392 118.691 846.165 138.911 832.713 138.911C819.261 138.911 813.295 138.911 813.295 138.911C813.295 138.911 813.962 142.054 813.222 144.675C812.897 145.82 812.857 147.025 813.195 148.166C814.125 151.305 815.865 157.338 816.453 160.532C817.272 164.972 818.085 165.907 818.672 169.881C819.261 173.854 821.835 176.776 821.016 180.867H800.779C800.779 180.867 796.568 153.402 795.281 141.948C793.995 130.494 799.376 122.197 810.254 122.197C810.254 122.197 823.121 120.444 824.876 119.625L837.392 118.691Z" fill="#38856D"/>
<path d="M802.02 176.895H819.138" stroke="#286150" stroke-width="1.0612" stroke-miterlimit="10" stroke-linecap="round" stroke-linejoin="round"/>
<path d="M813.762 176.894C813.762 176.894 813.762 171.168 813.059 167.311C812.357 163.454 811.656 159.026 811.188 156.272C810.72 153.519 810.369 148.845 810.018 145.455C809.668 142.065 810.328 139.728 810.583 135.755C815.165 134.82 827.915 135.988 832.01 134.352C836.104 132.716 839.268 131.664 840.201 128.158" stroke="#286150" stroke-width="1.0612" stroke-miterlimit="10" stroke-linecap="round" stroke-linejoin="round"/>
<path d="M823.605 94.4987C825.693 94.2939 830.797 94.0723 834.762 96.1564L836.215 91.4463L824.306 92.1908L823.605 94.4987Z" fill="#A63B3B"/>
<path d="M769.969 197.479C768.519 198.605 766.52 199.762 765.676 200.09C764.343 200.609 761.824 200.683 761.824 201.57C761.824 202.459 768.195 202.607 771.306 202.384C774.417 202.163 777.454 202.533 777.528 201.497C777.589 200.646 776.804 199.994 776.683 198.564C775.878 198.602 774.899 198.633 773.713 198.648C771.496 198.673 770.452 198.1 769.969 197.479Z" fill="#53786B"/>
<path d="M807.086 197.479C805.637 198.605 803.637 199.762 802.793 200.09C801.46 200.609 798.941 200.683 798.941 201.57C798.941 202.459 805.311 202.607 808.423 202.384C811.534 202.163 814.572 202.533 814.645 201.497C814.706 200.646 813.921 199.994 813.799 198.564C812.995 198.602 812.016 198.633 810.829 198.648C808.612 198.673 807.569 198.1 807.086 197.479Z" fill="#53786B"/>
<path d="M808.172 68.758C808.699 69.9553 808.758 70.8029 809.548 71.5914C810.032 72.0756 810.848 72.4386 811.405 72.6469C811.773 72.7844 812.182 72.7571 812.533 72.5791L813.193 72.2434L814.16 74.8632L812.696 75.4901C811.357 76.0637 810.321 77.172 809.846 78.5491C808.795 81.5967 808.62 86.697 813.603 86.697C819.636 86.697 823.167 80.5685 824.903 77.0368C825.266 76.2967 824.821 75.413 824.009 75.2716C822.596 75.0258 820.646 74.4443 820.017 73.0813C818.994 70.8606 818.204 68.5527 818.204 68.5527C818.204 68.5527 818.468 63.9364 818.175 62.5337C817.883 61.1311 816.04 57.6542 812.385 58.6181C808.73 59.5826 805.823 62.3408 806.361 65.9227C806.447 66.5077 808.172 68.758 808.172 68.758Z" fill="#F86C6C"/>
<path d="M814.164 74.8628L814.816 76.6751" stroke="#A63B3B" stroke-width="0.7959" stroke-miterlimit="10" stroke-linecap="round"/>
<path d="M813.645 73.4591C814.97 73.4573 815.517 70.656 815.938 69.9741C816.359 69.2921 815.984 68.8833 815.673 69.3899C815.361 69.8965 814.464 71.5714 813.195 72.2432L813.645 73.4591Z" fill="#A63B3B"/>
<path d="M812.941 59.9042C812.941 59.9042 813.182 61.9152 814.754 63.8777C815.221 64.4619 815.163 66.9165 815.923 67.2086C816.683 67.5006 815.807 65.9813 816.274 64.9297C816.742 63.8777 817.795 64.3456 817.795 65.5139C817.795 66.6821 817.21 67.9099 817.21 67.9099L818.204 68.5526C818.204 68.5526 818.672 65.9813 819.315 63.0011C819.959 60.0209 817.21 56.8655 812.355 57.4496C812.355 57.4496 806.156 54.5281 803.641 60.5469C801.126 66.5658 805.806 67.2672 805.806 67.2672L808.233 68.9033L807.461 67.0196C807.157 66.2755 807.428 65.4244 808.107 64.9927C809.611 64.0363 812.104 62.1738 812.941 59.9042Z" fill="#7A2C2C"/>
<path d="M820.908 55.5541C821.237 53.3855 819.742 51.362 817.573 51.0344C815.401 50.7067 813.377 52.199 813.049 54.3675C812.721 56.536 814.214 58.5596 816.385 58.8872C818.555 59.215 820.58 57.7226 820.908 55.5541Z" fill="#7A2C2C"/>
<path d="M849.554 118.225H802.609V122.665H849.554V118.225Z" stroke="#16367C" stroke-width="0.756" stroke-miterlimit="10"/>
<path d="M812.844 116.796H745.293V118.224H812.844V116.796Z" fill="#E3E3E3"/>
<path d="M787.118 118.224H743.823L737.027 87.2954H780.322L787.118 118.224Z" fill="white"/>
<path d="M787.114 118.224H785.526L778.73 87.2954H780.319L787.114 118.224Z" fill="#E3E3E3"/>
<path d="M764.972 102.76C765.464 105 764.045 106.816 761.803 106.816C759.56 106.816 757.344 105 756.852 102.76C756.359 100.519 757.778 98.7031 760.021 98.7031C762.263 98.7031 764.479 100.519 764.972 102.76Z" fill="#F59D00"/>
<path d="M720.332 104.864C720.332 104.864 717.556 102.919 719.106 100.324C720.657 97.7306 726.985 98.6222 727.309 96.5953C727.634 94.5689 720.535 94.731 715.221 94.8121C709.907 94.8931 707.797 94.3764 707.797 93.039C707.797 91.4685 709.812 91.5879 709.745 89.6363C709.664 87.2632 697.453 88.5297 697.453 88.5297C697.453 88.5297 699.96 87.6663 704.673 87.324C708.163 87.0707 714.085 86.6654 714.409 89.4213C714.735 92.1777 717.006 91.8531 721.59 92.1777C726.174 92.502 730.271 93.8394 729.946 98.0953C729.622 102.351 721.239 99.487 720.25 101.622C719.263 103.757 722.239 104.865 722.239 104.865L720.332 104.864Z" fill="white"/>
<path d="M713.707 103.964L714.735 116.69C714.806 117.556 715.529 118.223 716.399 118.223H719.188H721.976C722.846 118.223 723.569 117.556 723.64 116.69L724.668 103.964H713.707Z" fill="#F59D00"/>
<path opacity="0.2" d="M837.367 50.5483V65.8143L828.246 71.7275H837.367V76.2073H874.022V50.5483H837.367Z" fill="black"/>
<path d="M836.215 49.2046V64.4709L827.094 70.3842H836.215V74.8635H872.87V49.2046H836.215Z" fill="#F86C6C"/>
<path d="M849.74 65.4846L842.332 62.207V61.4758L849.74 57.813V58.9519L843.719 61.7912L849.74 64.3533V65.4846Z" fill="white"/>
<path d="M856.961 56.105L852.771 67.3545H851.508L855.705 56.105H856.961Z" fill="white"/>
<path d="M858.715 64.3538L864.745 61.8071L858.715 58.9522V57.8135L866.124 61.4762V62.2075L858.715 65.4851V64.3538Z" fill="white"/>
<path opacity="0.2" d="M900.926 118.672H867.316V136.319H900.926V118.672Z" fill="black"/>
<path d="M899.645 117.27H866.035V134.919H899.645V117.27Z" fill="#F86C6C"/>
<path d="M876.268 128.181H875.655V125.692H872.877V128.181H872.262V122.899H872.877V125.149H875.655V122.899H876.268V128.181Z" fill="white"/>
<path d="M879.714 128.181H879.097V123.441H877.434V122.899H881.371V123.441H879.715L879.714 128.181Z" fill="white"/>
<path d="M884.868 128.181L883.092 123.506H883.063C883.073 123.604 883.082 123.725 883.09 123.867C883.096 124.009 883.102 124.163 883.107 124.331C883.112 124.498 883.114 124.669 883.114 124.843V128.181H882.543V122.899H883.455L885.129 127.291H885.154L886.853 122.899H887.757V128.181H887.149V124.799C887.149 124.642 887.153 124.485 887.157 124.327C887.161 124.17 887.168 124.02 887.175 123.879C887.182 123.738 887.19 123.617 887.197 123.512H887.168L885.371 128.181H884.868Z" fill="white"/>
<path d="M889.57 128.181V122.899H890.184V127.631H892.531V128.181H889.57Z" fill="white"/>
<path d="M887.339 163.348C887.486 162.455 887.564 161.539 887.564 160.603C887.564 159.667 887.486 158.751 887.339 157.858H882.627C882.315 156.489 881.775 155.206 881.049 154.053L884.38 150.725C883.304 149.229 881.991 147.916 880.494 146.841L877.163 150.17C876.008 149.444 874.725 148.905 873.354 148.592V143.884C872.46 143.738 871.543 143.66 870.607 143.66C869.67 143.66 868.753 143.738 867.859 143.884V148.592C866.489 148.905 865.205 149.444 864.049 150.17L860.718 146.841C859.223 147.916 857.909 149.229 856.833 150.725L860.164 154.053C859.438 155.206 858.897 156.489 858.586 157.858H853.873C853.727 158.751 853.648 159.667 853.648 160.603C853.648 161.539 853.727 162.455 853.873 163.348H858.586C858.897 164.718 859.438 166 860.164 167.154L856.833 170.482C857.909 171.977 859.222 173.29 860.718 174.365L864.049 171.036C865.205 171.762 866.488 172.302 867.859 172.613V177.322C868.753 177.468 869.67 177.546 870.607 177.546C871.543 177.546 872.46 177.468 873.354 177.322V172.612C874.725 172.301 876.008 171.762 877.163 171.036L880.494 174.365C881.99 173.289 883.304 171.977 884.38 170.481L881.049 167.153C881.775 166 882.315 164.717 882.627 163.348H887.339ZM870.607 166.667C867.254 166.667 864.537 163.952 864.537 160.602C864.537 157.253 867.254 154.539 870.607 154.539C873.959 154.539 876.676 157.253 876.676 160.602C876.676 163.952 873.958 166.667 870.607 166.667Z" fill="#4D4D4D"/>
<path d="M904.502 175.648C904.547 175.079 904.549 174.5 904.499 173.913C904.45 173.326 904.351 172.756 904.214 172.202L901.256 172.45C900.988 171.607 900.582 170.831 900.066 170.145L901.98 167.882C901.227 167 900.334 166.246 899.337 165.65L897.423 167.913C896.66 167.519 895.826 167.248 894.95 167.124L894.701 164.17C894.132 164.124 893.552 164.123 892.965 164.173C892.377 164.222 891.807 164.32 891.253 164.458L891.501 167.413C890.658 167.681 889.881 168.087 889.194 168.602L886.929 166.689C886.046 167.443 885.291 168.335 884.695 169.329L886.96 171.243C886.565 172.006 886.294 172.838 886.171 173.714L883.213 173.961C883.169 174.531 883.167 175.109 883.216 175.697C883.266 176.283 883.364 176.855 883.502 177.407L886.459 177.16C886.727 178.002 887.134 178.779 887.65 179.465L885.735 181.728C886.489 182.61 887.382 183.365 888.378 183.96L890.293 181.697C891.056 182.091 891.889 182.362 892.765 182.486L893.015 185.441C893.583 185.485 894.163 185.486 894.751 185.437C895.338 185.388 895.909 185.29 896.462 185.151L896.214 182.197C897.058 181.928 897.835 181.523 898.522 181.008L900.787 182.921C901.67 182.167 902.425 181.274 903.021 180.28L900.756 178.367C901.15 177.605 901.422 176.772 901.545 175.895L904.502 175.648ZM894.177 178.61C892.074 178.786 890.226 177.226 890.049 175.124C889.873 173.022 891.435 171.176 893.538 171C895.642 170.824 897.49 172.384 897.666 174.486C897.843 176.587 896.281 178.434 894.177 178.61Z" fill="#7D7D7D"/>
<g opacity="0.2">
<path d="M790.093 37.2588H737.925C735.554 37.2588 733.633 39.1791 733.633 41.5478V72.0639C733.633 74.4326 735.554 76.3528 737.925 76.3528H759.204C759.934 76.3528 760.602 76.7643 760.929 77.4158L763.561 82.6493C763.746 83.0176 764.273 83.0176 764.458 82.6493L767.089 77.4158C767.416 76.7643 768.084 76.3528 768.814 76.3528H790.093C792.463 76.3528 794.386 74.4326 794.386 72.0639V41.5478C794.386 39.1791 792.463 37.2588 790.093 37.2588Z" fill="black"/>
</g>
<path d="M789.156 35.5024H736.989C734.618 35.5024 732.695 37.4227 732.695 39.7914V70.3075C732.695 72.6762 734.618 74.5965 736.989 74.5965H758.267C758.997 74.5965 759.665 75.0079 759.993 75.6595L762.624 80.893C762.809 81.2613 763.335 81.2613 763.52 80.893L766.151 75.6595C766.479 75.0079 767.147 74.5965 767.877 74.5965H789.156C791.527 74.5965 793.449 72.6762 793.449 70.3075V39.7914C793.448 37.4227 791.527 35.5024 789.156 35.5024Z" fill="#313F4A"/>
<path d="M755.043 43.3727H740.982C740.521 43.3727 740.148 43 740.148 42.5401C740.148 42.0802 740.521 41.7075 740.982 41.7075H755.043C755.503 41.7075 755.877 42.0802 755.877 42.5401C755.877 43 755.503 43.3727 755.043 43.3727Z" fill="#F59D00"/>
<path d="M760.989 47.1613H740.982C740.521 47.1613 740.148 46.7886 740.148 46.3287C740.148 45.8688 740.521 45.4961 740.982 45.4961H760.989C761.45 45.4961 761.822 45.8688 761.822 46.3287C761.822 46.7886 761.45 47.1613 760.989 47.1613Z" fill="white"/>
<path d="M784.447 43.3727H758.708C758.248 43.3727 757.875 43 757.875 42.5401C757.875 42.0802 758.248 41.7075 758.708 41.7075H784.447C784.908 41.7075 785.281 42.0802 785.281 42.5401C785.281 43 784.908 43.3727 784.447 43.3727Z" fill="#3593BF"/>
<path d="M784.446 47.1613H764.439C763.979 47.1613 763.605 46.7886 763.605 46.3287C763.605 45.8688 763.979 45.4961 764.439 45.4961H784.446C784.907 45.4961 785.279 45.8688 785.279 46.3287C785.279 46.7886 784.907 47.1613 784.446 47.1613Z" fill="white"/>
<path d="M771.188 50.0652H740.539C740.323 50.0652 740.148 49.8906 740.148 49.6754C740.148 49.4602 740.323 49.2856 740.539 49.2856H771.188C771.403 49.2856 771.579 49.4602 771.579 49.6754C771.579 49.8906 771.403 50.0652 771.188 50.0652Z" fill="#F86C6C"/>
<path d="M764.869 57.1349H740.982C740.521 57.1349 740.148 56.7622 740.148 56.3023C740.148 55.8424 740.521 55.4697 740.982 55.4697H764.869C765.329 55.4697 765.702 55.8424 765.702 56.3023C765.702 56.7622 765.329 57.1349 764.869 57.1349Z" fill="#F59D00"/>
<path d="M755.043 60.924H740.982C740.521 60.924 740.148 60.5513 740.148 60.0914C740.148 59.6315 740.521 59.2588 740.982 59.2588H755.043C755.503 59.2588 755.877 59.6315 755.877 60.0914C755.877 60.5513 755.503 60.924 755.043 60.924Z" fill="#F59D00"/>
<path d="M760.989 64.7131H740.982C740.521 64.7131 740.148 64.3404 740.148 63.8805C740.148 63.4205 740.521 63.0479 740.982 63.0479H760.989C761.45 63.0479 761.822 63.4205 761.822 63.8805C761.822 64.3404 761.45 64.7131 760.989 64.7131Z" fill="white"/>
<path d="M784.447 60.924H758.708C758.248 60.924 757.875 60.5513 757.875 60.0914C757.875 59.6315 758.248 59.2588 758.708 59.2588H784.447C784.908 59.2588 785.281 59.6315 785.281 60.0914C785.281 60.5513 784.908 60.924 784.447 60.924Z" fill="#3593BF"/>
<path d="M784.446 64.7131H764.439C763.979 64.7131 763.605 64.3404 763.605 63.8805C763.605 63.4205 763.979 63.0479 764.439 63.0479H784.446C784.907 63.0479 785.279 63.4205 785.279 63.8805C785.279 64.3404 784.907 64.7131 784.446 64.7131Z" fill="white"/>
<path d="M771.188 67.6169H740.539C740.323 67.6169 740.148 67.4423 740.148 67.2272C740.148 67.012 740.323 66.8374 740.539 66.8374H771.188C771.403 66.8374 771.579 67.012 771.579 67.2272C771.579 67.4423 771.403 67.6169 771.188 67.6169Z" fill="#F86C6C"/>
<path d="M849.555 118.225H706.145V122.665H849.555V118.225Z" fill="#657C8F"/>
<path d="M811.872 122.664H808.469V207.513H811.872V122.664Z" fill="#657C8F"/>
<path d="M852.959 207.514H849.556L838.5 122.664H841.903L852.959 207.514Z" fill="#657C8F"/>
<path d="M811.872 129.468V122.664H808.469V129.015L811.872 129.468Z" fill="#313F4A"/>
<path d="M841.903 122.664H838.5L839.872 133.195L843.336 133.655L841.903 122.664Z" fill="#313F4A"/>
<path d="M715.406 122.664H712.004V207.513H715.406V122.664Z" fill="#657C8F"/>
<path d="M756.494 207.514H753.091L742.035 122.664H745.438L756.494 207.514Z" fill="#657C8F"/>
<path d="M715.406 129.468V122.664H712.004V129.015L715.406 129.468Z" fill="#313F4A"/>
<path d="M745.438 122.664H742.035L743.406 133.195L746.87 133.655L745.438 122.664Z" fill="#313F4A"/>
<path d="M708.25 207.516H719.246" stroke="#657C8F" stroke-width="1.0612" stroke-miterlimit="10"/>
<path d="M749.262 207.516H760.258" stroke="#657C8F" stroke-width="1.0612" stroke-miterlimit="10"/>
<path d="M804.383 207.516H815.379" stroke="#657C8F" stroke-width="1.0612" stroke-miterlimit="10"/>
<path d="M845.398 207.516H856.395" stroke="#657C8F" stroke-width="1.0612" stroke-miterlimit="10"/>
<path d="M667.49 166.624C667.49 166.624 667.108 157.103 661.556 152.04C656.002 146.975 649.53 145.65 646.722 150.013C643.915 154.377 648.127 158.662 652.26 162.557C656.393 166.454 666.032 166.562 667.49 166.624Z" fill="#999C48"/>
<path d="M668.022 150.053C668.022 150.053 657.793 143.545 653.972 135.441C650.151 127.339 655.766 121.339 658.963 120.444C662.161 119.547 669.023 120.533 671.128 129.468C673.235 138.403 668.022 150.053 668.022 150.053Z" fill="#53786B"/>
<path d="M683.747 139.794C683.747 139.794 680.824 134.067 679.537 126.237C678.25 118.406 682.578 107.304 692.871 108.706C703.166 110.109 700.199 122.876 695.327 128.575C691.964 132.51 683.747 139.794 683.747 139.794Z" fill="#999C48"/>
<path d="M691.619 109.708C691.619 109.708 679.313 149.912 677.113 179.52" stroke="#313F4A" stroke-width="1.0612" stroke-miterlimit="10"/>
<path d="M673.246 159.276C673.246 159.276 672.288 152.96 675.174 146.182C678.06 139.403 683.675 138.78 686.404 140.103C689.133 141.428 688.588 147.662 685.624 152.103C682.661 156.544 677.208 158.383 673.246 159.276Z" fill="#6D9C8B"/>
<path d="M673.097 178.997C673.097 178.997 669.041 146.74 661.555 127.417" stroke="#313F4A" stroke-width="1.0612" stroke-miterlimit="10"/>
<path d="M653.133 155.155C653.133 155.155 660.924 163.475 671.61 168.946" stroke="#313F4A" stroke-width="1.0612" stroke-miterlimit="10"/>
<path d="M683.234 144.559C683.234 144.559 676.177 157.103 670.426 162.051" stroke="#313F4A" stroke-width="1.0612" stroke-miterlimit="10"/>
<path d="M683.625 165.354C683.625 165.354 688.325 141.47 698.763 149.127C707.769 155.734 692.934 166.793 683.625 165.354Z" fill="#F86C6C"/>
<path d="M695.411 153.004C695.411 153.004 688.939 163.796 678.191 168.369" stroke="#313F4A" stroke-width="1.0612" stroke-miterlimit="10"/>
<path d="M677.447 174.417H665.555C665.678 184.491 667.402 194.566 668.18 198.63C668.389 199.718 669.342 200.502 670.451 200.502H677.447H684.443C685.552 200.502 686.506 199.718 686.714 198.63C687.492 194.566 689.215 184.492 689.34 174.417H677.447Z" fill="#313F4A"/>
<path d="M665.555 174.417C665.59 177.262 665.752 180.106 665.985 182.814C669.774 182.453 673.55 181.856 675.264 180.868C678.024 179.277 685.049 178.012 689.259 177.365C689.299 176.387 689.327 175.402 689.34 174.417H677.447H665.555Z" fill="#27323B"/>
<path d="M666.527 200.503H695.41" stroke="#313F4A" stroke-width="1.0612" stroke-miterlimit="10"/>
<path d="M785.798 220.051C785.607 220.246 785.443 220.46 785.308 220.691L785.103 220.584C785.075 220.453 784.95 220.362 784.814 220.379C784.667 220.397 784.563 220.529 784.58 220.674C784.597 220.819 784.73 220.924 784.875 220.908C784.904 220.903 784.931 220.895 784.956 220.884L785.155 220.987C785.045 221.231 784.964 221.489 784.918 221.756L785.247 221.814C785.348 221.238 785.621 220.709 786.037 220.284L785.798 220.051Z" fill="#A5B7C6"/>
<path d="M788.219 219.038C788.144 219.038 788.069 219.04 787.994 219.044L787.962 218.769C788.045 218.703 788.092 218.597 788.079 218.485C788.059 218.312 787.901 218.187 787.728 218.208C787.555 218.228 787.432 218.386 787.452 218.559C787.465 218.67 787.535 218.761 787.63 218.806L787.662 219.082C787.348 219.132 787.044 219.228 786.754 219.366L786.898 219.668C787.311 219.47 787.755 219.371 788.219 219.371C788.437 219.371 788.656 219.394 788.869 219.441L788.94 219.115C788.704 219.063 788.461 219.038 788.219 219.038Z" fill="#A5B7C6"/>
<path d="M791.127 220.161C791.274 220.143 791.378 220.01 791.36 219.865C791.342 219.719 791.209 219.616 791.063 219.633C790.927 219.65 790.828 219.767 790.83 219.901L790.647 220.061C790.462 219.871 790.254 219.703 790.025 219.56L789.848 219.842C790.347 220.156 790.738 220.603 790.978 221.13L791.282 220.992C791.172 220.748 791.031 220.52 790.867 220.312L791.044 220.158C791.071 220.163 791.099 220.164 791.127 220.161Z" fill="#A5B7C6"/>
<path d="M787.971 223.533C787.8 223.543 787.63 223.548 787.461 223.548C787.073 223.548 786.697 223.522 786.369 223.469C786.197 223.443 785.995 223.401 785.809 223.341C786.269 224.161 787.161 224.718 788.184 224.718C789.443 224.718 790.504 223.873 790.807 222.733C790.507 222.932 790.144 223.097 789.723 223.228C789.204 223.39 788.597 223.496 787.971 223.533Z" fill="#A5B7C6"/>
<path d="M788.216 219.706C786.738 219.706 785.535 220.88 785.535 222.324C785.535 222.511 785.555 222.697 785.595 222.879C785.892 223.092 786.788 223.271 787.954 223.202C789.222 223.125 790.289 222.78 790.896 222.25C790.893 222.164 790.886 222.078 790.876 221.993C790.708 220.69 789.564 219.706 788.216 219.706ZM787.264 222.575C786.814 222.575 786.448 222.209 786.448 221.76C786.448 221.311 786.814 220.945 787.264 220.945C787.713 220.945 788.079 221.311 788.079 221.76C788.079 222.21 787.713 222.575 787.264 222.575ZM789.352 222.175C789.022 222.175 788.753 221.906 788.753 221.576C788.753 221.246 789.022 220.977 789.352 220.977C789.683 220.977 789.952 221.246 789.952 221.576C789.952 221.906 789.683 222.175 789.352 222.175Z" fill="#A5B7C6"/>
<path d="M795.273 220.529C795.143 220.477 794.918 220.392 794.663 220.424C794.42 220.454 794.291 220.574 794.291 220.868V221.249H795.273V222.006H794.291V224.409H793.438V222.006H792.848V221.249H793.438V220.858C793.438 220.118 793.834 219.632 794.572 219.632C794.855 219.632 795.081 219.685 795.273 219.768V220.529Z" fill="#A5B7C6"/>
<path d="M797.347 221.996C797.269 221.982 797.189 221.976 797.114 221.976C796.72 221.976 796.449 222.217 796.449 222.687V224.409H795.598V221.249H796.423V221.595C796.622 221.298 796.926 221.164 797.314 221.164C797.497 221.164 797.688 221.22 797.797 221.313L797.347 221.996Z" fill="#A5B7C6"/>
<path d="M800.727 222.822C800.727 222.92 800.72 223.038 800.71 223.109H798.468C798.56 223.565 798.879 223.765 799.281 223.765C799.555 223.765 799.852 223.653 800.08 223.462L800.579 224.009C800.221 224.338 799.764 224.488 799.231 224.488C798.262 224.488 797.59 223.83 797.59 222.835C797.59 221.841 798.242 221.162 799.189 221.162C800.1 221.163 800.724 221.838 800.727 222.822ZM798.472 222.529H799.872C799.793 222.125 799.549 221.897 799.183 221.897C798.781 221.897 798.547 222.138 798.472 222.529Z" fill="#A5B7C6"/>
<path d="M804.097 222.822C804.097 222.92 804.09 223.038 804.081 223.109H801.839C801.93 223.565 802.251 223.765 802.652 223.765C802.926 223.765 803.223 223.653 803.451 223.462L803.95 224.009C803.591 224.338 803.135 224.488 802.602 224.488C801.633 224.488 800.961 223.83 800.961 222.835C800.961 221.841 801.613 221.162 802.56 221.162C803.471 221.163 804.095 221.838 804.097 222.822ZM801.843 222.529H803.243C803.164 222.125 802.92 221.897 802.554 221.897C802.152 221.897 801.918 222.138 801.843 222.529Z" fill="#A5B7C6"/>
<path d="M807.778 222.825C807.778 223.774 807.119 224.488 806.248 224.488C805.823 224.488 805.523 224.322 805.318 224.077V225.711H804.469V221.247H805.301V221.596C805.507 221.338 805.81 221.162 806.244 221.162C807.119 221.163 807.778 221.877 807.778 222.825ZM805.275 222.825C805.275 223.324 805.604 223.696 806.087 223.696C806.59 223.696 806.903 223.307 806.903 222.825C806.903 222.343 806.59 221.955 806.087 221.955C805.604 221.955 805.275 222.327 805.275 222.825Z" fill="#A5B7C6"/>
<path d="M809.149 220.215C809.149 220.521 808.911 220.756 808.605 220.756C808.297 220.756 808.062 220.521 808.062 220.215C808.062 219.908 808.297 219.667 808.605 219.667C808.911 219.667 809.149 219.908 809.149 220.215ZM809.036 224.408H808.184V221.248H809.036V224.408Z" fill="#A5B7C6"/>
<path d="M810.456 222.373L811.648 221.248H812.692L811.157 222.734L812.702 224.407H811.654L810.456 223.13V224.407H809.605V219.712H810.456V222.373Z" fill="#A5B7C6"/>
<path d="M752.421 224.379V223.914C752.188 224.231 751.808 224.456 751.368 224.456C750.555 224.456 749.98 223.837 749.98 222.824C749.98 221.83 750.548 221.185 751.368 221.185C751.788 221.185 752.17 221.391 752.421 221.733V220.075H752.906V224.379H752.421ZM752.421 223.534V222.121C752.247 221.85 751.872 221.617 751.485 221.617C750.858 221.617 750.484 222.133 750.484 222.824C750.484 223.514 750.859 224.024 751.485 224.024C751.873 224.024 752.247 223.805 752.421 223.534Z" fill="#A5B7C6"/>
<path d="M753.535 222.818C753.535 221.914 754.181 221.185 755.073 221.185C756.015 221.185 756.571 221.921 756.571 222.857V222.98H754.046C754.084 223.567 754.499 224.057 755.17 224.057C755.525 224.057 755.886 223.915 756.132 223.663L756.364 223.98C756.054 224.29 755.634 224.457 755.125 224.457C754.201 224.457 753.535 223.793 753.535 222.818ZM755.066 221.586C754.402 221.586 754.072 222.148 754.046 222.624H756.092C756.087 222.16 755.777 221.586 755.066 221.586Z" fill="#A5B7C6"/>
<path d="M756.918 223.966L757.169 223.618C757.377 223.857 757.77 224.063 758.197 224.063C758.674 224.063 758.933 223.837 758.933 223.528C758.933 222.772 757.002 223.238 757.002 222.083C757.002 221.599 757.422 221.185 758.164 221.185C758.694 221.185 759.069 221.385 759.32 221.638L759.094 221.974C758.906 221.747 758.564 221.579 758.164 221.579C757.737 221.579 757.472 221.792 757.472 222.069C757.472 222.753 759.404 222.302 759.404 223.514C759.404 224.037 758.985 224.457 758.177 224.457C757.666 224.457 757.234 224.302 756.918 223.966Z" fill="#A5B7C6"/>
<path d="M759.949 220.493C759.949 220.313 760.098 220.164 760.272 220.164C760.453 220.164 760.601 220.313 760.601 220.493C760.601 220.674 760.453 220.816 760.272 220.816C760.098 220.816 759.949 220.674 759.949 220.493ZM760.033 224.378V221.261H760.517V224.378H760.033Z" fill="#A5B7C6"/>
<path d="M761.315 225.18L761.561 224.818C761.819 225.128 762.128 225.245 762.575 225.245C763.091 225.245 763.576 224.993 763.576 224.308V223.863C763.348 224.18 762.968 224.419 762.528 224.419C761.715 224.419 761.141 223.812 761.141 222.805C761.141 221.805 761.708 221.185 762.528 221.185C762.948 221.185 763.323 221.392 763.576 221.734V221.263H764.059V224.29C764.059 225.322 763.336 225.644 762.575 225.644C762.044 225.644 761.683 225.542 761.315 225.18ZM763.576 223.482V222.121C763.408 221.85 763.033 221.618 762.645 221.618C762.019 221.618 761.644 222.115 761.644 222.805C761.644 223.489 762.019 223.992 762.645 223.992C763.033 223.992 763.408 223.753 763.576 223.482Z" fill="#A5B7C6"/>
<path d="M766.973 224.379V222.34C766.973 221.792 766.695 221.617 766.275 221.617C765.893 221.617 765.532 221.849 765.351 222.101V224.379H764.867V221.262H765.351V221.714C765.57 221.455 765.997 221.184 766.462 221.184C767.115 221.184 767.456 221.513 767.456 222.191V224.379H766.973Z" fill="#A5B7C6"/>
<path d="M768.082 222.818C768.082 221.914 768.728 221.185 769.619 221.185C770.561 221.185 771.117 221.921 771.117 222.857V222.98H768.591C768.631 223.567 769.043 224.057 769.716 224.057C770.071 224.057 770.432 223.915 770.678 223.663L770.91 223.98C770.601 224.29 770.181 224.457 769.67 224.457C768.747 224.457 768.082 223.793 768.082 222.818ZM769.612 221.586C768.947 221.586 768.618 222.148 768.592 222.624H770.639C770.633 222.16 770.323 221.586 769.612 221.586Z" fill="#A5B7C6"/>
<path d="M774 224.379V223.914C773.768 224.231 773.386 224.456 772.947 224.456C772.134 224.456 771.559 223.837 771.559 222.824C771.559 221.83 772.127 221.185 772.947 221.185C773.367 221.185 773.749 221.391 774 221.733V220.075H774.484V224.379H774ZM774 223.534V222.121C773.826 221.85 773.451 221.617 773.064 221.617C772.437 221.617 772.063 222.133 772.063 222.824C772.063 223.514 772.437 224.024 773.064 224.024C773.451 224.024 773.826 223.805 774 223.534Z" fill="#A5B7C6"/>
<path d="M776.797 224.379V220.075H777.282V221.733C777.533 221.392 777.908 221.185 778.334 221.185C779.148 221.185 779.722 221.83 779.722 222.824C779.722 223.837 779.148 224.457 778.334 224.457C777.895 224.457 777.514 224.231 777.282 223.915V224.38H776.797V224.379ZM778.211 224.024C778.845 224.024 779.22 223.514 779.22 222.824C779.22 222.133 778.845 221.617 778.211 221.617C777.831 221.617 777.449 221.849 777.282 222.121V223.534C777.449 223.805 777.831 224.024 778.211 224.024Z" fill="#A5B7C6"/>
<path d="M780.254 225.159C780.325 225.192 780.441 225.21 780.519 225.21C780.732 225.21 780.874 225.14 780.985 224.881L781.191 224.411L779.887 221.262H780.409L781.45 223.817L782.483 221.262H783.013L781.45 225.011C781.262 225.463 780.945 225.637 780.533 225.643C780.429 225.643 780.267 225.623 780.177 225.597L780.254 225.159Z" fill="#A5B7C6"/>
</g>
</g>
<path d="M76.5156 111.233V76.0352H87.2396C89.8645 76.0352 91.9368 76.4148 93.4565 77.1739C95.0107 77.9331 96.1159 79.0029 96.7721 80.3832C97.4629 81.7635 97.8082 83.3854 97.8082 85.2488V86.6981C97.8082 89.4243 96.634 91.512 94.2854 92.9614C95.9432 93.617 97.2039 94.566 98.0673 95.8083C98.9307 97.0506 99.3624 98.5344 99.3624 100.26V101.709C99.3624 103.607 99.0171 105.281 98.3263 106.73C97.6355 108.145 96.4957 109.249 94.907 110.043C93.3183 110.837 91.1943 111.233 88.5348 111.233H76.5156ZM87.2396 81.729H82.7324V90.5285H87.2396C88.6211 90.5285 89.6573 90.218 90.348 89.5968C91.0733 88.9412 91.436 88.0613 91.436 86.957V85.2488C91.436 84.1445 91.0733 83.2819 90.348 82.6607C89.6573 82.0396 88.6211 81.729 87.2396 81.729ZM88.5348 96.2224H82.7324V105.54H88.5348C89.9854 105.54 91.0906 105.195 91.8504 104.504C92.6102 103.814 92.9902 102.882 92.9902 101.709V100.001C92.9902 98.8278 92.6102 97.9132 91.8504 97.2576C91.0906 96.5674 89.9854 96.2224 88.5348 96.2224ZM128.43 111.233L126.255 104.349H114.184L112.008 111.233H105.842L117.603 76.0352H123.094L134.906 111.233H128.43ZM117.551 93.5825L115.945 98.6552H124.441L122.835 93.5825L120.245 84.6794L117.551 93.5825ZM143.899 111.233V76.0352H149.597C152.327 79.5895 154.917 83.3509 157.368 87.3193C159.821 91.2532 162.049 95.308 164.052 99.4834L163.585 88.9757V76.0352H169.543V111.233H163.844C161.634 106.885 159.337 102.52 156.954 98.1376C154.606 93.7205 152.102 89.5624 149.442 85.6629L149.856 97.7752V111.233H143.899ZM182.371 111.233V76.0352H188.07C190.799 79.5895 193.39 83.3509 195.841 87.3193C198.294 91.2532 200.521 95.308 202.524 99.4834L202.058 88.9757V76.0352H208.016V111.233H202.317C200.107 106.885 197.81 102.52 195.427 98.1376C193.079 93.7205 190.574 89.5624 187.915 85.6629L188.329 97.7752V111.233H182.371ZM241.256 105.281V111.233H220.844V76.0352H240.738V81.9878H227.061V90.425H239.184V96.3777H227.061V105.281H241.256ZM257.944 98.2929V111.233H251.727V76.0352H263.488C267.046 76.0352 269.774 76.9496 271.673 78.7785C273.608 80.5729 274.574 82.9886 274.574 86.0252V88.251C274.574 90.2524 274.143 92.0124 273.279 93.5308C272.416 95.0491 271.173 96.2051 269.549 96.9988C272.382 101.83 274.799 106.575 276.802 111.233H269.704C267.978 106.92 265.922 102.606 263.539 98.2929H257.944ZM263.488 81.729H257.944V92.599H263.488C265.008 92.599 266.165 92.2194 266.959 91.4603C267.787 90.6665 268.202 89.5968 268.202 88.251V86.0252C268.202 84.7139 267.787 83.6787 266.959 82.9195C266.165 82.1258 265.008 81.729 263.488 81.729ZM320.298 105.281V111.233H299.886V76.0352H319.779V81.9878H306.103V90.425H318.225V96.3777H306.103V105.281H320.298ZM347.556 111.233L340.199 98.3446L333.205 111.233H326.678L336.987 92.9614L327.247 76.0352H334.293L341.08 87.8369L347.452 76.0352H353.98L344.292 93.2719L354.601 111.233H347.556ZM382.127 111.233L379.951 104.349H367.88L365.705 111.233H359.54L371.3 76.0352H376.791L388.603 111.233H382.127ZM371.248 93.5825L369.642 98.6552H378.138L376.532 93.5825L373.942 84.6794L371.248 93.5825ZM404.383 76.0352L414.227 100.105L424.018 76.0352H430.805V111.233H424.847V97.7752L425.624 85.4559L416.869 107.092H411.325L402.777 85.4041L403.554 97.7752V111.233H397.597V76.0352H404.383ZM443.658 111.233V76.0352H455.263C458.958 76.0352 461.721 76.9669 463.552 78.8303C465.417 80.6937 466.35 83.1783 466.35 86.2841V89.0274C466.35 92.1332 465.417 94.635 463.552 96.533C461.721 98.3964 458.958 99.3281 455.263 99.3281H449.875V111.233H443.658ZM455.263 81.9878H449.875V93.3755H455.263C456.782 93.3755 457.939 92.9958 458.734 92.2367C459.563 91.4776 459.978 90.4077 459.978 89.0274V86.2841C459.978 84.9382 459.563 83.8857 458.734 83.1266C457.939 82.3674 456.782 81.9878 455.263 81.9878ZM496.823 105.281V111.233H476.515V76.0352H482.732V105.281H496.823ZM526.293 105.281V111.233H505.881V76.0352H525.774V81.9878H512.097V90.425H524.22V96.3777H512.097V105.281H526.293Z" fill="white"/>
<path d="M83.9992 44.5551C83.9992 46.6982 83.5131 48.294 82.5409 49.3425C81.5687 50.3755 80.2262 50.8921 78.5132 50.8921C77.9114 50.8921 77.2632 50.8227 76.5688 50.6839C75.8898 50.5451 75.1645 50.2984 74.3929 49.9438L75.0874 48.2555C75.7664 48.5485 76.3836 48.7643 76.9392 48.9031C77.5102 49.0264 78.0194 49.0881 78.4669 49.0881C79.5626 49.0881 80.4422 48.7489 81.1058 48.0705C81.7693 47.3921 82.1011 46.2203 82.1011 44.5551V43.1905C81.5456 43.6685 80.9514 44.054 80.3187 44.3469C79.686 44.6399 79.0148 44.7863 78.3049 44.7863C76.9469 44.7863 75.8821 44.3623 75.1105 43.5143C74.3389 42.6509 73.9531 41.5176 73.9531 40.1145V39.4207C73.9531 38.511 74.146 37.7015 74.5318 36.9923C74.933 36.283 75.4963 35.728 76.2216 35.3271C76.9623 34.9108 77.8419 34.7026 78.8604 34.7026C80.5116 34.7026 81.7771 35.2654 82.6567 36.391C83.5517 37.5165 83.9992 39.0969 83.9992 41.1322V44.5551ZM75.8744 40.1145C75.8744 40.9934 76.1059 41.6949 76.5688 42.2192C77.0472 42.7434 77.7108 43.0055 78.5595 43.0055C79.2077 43.0055 79.8249 42.8667 80.4113 42.5892C81.0132 42.2962 81.5764 41.9031 82.1011 41.4097V41.1322C82.1011 39.5749 81.8156 38.4185 81.2447 37.663C80.6891 36.9075 79.8867 36.5297 78.8373 36.5297C77.9114 36.5297 77.1861 36.7996 76.6614 37.3392C76.1367 37.8788 75.8744 38.5727 75.8744 39.4207V40.1145ZM95.7037 36.5529C94.5463 38.9119 93.5664 41.2709 92.764 43.6299C91.9615 45.9736 91.3519 48.3172 90.9353 50.6608H88.8751C89.2918 48.348 89.8936 46.0352 90.6807 43.7225C91.4677 41.4097 92.4245 39.0969 93.551 36.7841H86.2826V34.9339H95.7037V36.5529ZM108.667 41.0628V44.5088C108.667 46.6057 108.196 48.1938 107.255 49.2731C106.313 50.3524 105.001 50.8921 103.319 50.8921C101.637 50.8921 100.326 50.3524 99.3843 49.2731C98.4584 48.1938 97.9955 46.6057 97.9955 44.5088V41.0628C97.9955 38.9813 98.4661 37.4009 99.4075 36.3216C100.349 35.2423 101.653 34.7026 103.319 34.7026C105.001 34.7026 106.313 35.2423 107.255 36.3216C108.196 37.4009 108.667 38.9813 108.667 41.0628ZM106.63 41.0628C106.63 39.4592 106.336 38.3029 105.75 37.5936C105.179 36.8844 104.369 36.5297 103.319 36.5297C102.285 36.5297 101.475 36.8844 100.889 37.5936C100.318 38.3029 100.032 39.4592 100.032 41.0628V44.5088C100.032 46.0969 100.318 47.261 100.889 48.0011C101.475 48.7258 102.285 49.0881 103.319 49.0881C104.369 49.0881 105.179 48.7258 105.75 48.0011C106.336 47.261 106.63 46.0969 106.63 44.5088V41.0628ZM123.413 42.3117L122.024 43.3293L121.585 42.728L120.149 40.0451L118.714 42.7511L118.274 43.3293L116.886 42.3117L117.325 41.7335L119.432 39.5595L116.446 39.0044L115.728 38.7731L116.261 37.1311L116.955 37.3855L119.686 38.6806L119.293 35.674V34.9339H121.006V35.674L120.589 38.6806L123.321 37.3623L124.038 37.1311L124.547 38.75L123.853 39.0044L120.867 39.5363L122.973 41.7103L123.413 42.3117ZM139.942 50.6608H130.96V49.1344C130.96 47.978 131.099 47.0066 131.377 46.2203C131.67 45.4339 132.056 44.7863 132.535 44.2775C133.028 43.7533 133.576 43.337 134.178 43.0286L135.683 42.2654C136.392 41.8954 136.956 41.5099 137.372 41.109C137.804 40.7081 138.021 40.1299 138.021 39.3744V38.9813C138.021 38.1178 137.774 37.4934 137.28 37.1079C136.801 36.7225 136.092 36.5297 135.15 36.5297C134.626 36.5297 134.07 36.5991 133.484 36.7379C132.897 36.8612 132.249 37.0771 131.539 37.3855L130.891 35.6971C131.663 35.3425 132.403 35.0881 133.113 34.9339C133.838 34.7797 134.533 34.7026 135.196 34.7026C136.909 34.7026 138.136 35.1035 138.877 35.9053C139.618 36.6916 139.988 37.717 139.988 38.9813V39.3744C139.988 40.207 139.826 40.9009 139.502 41.4559C139.193 42.011 138.777 42.4813 138.252 42.8667C137.743 43.2368 137.195 43.5683 136.609 43.8612L135.104 44.6476C134.379 45.033 133.838 45.565 133.484 46.2434C133.144 46.9218 132.959 47.7852 132.928 48.8337H139.942V50.6608ZM142.863 42.4736L143.326 34.9339H151.15V36.7841H145.108L144.83 41.294C145.509 41.0628 146.242 40.9471 147.029 40.9471C148.48 40.9471 149.637 41.3326 150.502 42.1035C151.366 42.8744 151.798 44.0154 151.798 45.5264V46.2203C151.798 47.5925 151.397 48.7181 150.594 49.5969C149.792 50.4603 148.503 50.8921 146.728 50.8921C146.034 50.8921 145.309 50.815 144.553 50.6608C143.812 50.4912 143.04 50.2291 142.238 49.8744L142.863 48.2092C143.619 48.533 144.306 48.7643 144.923 48.9031C145.54 49.0264 146.134 49.0881 146.705 49.0881C147.662 49.0881 148.411 48.8722 148.951 48.4405C149.491 47.9934 149.761 47.2533 149.761 46.2203V45.5264C149.761 44.6784 149.514 44 149.02 43.4912C148.542 42.9824 147.809 42.728 146.821 42.728C146.358 42.728 145.903 42.7896 145.455 42.913C145.008 43.0209 144.537 43.1828 144.043 43.3987L142.863 42.4736ZM165.451 41.0628V44.5088C165.451 46.6057 164.98 48.1938 164.039 49.2731C163.097 50.3524 161.786 50.8921 160.103 50.8921C158.421 50.8921 157.11 50.3524 156.168 49.2731C155.242 48.1938 154.779 46.6057 154.779 44.5088V41.0628C154.779 38.9813 155.25 37.4009 156.191 36.3216C157.133 35.2423 158.437 34.7026 160.103 34.7026C161.786 34.7026 163.097 35.2423 164.039 36.3216C164.98 37.4009 165.451 38.9813 165.451 41.0628ZM163.414 41.0628C163.414 39.4592 163.12 38.3029 162.534 37.5936C161.963 36.8844 161.153 36.5297 160.103 36.5297C159.07 36.5297 158.259 36.8844 157.673 37.5936C157.102 38.3029 156.816 39.4592 156.816 41.0628V44.5088C156.816 46.0969 157.102 47.261 157.673 48.0011C158.259 48.7258 159.07 49.0881 160.103 49.0881C161.153 49.0881 161.963 48.7258 162.534 48.0011C163.12 47.261 163.414 46.0969 163.414 44.5088V41.0628Z" fill="white"/>
<path d="M83.8141 147.906V149.78H75.2031V134.053H77.217V147.906H83.8141ZM95.3439 143.35V144.738C95.3439 146.372 94.9195 147.66 94.0707 148.6C93.2374 149.541 92.0414 150.011 90.4828 150.011C88.9396 150.011 87.7437 149.541 86.8949 148.6C86.0462 147.66 85.6218 146.372 85.6218 144.738V143.35C85.6218 141.747 86.0385 140.475 86.8718 139.534C87.7205 138.578 88.9242 138.1 90.4828 138.1C92.0414 138.1 93.2374 138.578 94.0707 139.534C94.9195 140.475 95.3439 141.747 95.3439 143.35ZM93.3763 143.35C93.3763 142.255 93.1294 141.4 92.6356 140.783C92.1418 140.151 91.4242 139.835 90.4828 139.835C89.5569 139.835 88.8393 140.151 88.3301 140.783C87.8363 141.4 87.5894 142.255 87.5894 143.35V144.738C87.5894 145.879 87.8363 146.758 88.3301 147.374C88.8393 147.991 89.5569 148.3 90.4828 148.3C91.4242 148.3 92.1418 147.991 92.6356 147.374C93.1294 146.758 93.3763 145.879 93.3763 144.738V143.35ZM104.812 139.997C104.117 139.997 103.438 140.12 102.775 140.367C102.126 140.613 101.432 141.084 100.691 141.778V149.78H98.7932V138.331H100.599V140.182C101.386 139.411 102.103 138.871 102.751 138.563C103.415 138.254 104.102 138.1 104.812 138.1V139.997ZM115.603 149.109C114.908 149.448 114.214 149.679 113.519 149.803C112.825 149.942 112.184 150.011 111.598 150.011C109.947 150.011 108.712 149.541 107.895 148.6C107.092 147.66 106.691 146.372 106.691 144.738V143.35C106.691 141.762 107.092 140.49 107.895 139.534C108.712 138.578 109.862 138.1 111.343 138.1C112.13 138.1 112.848 138.262 113.496 138.586C114.16 138.894 114.684 139.372 115.07 140.02C115.471 140.652 115.672 141.469 115.672 142.471C115.672 143.119 115.579 143.859 115.394 144.692H108.566V144.738C108.566 145.91 108.805 146.796 109.283 147.398C109.777 147.999 110.564 148.3 111.644 148.3C112.138 148.3 112.678 148.238 113.265 148.115C113.866 147.991 114.453 147.798 115.024 147.536L115.603 149.109ZM111.343 139.765C110.448 139.765 109.77 140.058 109.307 140.644C108.859 141.215 108.612 142.024 108.566 143.073H113.751C113.797 142.795 113.82 142.533 113.82 142.286C113.82 141.423 113.573 140.791 113.079 140.39C112.601 139.974 112.022 139.765 111.343 139.765ZM124.35 139.881C123.918 139.881 123.432 139.997 122.892 140.228C122.352 140.444 121.673 140.876 120.855 141.523V149.78H118.957V138.331H120.762V139.927C121.58 139.249 122.305 138.779 122.938 138.517C123.571 138.239 124.196 138.1 124.813 138.1C125.538 138.1 126.14 138.27 126.619 138.609C127.097 138.933 127.452 139.403 127.683 140.02C128.532 139.295 129.288 138.794 129.952 138.517C130.631 138.239 131.294 138.1 131.943 138.1C132.961 138.1 133.74 138.439 134.281 139.118C134.821 139.781 135.091 140.729 135.091 141.963V149.78H133.193V142.24C133.193 140.667 132.622 139.881 131.48 139.881C131.048 139.881 130.554 139.997 129.998 140.228C129.458 140.444 128.779 140.876 127.961 141.523C127.977 141.585 127.984 141.654 127.984 141.731C127.984 141.808 127.984 141.885 127.984 141.963V149.78H126.086V142.24C126.086 140.667 125.508 139.881 124.35 139.881ZM146.13 135.533H144V133.405H146.13V135.533ZM146.014 149.78H144.116V138.331H146.014V149.78ZM154.69 150.011C153.826 150.011 152.931 149.834 152.005 149.479V154.706H150.107V138.331H151.912V139.95C152.622 139.272 153.27 138.794 153.857 138.517C154.443 138.239 155.045 138.1 155.662 138.1C156.882 138.1 157.815 138.563 158.463 139.488C159.127 140.413 159.459 141.716 159.459 143.396V144.738C159.459 146.341 159.05 147.621 158.232 148.577C157.429 149.533 156.249 150.011 154.69 150.011ZM155.199 139.881C154.752 139.881 154.289 139.997 153.811 140.228C153.332 140.459 152.73 140.929 152.005 141.639V147.744C152.453 147.945 152.885 148.091 153.301 148.184C153.718 148.261 154.127 148.3 154.528 148.3C155.578 148.3 156.334 147.983 156.797 147.351C157.26 146.704 157.491 145.833 157.491 144.738V143.396C157.491 142.194 157.298 141.307 156.912 140.737C156.542 140.166 155.971 139.881 155.199 139.881ZM165.77 148.323C167.313 148.323 168.085 147.798 168.085 146.75C168.085 146.303 167.946 145.948 167.668 145.686C167.391 145.424 166.881 145.2 166.141 145.015L164.868 144.692C163.926 144.46 163.224 144.059 162.761 143.489C162.298 142.903 162.067 142.209 162.067 141.407C162.067 140.822 162.198 140.282 162.46 139.789C162.722 139.28 163.139 138.871 163.71 138.563C164.281 138.254 165.022 138.1 165.932 138.1C166.519 138.1 167.113 138.17 167.715 138.308C168.332 138.432 168.957 138.648 169.59 138.956L168.988 140.552C167.861 140.043 166.843 139.789 165.932 139.789C164.59 139.789 163.918 140.29 163.918 141.292C163.918 141.677 164.042 142.009 164.289 142.286C164.536 142.564 164.999 142.787 165.678 142.957L166.951 143.281C167.969 143.528 168.718 143.928 169.196 144.483C169.675 145.039 169.914 145.755 169.914 146.634C169.914 147.266 169.775 147.845 169.497 148.369C169.235 148.878 168.803 149.279 168.201 149.572C167.614 149.865 166.82 150.011 165.817 150.011C165.153 150.011 164.489 149.942 163.826 149.803C163.178 149.664 162.506 149.441 161.812 149.132L162.321 147.559C162.985 147.822 163.587 148.014 164.127 148.138C164.667 148.261 165.215 148.323 165.77 148.323ZM179.998 149.78V148.161C179.196 148.855 178.478 149.34 177.846 149.618C177.213 149.88 176.58 150.011 175.948 150.011C174.929 150.011 174.15 149.68 173.61 149.017C173.07 148.338 172.799 147.39 172.799 146.172V138.331H174.698V145.894C174.698 146.696 174.836 147.29 175.114 147.675C175.407 148.045 175.84 148.23 176.411 148.23C176.843 148.23 177.329 148.122 177.869 147.906C178.409 147.691 179.08 147.259 179.883 146.611V138.331H181.781V149.78H179.998ZM191.261 139.881C190.829 139.881 190.343 139.997 189.803 140.228C189.263 140.444 188.584 140.876 187.766 141.523V149.78H185.868V138.331H187.674V139.927C188.491 139.249 189.217 138.779 189.849 138.517C190.482 138.239 191.107 138.1 191.724 138.1C192.45 138.1 193.052 138.27 193.53 138.609C194.008 138.933 194.363 139.403 194.595 140.02C195.443 139.295 196.2 138.794 196.863 138.517C197.542 138.239 198.206 138.1 198.854 138.1C199.872 138.1 200.652 138.439 201.192 139.118C201.732 139.781 202.002 140.729 202.002 141.963V149.78H200.104V142.24C200.104 140.667 199.533 139.881 198.391 139.881C197.959 139.881 197.465 139.997 196.909 140.228C196.369 140.444 195.69 140.876 194.872 141.523C194.888 141.585 194.896 141.654 194.896 141.731C194.896 141.808 194.896 141.885 194.896 141.963V149.78H192.998V142.24C192.998 140.667 192.419 139.881 191.261 139.881ZM207.191 149.78H205.062V147.675H207.191V149.78Z" fill="white"/>
<path d="M82.7125 220.594V222.467H74.1016V206.74H76.1154V220.594H82.7125ZM94.2423 216.038V217.425C94.2423 219.06 93.8179 220.347 92.9692 221.288C92.1359 222.228 90.9399 222.698 89.3813 222.698C87.8381 222.698 86.6421 222.228 85.7934 221.288C84.9446 220.347 84.5202 219.06 84.5202 217.425V216.038C84.5202 214.434 84.9369 213.162 85.7702 212.221C86.619 211.266 87.8227 210.788 89.3813 210.788C90.9399 210.788 92.1359 211.266 92.9692 212.221C93.8179 213.162 94.2423 214.434 94.2423 216.038ZM92.2747 216.038C92.2747 214.943 92.0278 214.087 91.534 213.47C91.0402 212.838 90.3226 212.522 89.3813 212.522C88.4554 212.522 87.7378 212.838 87.2285 213.47C86.7347 214.087 86.4878 214.943 86.4878 216.038V217.425C86.4878 218.566 86.7347 219.445 87.2285 220.062C87.7378 220.679 88.4554 220.987 89.3813 220.987C90.3226 220.987 91.0402 220.679 91.534 220.062C92.0278 219.445 92.2747 218.566 92.2747 217.425V216.038ZM103.71 212.684C103.016 212.684 102.337 212.807 101.673 213.054C101.025 213.301 100.33 213.771 99.5897 214.465V222.467H97.6916V211.019H99.4972V212.869C100.284 212.098 101.002 211.558 101.65 211.25C102.313 210.942 103 210.788 103.71 210.788V212.684ZM114.501 221.796C113.807 222.136 113.112 222.367 112.418 222.49C111.723 222.629 111.083 222.698 110.496 222.698C108.845 222.698 107.611 222.228 106.793 221.288C105.991 220.347 105.589 219.06 105.589 217.425V216.038C105.589 214.449 105.991 213.177 106.793 212.221C107.611 211.266 108.761 210.788 110.242 210.788C111.029 210.788 111.746 210.949 112.395 211.273C113.058 211.582 113.583 212.06 113.969 212.707C114.37 213.339 114.57 214.156 114.57 215.159C114.57 215.806 114.478 216.546 114.293 217.379H107.464V217.425C107.464 218.597 107.703 219.484 108.182 220.085C108.676 220.686 109.463 220.987 110.543 220.987C111.037 220.987 111.577 220.925 112.163 220.802C112.765 220.679 113.351 220.486 113.922 220.224L114.501 221.796ZM110.242 212.453C109.347 212.453 108.668 212.746 108.205 213.332C107.757 213.902 107.511 214.712 107.464 215.76H112.649C112.695 215.482 112.719 215.22 112.719 214.974C112.719 214.11 112.472 213.478 111.978 213.077C111.499 212.661 110.921 212.453 110.242 212.453ZM123.249 212.568C122.817 212.568 122.33 212.684 121.79 212.915C121.25 213.131 120.571 213.563 119.753 214.21V222.467H117.855V211.019H119.661V212.615C120.479 211.936 121.204 211.466 121.837 211.204C122.469 210.926 123.094 210.788 123.712 210.788C124.437 210.788 125.039 210.957 125.517 211.296C125.995 211.62 126.35 212.09 126.582 212.707C127.431 211.982 128.187 211.481 128.85 211.204C129.529 210.926 130.193 210.788 130.841 210.788C131.86 210.788 132.639 211.127 133.179 211.805C133.719 212.468 133.989 213.416 133.989 214.65V222.467H132.091V214.927C132.091 213.355 131.52 212.568 130.378 212.568C129.946 212.568 129.452 212.684 128.897 212.915C128.357 213.131 127.678 213.563 126.86 214.21C126.875 214.272 126.883 214.342 126.883 214.419C126.883 214.496 126.883 214.573 126.883 214.65V222.467H124.985V214.927C124.985 213.355 124.406 212.568 123.249 212.568ZM145.028 208.22H142.899V206.093H145.028V208.22ZM144.913 222.467H143.015V211.019H144.913V222.467ZM153.589 222.698C152.724 222.698 151.829 222.521 150.904 222.166V227.393H149.005V211.019H150.811V212.638C151.521 211.959 152.169 211.481 152.755 211.204C153.342 210.926 153.944 210.788 154.561 210.788C155.78 210.788 156.714 211.25 157.362 212.175C158.025 213.1 158.357 214.403 158.357 216.084V217.425C158.357 219.029 157.948 220.308 157.13 221.264C156.328 222.22 155.147 222.698 153.589 222.698ZM154.098 212.568C153.65 212.568 153.187 212.684 152.709 212.915C152.231 213.147 151.629 213.617 150.904 214.326V220.432C151.351 220.632 151.783 220.779 152.2 220.871C152.616 220.948 153.025 220.987 153.427 220.987C154.476 220.987 155.232 220.671 155.695 220.039C156.158 219.391 156.39 218.52 156.39 217.425V216.084C156.39 214.881 156.197 213.995 155.811 213.424C155.44 212.854 154.87 212.568 154.098 212.568ZM164.669 221.01C166.212 221.01 166.983 220.486 166.983 219.437C166.983 218.99 166.845 218.636 166.567 218.373C166.289 218.111 165.78 217.888 165.039 217.703L163.766 217.379C162.825 217.148 162.122 216.747 161.66 216.176C161.197 215.59 160.965 214.897 160.965 214.095C160.965 213.509 161.096 212.969 161.359 212.476C161.621 211.967 162.038 211.558 162.609 211.25C163.18 210.942 163.92 210.788 164.831 210.788C165.417 210.788 166.011 210.857 166.613 210.996C167.23 211.119 167.855 211.335 168.488 211.643L167.886 213.239C166.76 212.73 165.741 212.476 164.831 212.476C163.488 212.476 162.817 212.977 162.817 213.979C162.817 214.365 162.94 214.696 163.187 214.974C163.434 215.251 163.897 215.475 164.576 215.644L165.849 215.968C166.868 216.215 167.616 216.616 168.095 217.171C168.573 217.726 168.812 218.443 168.812 219.322C168.812 219.954 168.673 220.532 168.395 221.056C168.133 221.565 167.701 221.966 167.099 222.259C166.513 222.552 165.718 222.698 164.715 222.698C164.051 222.698 163.388 222.629 162.724 222.49C162.076 222.351 161.405 222.128 160.71 221.819L161.22 220.247C161.883 220.509 162.485 220.702 163.025 220.825C163.565 220.948 164.113 221.01 164.669 221.01ZM178.897 222.467V220.848C178.094 221.542 177.377 222.028 176.744 222.305C176.111 222.567 175.479 222.698 174.846 222.698C173.827 222.698 173.048 222.367 172.508 221.704C171.968 221.025 171.698 220.077 171.698 218.859V211.019H173.596V218.582C173.596 219.383 173.735 219.977 174.013 220.362C174.306 220.732 174.738 220.918 175.309 220.918C175.741 220.918 176.227 220.81 176.767 220.594C177.307 220.378 177.979 219.946 178.781 219.299V211.019H180.679V222.467H178.897ZM190.16 212.568C189.728 212.568 189.242 212.684 188.702 212.915C188.161 213.131 187.482 213.563 186.665 214.21V222.467H184.766V211.019H186.572V212.615C187.39 211.936 188.115 211.466 188.748 211.204C189.381 210.926 190.006 210.788 190.623 210.788C191.348 210.788 191.95 210.957 192.428 211.296C192.907 211.62 193.262 212.09 193.493 212.707C194.342 211.982 195.098 211.481 195.762 211.204C196.441 210.926 197.104 210.788 197.752 210.788C198.771 210.788 199.55 211.127 200.09 211.805C200.63 212.468 200.9 213.416 200.9 214.65V222.467H199.002V214.927C199.002 213.355 198.431 212.568 197.289 212.568C196.857 212.568 196.363 212.684 195.808 212.915C195.268 213.131 194.589 213.563 193.771 214.21C193.786 214.272 193.794 214.342 193.794 214.419C193.794 214.496 193.794 214.573 193.794 214.65V222.467H191.896V214.927C191.896 213.355 191.317 212.568 190.16 212.568ZM216.894 222.467V220.871C216.185 221.55 215.536 222.028 214.95 222.305C214.379 222.567 213.785 222.698 213.168 222.698C211.948 222.698 211.007 222.236 210.344 221.311C209.695 220.386 209.371 219.09 209.371 217.425V216.084C209.371 214.465 209.773 213.177 210.575 212.221C211.393 211.266 212.573 210.788 214.117 210.788C214.564 210.788 215.012 210.834 215.459 210.926C215.907 211.019 216.354 211.15 216.802 211.319V205.353H218.7V222.467H216.894ZM211.339 217.425C211.339 218.628 211.524 219.514 211.894 220.085C212.28 220.64 212.851 220.918 213.607 220.918C214.055 220.918 214.518 220.81 214.996 220.594C215.475 220.362 216.077 219.892 216.802 219.183V213.077C216.354 212.877 215.922 212.738 215.506 212.661C215.089 212.568 214.68 212.522 214.279 212.522C213.229 212.522 212.473 212.838 212.01 213.47C211.563 214.103 211.339 214.974 211.339 216.084V217.425ZM231.863 216.038V217.425C231.863 219.06 231.439 220.347 230.59 221.288C229.757 222.228 228.561 222.698 227.002 222.698C225.459 222.698 224.263 222.228 223.414 221.288C222.566 220.347 222.141 219.06 222.141 217.425V216.038C222.141 214.434 222.558 213.162 223.391 212.221C224.24 211.266 225.444 210.788 227.002 210.788C228.561 210.788 229.757 211.266 230.59 212.221C231.439 213.162 231.863 214.434 231.863 216.038ZM229.896 216.038C229.896 214.943 229.649 214.087 229.155 213.47C228.661 212.838 227.944 212.522 227.002 212.522C226.076 212.522 225.359 212.838 224.849 213.47C224.356 214.087 224.109 214.943 224.109 216.038V217.425C224.109 218.566 224.356 219.445 224.849 220.062C225.359 220.679 226.076 220.987 227.002 220.987C227.944 220.987 228.661 220.679 229.155 220.062C229.649 219.445 229.896 218.566 229.896 217.425V216.038ZM235.289 219.692V205.353H237.187V219.599C237.187 220.016 237.249 220.332 237.372 220.547C237.511 220.748 237.781 220.848 238.183 220.848H238.553V222.583H238.021C237.002 222.583 236.292 222.313 235.891 221.773C235.49 221.234 235.289 220.54 235.289 219.692ZM250.489 216.038V217.425C250.489 219.06 250.065 220.347 249.216 221.288C248.383 222.228 247.187 222.698 245.628 222.698C244.085 222.698 242.889 222.228 242.041 221.288C241.192 220.347 240.767 219.06 240.767 217.425V216.038C240.767 214.434 241.184 213.162 242.017 212.221C242.866 211.266 244.07 210.788 245.628 210.788C247.187 210.788 248.383 211.266 249.216 212.221C250.065 213.162 250.489 214.434 250.489 216.038ZM248.522 216.038C248.522 214.943 248.275 214.087 247.781 213.47C247.287 212.838 246.57 212.522 245.628 212.522C244.703 212.522 243.985 212.838 243.476 213.47C242.982 214.087 242.735 214.943 242.735 216.038V217.425C242.735 218.566 242.982 219.445 243.476 220.062C243.985 220.679 244.703 220.987 245.628 220.987C246.57 220.987 247.287 220.679 247.781 220.062C248.275 219.445 248.522 218.566 248.522 217.425V216.038ZM259.957 212.684C259.262 212.684 258.583 212.807 257.92 213.054C257.272 213.301 256.577 213.771 255.837 214.465V222.467H253.938V211.019H255.744V212.869C256.531 212.098 257.249 211.558 257.897 211.25C258.56 210.942 259.247 210.788 259.957 210.788V212.684ZM270.28 221.01C271.823 221.01 272.594 220.486 272.594 219.437C272.594 218.99 272.456 218.636 272.178 218.373C271.9 218.111 271.391 217.888 270.65 217.703L269.377 217.379C268.436 217.148 267.733 216.747 267.27 216.176C266.808 215.59 266.576 214.897 266.576 214.095C266.576 213.509 266.707 212.969 266.97 212.476C267.232 211.967 267.649 211.558 268.22 211.25C268.79 210.942 269.531 210.788 270.442 210.788C271.028 210.788 271.622 210.857 272.224 210.996C272.841 211.119 273.466 211.335 274.099 211.643L273.497 213.239C272.371 212.73 271.352 212.476 270.442 212.476C269.099 212.476 268.428 212.977 268.428 213.979C268.428 214.365 268.551 214.696 268.798 214.974C269.045 215.251 269.508 215.475 270.187 215.644L271.46 215.968C272.479 216.215 273.227 216.616 273.706 217.171C274.184 217.726 274.423 218.443 274.423 219.322C274.423 219.954 274.284 220.532 274.006 221.056C273.744 221.565 273.312 221.966 272.71 222.259C272.124 222.552 271.329 222.698 270.326 222.698C269.662 222.698 268.999 222.629 268.335 222.49C267.687 222.351 267.016 222.128 266.321 221.819L266.831 220.247C267.494 220.509 268.096 220.702 268.636 220.825C269.176 220.948 269.724 221.01 270.28 221.01ZM279.462 208.22H277.332V206.093H279.462V208.22ZM279.346 222.467H277.448V211.019H279.346V222.467ZM289.735 222.051C288.871 222.482 287.952 222.698 286.98 222.698C286.147 222.698 285.491 222.529 285.013 222.19C284.55 221.85 284.218 221.395 284.017 220.825C283.832 220.255 283.74 219.622 283.74 218.929V212.684H281.749V211.019H283.74V207.827H285.638V211.019H289.388V212.684H285.638V218.859C285.638 219.661 285.769 220.216 286.031 220.524C286.309 220.817 286.733 220.964 287.304 220.964C287.582 220.964 287.868 220.933 288.161 220.871C288.469 220.794 288.801 220.671 289.156 220.501L289.735 222.051ZM305.653 222.583C304.943 222.583 304.372 222.421 303.94 222.097C303.523 221.773 303.23 221.372 303.06 220.894C302.304 221.557 301.617 222.028 301 222.305C300.383 222.567 299.765 222.698 299.148 222.698C298.145 222.698 297.404 222.375 296.926 221.727C296.448 221.079 296.208 220.285 296.208 219.345C296.208 218.713 296.324 218.15 296.556 217.657C296.787 217.163 297.181 216.778 297.736 216.5C298.292 216.207 299.04 216.061 299.982 216.061C300.398 216.061 300.853 216.092 301.347 216.153C301.841 216.199 302.343 216.261 302.852 216.338V214.789C302.852 213.925 302.659 213.339 302.273 213.031C301.903 212.707 301.355 212.545 300.63 212.545C299.642 212.545 298.539 212.815 297.32 213.355L296.718 211.782C297.428 211.458 298.107 211.212 298.755 211.042C299.403 210.872 300.059 210.788 300.722 210.788C301.802 210.788 302.628 210.965 303.199 211.319C303.77 211.674 304.164 212.144 304.38 212.73C304.596 213.316 304.704 213.956 304.704 214.65V219.599C304.704 219.954 304.773 220.255 304.912 220.501C305.051 220.732 305.329 220.848 305.745 220.848H306V222.583H305.653ZM298.083 219.322C298.083 219.846 298.207 220.27 298.454 220.594C298.701 220.918 299.056 221.079 299.519 221.079C299.92 221.079 300.383 220.964 300.907 220.732C301.432 220.486 302.08 220 302.852 219.275V217.818C301.802 217.649 300.877 217.564 300.074 217.564C299.364 217.564 298.855 217.71 298.546 218.003C298.238 218.296 298.083 218.736 298.083 219.322ZM314.082 212.568C313.65 212.568 313.164 212.684 312.623 212.915C312.083 213.131 311.404 213.563 310.586 214.21V222.467H308.688V211.019H310.494V212.615C311.312 211.936 312.037 211.466 312.67 211.204C313.302 210.926 313.927 210.788 314.545 210.788C315.27 210.788 315.872 210.957 316.35 211.296C316.829 211.62 317.184 212.09 317.415 212.707C318.264 211.982 319.02 211.481 319.684 211.204C320.363 210.926 321.026 210.788 321.674 210.788C322.693 210.788 323.472 211.127 324.012 211.805C324.552 212.468 324.822 213.416 324.822 214.65V222.467H322.924V214.927C322.924 213.355 322.353 212.568 321.211 212.568C320.779 212.568 320.285 212.684 319.73 212.915C319.19 213.131 318.511 213.563 317.693 214.21C317.708 214.272 317.716 214.342 317.716 214.419C317.716 214.496 317.716 214.573 317.716 214.65V222.467H315.818V214.927C315.818 213.355 315.239 212.568 314.082 212.568ZM337.117 221.796C336.423 222.136 335.728 222.367 335.034 222.49C334.339 222.629 333.699 222.698 333.112 222.698C331.461 222.698 330.227 222.228 329.409 221.288C328.606 220.347 328.205 219.06 328.205 217.425V216.038C328.205 214.449 328.606 213.177 329.409 212.221C330.227 211.266 331.376 210.788 332.858 210.788C333.645 210.788 334.362 210.949 335.011 211.273C335.674 211.582 336.199 212.06 336.585 212.707C336.986 213.339 337.187 214.156 337.187 215.159C337.187 215.806 337.094 216.546 336.909 217.379H330.08V217.425C330.08 218.597 330.319 219.484 330.798 220.085C331.292 220.686 332.079 220.987 333.159 220.987C333.653 220.987 334.193 220.925 334.779 220.802C335.381 220.679 335.967 220.486 336.538 220.224L337.117 221.796ZM332.858 212.453C331.963 212.453 331.284 212.746 330.821 213.332C330.373 213.902 330.126 214.712 330.08 215.76H335.265C335.312 215.482 335.335 215.22 335.335 214.974C335.335 214.11 335.088 213.478 334.594 213.077C334.116 212.661 333.537 212.453 332.858 212.453ZM346.767 222.051C345.903 222.482 344.985 222.698 344.013 222.698C343.18 222.698 342.524 222.529 342.045 222.19C341.582 221.85 341.251 221.395 341.05 220.825C340.865 220.255 340.772 219.622 340.772 218.929V212.684H338.781V211.019H340.772V207.827H342.67V211.019H346.42V212.684H342.67V218.859C342.67 219.661 342.801 220.216 343.064 220.524C343.342 220.817 343.766 220.964 344.337 220.964C344.615 220.964 344.9 220.933 345.193 220.871C345.502 220.794 345.834 220.671 346.189 220.501L346.767 222.051ZM350.399 220.362V220.802C350.399 221.927 350.261 222.999 349.983 224.017C349.705 225.034 349.203 226.121 348.478 227.278L347.228 226.584C347.614 225.844 347.892 225.165 348.062 224.549C348.247 223.947 348.362 223.315 348.409 222.652C348.47 222.005 348.501 221.241 348.501 220.362H350.399ZM360.102 216.061V217.425C360.102 218.597 360.318 219.484 360.75 220.085C361.182 220.671 361.869 220.964 362.81 220.964C363.736 220.964 364.731 220.725 365.796 220.247L366.375 221.843C365.109 222.413 363.882 222.698 362.694 222.698C361.213 222.698 360.086 222.228 359.315 221.288C358.543 220.347 358.157 219.06 358.157 217.425V216.061C358.157 214.426 358.543 213.139 359.315 212.198C360.086 211.258 361.213 210.788 362.694 210.788C363.25 210.788 363.821 210.865 364.407 211.019C365.009 211.158 365.611 211.358 366.213 211.62L365.634 213.239C365.125 213.023 364.631 212.854 364.152 212.73C363.69 212.607 363.242 212.545 362.81 212.545C361.869 212.545 361.182 212.846 360.75 213.447C360.318 214.033 360.102 214.904 360.102 216.061ZM378.187 216.038V217.425C378.187 219.06 377.762 220.347 376.914 221.288C376.08 222.228 374.884 222.698 373.326 222.698C371.782 222.698 370.586 222.228 369.738 221.288C368.889 220.347 368.465 219.06 368.465 217.425V216.038C368.465 214.434 368.881 213.162 369.715 212.221C370.563 211.266 371.767 210.788 373.326 210.788C374.884 210.788 376.08 211.266 376.914 212.221C377.762 213.162 378.187 214.434 378.187 216.038ZM376.219 216.038C376.219 214.943 375.972 214.087 375.478 213.47C374.985 212.838 374.267 212.522 373.326 212.522C372.4 212.522 371.682 212.838 371.173 213.47C370.679 214.087 370.432 214.943 370.432 216.038V217.425C370.432 218.566 370.679 219.445 371.173 220.062C371.682 220.679 372.4 220.987 373.326 220.987C374.267 220.987 374.985 220.679 375.478 220.062C375.972 219.445 376.219 218.566 376.219 217.425V216.038ZM387.145 212.568C386.713 212.568 386.203 212.676 385.617 212.892C385.046 213.108 384.352 213.547 383.534 214.21V222.467H381.636V211.019H383.441V212.615C384.259 211.921 385 211.443 385.663 211.181C386.342 210.919 386.991 210.788 387.608 210.788C388.673 210.788 389.483 211.127 390.038 211.805C390.609 212.468 390.895 213.416 390.895 214.65V222.467H388.997V214.927C388.997 213.355 388.379 212.568 387.145 212.568ZM397.661 221.01C399.204 221.01 399.975 220.486 399.975 219.437C399.975 218.99 399.836 218.636 399.559 218.373C399.281 218.111 398.772 217.888 398.031 217.703L396.758 217.379C395.816 217.148 395.114 216.747 394.651 216.176C394.188 215.59 393.957 214.897 393.957 214.095C393.957 213.509 394.088 212.969 394.35 212.476C394.613 211.967 395.029 211.558 395.6 211.25C396.171 210.942 396.912 210.788 397.823 210.788C398.409 210.788 399.003 210.857 399.605 210.996C400.222 211.119 400.847 211.335 401.48 211.643L400.878 213.239C399.752 212.73 398.733 212.476 397.823 212.476C396.48 212.476 395.809 212.977 395.809 213.979C395.809 214.365 395.932 214.696 396.179 214.974C396.426 215.251 396.889 215.475 397.568 215.644L398.841 215.968C399.86 216.215 400.608 216.616 401.086 217.171C401.565 217.726 401.804 218.443 401.804 219.322C401.804 219.954 401.665 220.532 401.387 221.056C401.125 221.565 400.693 221.966 400.091 222.259C399.505 222.552 398.71 222.698 397.707 222.698C397.043 222.698 396.38 222.629 395.716 222.49C395.068 222.351 394.397 222.128 393.702 221.819L394.211 220.247C394.875 220.509 395.477 220.702 396.017 220.825C396.557 220.948 397.105 221.01 397.661 221.01ZM413.139 221.796C412.444 222.136 411.75 222.367 411.055 222.49C410.361 222.629 409.72 222.698 409.134 222.698C407.483 222.698 406.248 222.228 405.43 221.288C404.628 220.347 404.227 219.06 404.227 217.425V216.038C404.227 214.449 404.628 213.177 405.43 212.221C406.248 211.266 407.398 210.788 408.879 210.788C409.666 210.788 410.384 210.949 411.032 211.273C411.696 211.582 412.22 212.06 412.606 212.707C413.007 213.339 413.208 214.156 413.208 215.159C413.208 215.806 413.115 216.546 412.93 217.379H406.102V217.425C406.102 218.597 406.341 219.484 406.819 220.085C407.313 220.686 408.1 220.987 409.18 220.987C409.674 220.987 410.214 220.925 410.801 220.802C411.403 220.679 411.989 220.486 412.56 220.224L413.139 221.796ZM408.879 212.453C407.984 212.453 407.305 212.746 406.842 213.332C406.395 213.902 406.148 214.712 406.102 215.76H411.287C411.333 215.482 411.356 215.22 411.356 214.974C411.356 214.11 411.109 213.478 410.616 213.077C410.137 212.661 409.558 212.453 408.879 212.453ZM417.835 216.061V217.425C417.835 218.597 418.051 219.484 418.484 220.085C418.916 220.671 419.602 220.964 420.544 220.964C421.47 220.964 422.465 220.725 423.53 220.247L424.108 221.843C422.843 222.413 421.616 222.698 420.428 222.698C418.946 222.698 417.82 222.228 417.048 221.288C416.277 220.347 415.891 219.06 415.891 217.425V216.061C415.891 214.426 416.277 213.139 417.048 212.198C417.82 211.258 418.946 210.788 420.428 210.788C420.983 210.788 421.554 210.865 422.141 211.019C422.743 211.158 423.345 211.358 423.946 211.62L423.368 213.239C422.858 213.023 422.365 212.854 421.886 212.73C421.423 212.607 420.976 212.545 420.544 212.545C419.602 212.545 418.916 212.846 418.484 213.447C418.051 214.033 417.835 214.904 417.835 216.061ZM433.188 222.051C432.324 222.482 431.406 222.698 430.433 222.698C429.6 222.698 428.944 222.529 428.466 222.19C428.003 221.85 427.671 221.395 427.47 220.825C427.285 220.255 427.193 219.622 427.193 218.929V212.684H425.202V211.019H427.193V207.827H429.091V211.019H432.841V212.684H429.091V218.859C429.091 219.661 429.222 220.216 429.484 220.524C429.762 220.817 430.186 220.964 430.757 220.964C431.035 220.964 431.321 220.933 431.614 220.871C431.922 220.794 432.254 220.671 432.609 220.501L433.188 222.051ZM443.995 221.796C443.3 222.136 442.606 222.367 441.911 222.49C441.217 222.629 440.576 222.698 439.99 222.698C438.339 222.698 437.104 222.228 436.286 221.288C435.484 220.347 435.083 219.06 435.083 217.425V216.038C435.083 214.449 435.484 213.177 436.286 212.221C437.104 211.266 438.254 210.788 439.735 210.788C440.522 210.788 441.24 210.949 441.888 211.273C442.552 211.582 443.076 212.06 443.462 212.707C443.863 213.339 444.064 214.156 444.064 215.159C444.064 215.806 443.971 216.546 443.786 217.379H436.958V217.425C436.958 218.597 437.197 219.484 437.675 220.085C438.169 220.686 438.956 220.987 440.036 220.987C440.53 220.987 441.07 220.925 441.657 220.802C442.258 220.679 442.845 220.486 443.416 220.224L443.995 221.796ZM439.735 212.453C438.84 212.453 438.161 212.746 437.698 213.332C437.251 213.902 437.004 214.712 436.958 215.76H442.143C442.189 215.482 442.212 215.22 442.212 214.974C442.212 214.11 441.965 213.478 441.471 213.077C440.993 212.661 440.414 212.453 439.735 212.453ZM453.645 222.051C452.781 222.482 451.863 222.698 450.89 222.698C450.057 222.698 449.401 222.529 448.923 222.19C448.46 221.85 448.128 221.395 447.927 220.825C447.742 220.255 447.65 219.622 447.65 218.929V212.684H445.659V211.019H447.65V207.827H449.548V211.019H453.298V212.684H449.548V218.859C449.548 219.661 449.679 220.216 449.941 220.524C450.219 220.817 450.643 220.964 451.214 220.964C451.492 220.964 451.778 220.933 452.071 220.871C452.38 220.794 452.711 220.671 453.066 220.501L453.645 222.051ZM463.203 222.467V220.848C462.4 221.542 461.683 222.028 461.05 222.305C460.417 222.567 459.785 222.698 459.152 222.698C458.133 222.698 457.354 222.367 456.814 221.704C456.274 221.025 456.004 220.077 456.004 218.859V211.019H457.902V218.582C457.902 219.383 458.041 219.977 458.319 220.362C458.612 220.732 459.044 220.918 459.615 220.918C460.047 220.918 460.533 220.81 461.073 220.594C461.613 220.378 462.285 219.946 463.087 219.299V211.019H464.985V222.467H463.203ZM475.091 212.684C474.396 212.684 473.717 212.807 473.054 213.054C472.406 213.301 471.711 213.771 470.97 214.465V222.467H469.072V211.019H470.878V212.869C471.665 212.098 472.382 211.558 473.031 211.25C473.694 210.942 474.381 210.788 475.091 210.788V212.684ZM490.992 222.583C490.282 222.583 489.711 222.421 489.279 222.097C488.863 221.773 488.569 221.372 488.4 220.894C487.643 221.557 486.957 222.028 486.339 222.305C485.722 222.567 485.105 222.698 484.488 222.698C483.485 222.698 482.744 222.375 482.265 221.727C481.787 221.079 481.548 220.285 481.548 219.345C481.548 218.713 481.664 218.15 481.895 217.657C482.127 217.163 482.52 216.778 483.076 216.5C483.631 216.207 484.38 216.061 485.321 216.061C485.738 216.061 486.193 216.092 486.687 216.153C487.18 216.199 487.682 216.261 488.191 216.338V214.789C488.191 213.925 487.998 213.339 487.613 213.031C487.242 212.707 486.694 212.545 485.969 212.545C484.981 212.545 483.878 212.815 482.659 213.355L482.057 211.782C482.767 211.458 483.446 211.212 484.094 211.042C484.742 210.872 485.398 210.788 486.062 210.788C487.142 210.788 487.968 210.965 488.538 211.319C489.109 211.674 489.503 212.144 489.719 212.73C489.935 213.316 490.043 213.956 490.043 214.65V219.599C490.043 219.954 490.113 220.255 490.251 220.501C490.39 220.732 490.668 220.848 491.085 220.848H491.339V222.583H490.992ZM483.423 219.322C483.423 219.846 483.546 220.27 483.793 220.594C484.04 220.918 484.395 221.079 484.858 221.079C485.259 221.079 485.722 220.964 486.247 220.732C486.772 220.486 487.42 220 488.191 219.275V217.818C487.142 217.649 486.216 217.564 485.414 217.564C484.704 217.564 484.194 217.71 483.886 218.003C483.577 218.296 483.423 218.736 483.423 219.322ZM500.996 222.467V220.871C500.287 221.55 499.638 222.028 499.052 222.305C498.481 222.567 497.887 222.698 497.27 222.698C496.051 222.698 495.109 222.236 494.446 221.311C493.797 220.386 493.473 219.09 493.473 217.425V216.084C493.473 214.465 493.875 213.177 494.677 212.221C495.495 211.266 496.675 210.788 498.219 210.788C498.666 210.788 499.114 210.834 499.561 210.926C500.009 211.019 500.456 211.15 500.904 211.319V205.353H502.802V222.467H500.996ZM495.441 217.425C495.441 218.628 495.626 219.514 495.996 220.085C496.382 220.64 496.953 220.918 497.709 220.918C498.157 220.918 498.62 220.81 499.098 220.594C499.577 220.362 500.179 219.892 500.904 219.183V213.077C500.456 212.877 500.024 212.738 499.608 212.661C499.191 212.568 498.782 212.522 498.381 212.522C497.331 212.522 496.575 212.838 496.112 213.47C495.665 214.103 495.441 214.974 495.441 216.084V217.425ZM508.905 208.22H506.776V206.093H508.905V208.22ZM508.789 222.467H506.891V211.019H508.789V222.467ZM517.464 222.698C516.6 222.698 515.705 222.521 514.779 222.166V227.393H512.881V211.019H514.687V212.638C515.396 211.959 516.045 211.481 516.631 211.204C517.217 210.926 517.819 210.788 518.437 210.788C519.656 210.788 520.589 211.25 521.237 212.175C521.901 213.1 522.233 214.403 522.233 216.084V217.425C522.233 219.029 521.824 220.308 521.006 221.264C520.203 222.22 519.023 222.698 517.464 222.698ZM517.974 212.568C517.526 212.568 517.063 212.684 516.585 212.915C516.106 213.147 515.504 213.617 514.779 214.326V220.432C515.227 220.632 515.659 220.779 516.075 220.871C516.492 220.948 516.901 220.987 517.302 220.987C518.352 220.987 519.108 220.671 519.571 220.039C520.034 219.391 520.265 218.52 520.265 217.425V216.084C520.265 214.881 520.072 213.995 519.687 213.424C519.316 212.854 518.745 212.568 517.974 212.568ZM527.757 208.22H525.628V206.093H527.757V208.22ZM527.642 222.467H525.743V211.019H527.642V222.467ZM534.535 221.01C536.078 221.01 536.85 220.486 536.85 219.437C536.85 218.99 536.711 218.636 536.433 218.373C536.156 218.111 535.646 217.888 534.906 217.703L533.632 217.379C532.691 217.148 531.989 216.747 531.526 216.176C531.063 215.59 530.832 214.897 530.832 214.095C530.832 213.509 530.963 212.969 531.225 212.476C531.487 211.967 531.904 211.558 532.475 211.25C533.046 210.942 533.787 210.788 534.697 210.788C535.284 210.788 535.878 210.857 536.48 210.996C537.097 211.119 537.722 211.335 538.355 211.643L537.753 213.239C536.626 212.73 535.608 212.476 534.697 212.476C533.355 212.476 532.683 212.977 532.683 213.979C532.683 214.365 532.807 214.696 533.054 214.974C533.301 215.251 533.764 215.475 534.443 215.644L535.716 215.968C536.734 216.215 537.483 216.616 537.961 217.171C538.439 217.726 538.679 218.443 538.679 219.322C538.679 219.954 538.54 220.532 538.262 221.056C538 221.565 537.568 221.966 536.966 222.259C536.379 222.552 535.585 222.698 534.582 222.698C533.918 222.698 533.254 222.629 532.591 222.49C531.943 222.351 531.271 222.128 530.577 221.819L531.086 220.247C531.75 220.509 532.352 220.702 532.892 220.825C533.432 220.948 533.98 221.01 534.535 221.01ZM543.046 216.061V217.425C543.046 218.597 543.262 219.484 543.694 220.085C544.126 220.671 544.813 220.964 545.754 220.964C546.68 220.964 547.675 220.725 548.74 220.247L549.319 221.843C548.053 222.413 546.827 222.698 545.638 222.698C544.157 222.698 543.03 222.228 542.259 221.288C541.487 220.347 541.101 219.06 541.101 217.425V216.061C541.101 214.426 541.487 213.139 542.259 212.198C543.03 211.258 544.157 210.788 545.638 210.788C546.194 210.788 546.765 210.865 547.351 211.019C547.953 211.158 548.555 211.358 549.157 211.62L548.578 213.239C548.069 213.023 547.575 212.854 547.097 212.73C546.634 212.607 546.186 212.545 545.754 212.545C544.813 212.545 544.126 212.846 543.694 213.447C543.262 214.033 543.046 214.904 543.046 216.061ZM554.115 208.22H551.985V206.093H554.115V208.22ZM553.999 222.467H552.101V211.019H553.999V222.467ZM563.601 212.568C563.169 212.568 562.66 212.676 562.073 212.892C561.502 213.108 560.808 213.547 559.99 214.21V222.467H558.092V211.019H559.897V212.615C560.715 211.921 561.456 211.443 562.12 211.181C562.799 210.919 563.447 210.788 564.064 210.788C565.129 210.788 565.939 211.127 566.494 211.805C567.065 212.468 567.351 213.416 567.351 214.65V222.467H565.453V214.927C565.453 213.355 564.836 212.568 563.601 212.568ZM580.482 223.901C580.482 225.027 580.019 225.929 579.093 226.607C578.183 227.285 576.925 227.625 575.32 227.625C574.518 227.625 573.677 227.517 572.797 227.301C571.933 227.085 571.115 226.738 570.344 226.26L570.992 224.78C571.763 225.212 572.504 225.512 573.214 225.682C573.939 225.867 574.641 225.959 575.32 225.959C576.37 225.959 577.18 225.79 577.751 225.451C578.322 225.111 578.607 224.656 578.607 224.086C578.607 223.67 578.468 223.346 578.191 223.115C577.913 222.899 577.465 222.791 576.848 222.791H574.186C573.183 222.791 572.458 222.552 572.01 222.074C571.563 221.596 571.339 221.072 571.339 220.501C571.339 220.1 571.432 219.707 571.617 219.322C571.802 218.921 572.064 218.528 572.404 218.142C571.864 217.818 571.432 217.379 571.107 216.824C570.783 216.253 570.621 215.567 570.621 214.766C570.621 213.887 570.807 213.154 571.177 212.568C571.563 211.982 572.072 211.543 572.705 211.25C573.337 210.942 574.047 210.788 574.834 210.788H575.228C575.768 210.788 576.262 210.865 576.709 211.019H580.83V212.707L578.33 212.36C578.654 212.638 578.916 212.985 579.117 213.401C579.317 213.802 579.418 214.295 579.418 214.881C579.418 215.714 579.225 216.415 578.839 216.986C578.469 217.556 577.967 217.996 577.334 218.304C576.702 218.597 575.999 218.744 575.228 218.744H574.834C574.634 218.744 574.441 218.736 574.256 218.72C574.07 218.69 573.885 218.659 573.7 218.628C573.253 219.121 573.029 219.607 573.029 220.085C573.029 220.702 573.461 221.01 574.325 221.01H576.918C578.029 221.01 578.901 221.257 579.533 221.75C580.166 222.243 580.482 222.96 580.482 223.901ZM575.228 217.101C575.83 217.101 576.362 216.909 576.825 216.523C577.288 216.138 577.519 215.552 577.519 214.766C577.519 213.995 577.288 213.416 576.825 213.031C576.362 212.63 575.83 212.43 575.228 212.43H574.834C574.217 212.43 573.677 212.63 573.214 213.031C572.751 213.416 572.52 213.995 572.52 214.766C572.52 215.552 572.751 216.138 573.214 216.523C573.677 216.909 574.217 217.101 574.834 217.101H575.228ZM596.692 221.796C595.998 222.136 595.304 222.367 594.609 222.49C593.915 222.629 593.274 222.698 592.688 222.698C591.037 222.698 589.802 222.228 588.984 221.288C588.182 220.347 587.781 219.06 587.781 217.425V216.038C587.781 214.449 588.182 213.177 588.984 212.221C589.802 211.266 590.952 210.788 592.433 210.788C593.22 210.788 593.938 210.949 594.586 211.273C595.25 211.582 595.774 212.06 596.16 212.707C596.561 213.339 596.762 214.156 596.762 215.159C596.762 215.806 596.669 216.546 596.484 217.379H589.655V217.425C589.655 218.597 589.895 219.484 590.373 220.085C590.867 220.686 591.654 220.987 592.734 220.987C593.228 220.987 593.768 220.925 594.354 220.802C594.956 220.679 595.543 220.486 596.114 220.224L596.692 221.796ZM592.433 212.453C591.538 212.453 590.859 212.746 590.396 213.332C589.949 213.902 589.702 214.712 589.655 215.76H594.841C594.887 215.482 594.91 215.22 594.91 214.974C594.91 214.11 594.663 213.478 594.169 213.077C593.691 212.661 593.112 212.453 592.433 212.453ZM600.023 219.692V205.353H601.922V219.599C601.922 220.016 601.983 220.332 602.107 220.547C602.246 220.748 602.516 220.848 602.917 220.848H603.287V222.583H602.755C601.736 222.583 601.026 222.313 600.625 221.773C600.224 221.234 600.023 220.54 600.023 219.692ZM608.165 208.22H606.035V206.093H608.165V208.22ZM608.049 222.467H606.151V211.019H608.049V222.467ZM618.437 222.051C617.573 222.482 616.655 222.698 615.682 222.698C614.849 222.698 614.193 222.529 613.715 222.19C613.252 221.85 612.92 221.395 612.719 220.825C612.534 220.255 612.442 219.622 612.442 218.929V212.684H610.451V211.019H612.442V207.827H614.34V211.019H618.09V212.684H614.34V218.859C614.34 219.661 614.471 220.216 614.733 220.524C615.011 220.817 615.435 220.964 616.006 220.964C616.284 220.964 616.57 220.933 616.863 220.871C617.171 220.794 617.503 220.671 617.858 220.501L618.437 222.051ZM622.185 222.467H620.055V220.362H622.185V222.467Z" fill="white"/>
</g>
<defs>
<clipPath id="clip0_93_2">
<rect width="970" height="250" fill="white"/>
</clipPath>
</defs>
</svg>
