<svg width="480" height="320" viewBox="0 0 480 320" fill="none" xmlns="http://www.w3.org/2000/svg">
<g clip-path="url(#clip0_93_150)">
<path d="M480 0H0V320H480V0Z" fill="#202844"/>
<mask id="mask0_93_150" style="mask-type:luminance" maskUnits="userSpaceOnUse" x="293" y="192" width="165" height="110">
<path d="M458 192H293V302H458V192Z" fill="white"/>
</mask>
<g mask="url(#mask0_93_150)">
<mask id="mask1_93_150" style="mask-type:luminance" maskUnits="userSpaceOnUse" x="293" y="192" width="165" height="110">
<g opacity="0.6">
<path d="M458 192H293V302H458V192Z" fill="white"/>
</g>
</mask>
<g mask="url(#mask1_93_150)">
<path d="M306.227 282.372H440.704C440.704 282.372 443.973 273.012 434.634 263.184C425.295 253.356 424.162 229.89 394.495 221.195C364.827 212.499 339.923 221.32 332.623 235.827C325.323 250.334 298.056 252.555 306.227 282.372Z" fill="#F8E5C4"/>
<path d="M440.703 282.372C440.703 282.372 442.804 276.352 438.82 268.899C434.125 271.556 428.993 276.735 420.505 278.126C407.544 280.251 400.678 275.017 388.29 264.414C375.902 253.811 350.352 268.881 344.486 256.875C340.982 249.703 332.457 245.614 326.162 243.485C315.702 252.377 299.717 258.615 306.227 282.372H440.703Z" fill="#EDD2A4"/>
<path d="M299.223 282.372H447.24" stroke="#EDD2A4" stroke-width="1.0612" stroke-miterlimit="10"/>
<path d="M364.459 253.122H337.422V284.64H364.459V253.122Z" fill="#874F2E"/>
<path d="M364.461 253.122H355.066V284.64H364.461V253.122Z" fill="#AD6E47"/>
<path d="M360.784 256.172H358.742C358.405 256.172 358.133 255.899 358.133 255.563V255.537H361.393V255.563C361.393 255.899 361.12 256.172 360.784 256.172Z" stroke="#704226" stroke-width="0.7889" stroke-miterlimit="10"/>
<path d="M364.459 261.001H337.422" stroke="#704226" stroke-width="0.7889" stroke-miterlimit="10"/>
<path d="M360.784 264.052H358.742C358.405 264.052 358.133 263.779 358.133 263.443V263.417H361.393V263.443C361.393 263.779 361.12 264.052 360.784 264.052Z" stroke="#704226" stroke-width="0.7889" stroke-miterlimit="10"/>
<path d="M364.459 268.881H337.422" stroke="#704226" stroke-width="0.7889" stroke-miterlimit="10"/>
<path d="M360.784 271.931H358.742C358.405 271.931 358.133 271.659 358.133 271.322V271.296H361.393V271.322C361.393 271.659 361.12 271.931 360.784 271.931Z" stroke="#704226" stroke-width="0.7889" stroke-miterlimit="10"/>
<path d="M364.459 276.76H337.422" stroke="#704226" stroke-width="0.7889" stroke-miterlimit="10"/>
<path d="M360.784 279.81H358.742C358.405 279.81 358.133 279.538 358.133 279.201V279.175H361.393V279.201C361.393 279.538 361.12 279.81 360.784 279.81Z" stroke="#704226" stroke-width="0.7889" stroke-miterlimit="10"/>
<path d="M395.331 262.572C410.102 262.572 422.077 250.598 422.077 235.827C422.077 221.056 410.102 209.082 395.331 209.082C380.56 209.082 368.586 221.056 368.586 235.827C368.586 250.598 380.56 262.572 395.331 262.572Z" fill="#FFABAB"/>
<path opacity="0.2" d="M432.27 236.004H412.25V244.818H432.27V236.004Z" fill="black"/>
<path d="M431.754 235.403H411.734V244.217H431.754V235.403Z" fill="#3593BF"/>
<path d="M414.166 244.216H411.734V235.403H416.119L414.166 244.216Z" fill="#2D7EA3"/>
<path d="M418.126 241.57C417.803 241.57 417.519 241.503 417.273 241.37C417.027 241.238 416.835 241.035 416.698 240.763C416.561 240.49 416.492 240.147 416.492 239.733C416.492 239.3 416.565 238.945 416.709 238.67C416.854 238.394 417.054 238.19 417.309 238.057C417.564 237.924 417.854 237.858 418.178 237.858C418.357 237.858 418.529 237.876 418.696 237.912C418.862 237.948 418.999 237.993 419.106 238.047L418.943 238.501C418.834 238.458 418.708 238.419 418.565 238.384C418.422 238.349 418.289 238.331 418.165 238.331C417.916 238.331 417.71 238.385 417.546 238.492C417.381 238.598 417.258 238.755 417.177 238.962C417.095 239.169 417.054 239.424 417.054 239.727C417.054 240.017 417.094 240.264 417.173 240.468C417.253 240.673 417.371 240.829 417.529 240.937C417.687 241.045 417.885 241.099 418.122 241.099C418.312 241.099 418.483 241.079 418.635 241.039C418.788 240.998 418.926 240.951 419.05 240.897V241.38C418.93 241.441 418.797 241.488 418.65 241.521C418.503 241.553 418.329 241.57 418.126 241.57Z" fill="white"/>
<path d="M422.548 240.524C422.548 240.753 422.491 240.945 422.376 241.101C422.262 241.257 422.099 241.374 421.886 241.452C421.674 241.53 421.421 241.57 421.127 241.57C420.876 241.57 420.66 241.55 420.477 241.511C420.294 241.472 420.133 241.416 419.996 241.344V240.844C420.142 240.916 420.316 240.982 420.519 241.04C420.722 241.099 420.928 241.129 421.14 241.129C421.449 241.129 421.673 241.079 421.813 240.978C421.952 240.878 422.022 240.742 422.022 240.57C422.022 240.472 421.994 240.386 421.939 240.31C421.883 240.235 421.79 240.162 421.659 240.091C421.528 240.021 421.348 239.943 421.117 239.858C420.888 239.771 420.69 239.684 420.524 239.598C420.357 239.512 420.229 239.407 420.138 239.283C420.048 239.159 420.003 238.997 420.003 238.799C420.003 238.496 420.125 238.264 420.37 238.102C420.615 237.939 420.937 237.858 421.336 237.858C421.551 237.858 421.753 237.88 421.942 237.922C422.13 237.965 422.306 238.022 422.47 238.094L422.287 238.528C422.138 238.465 421.98 238.412 421.813 238.368C421.645 238.325 421.474 238.303 421.3 238.303C421.049 238.303 420.857 238.344 420.723 238.427C420.589 238.51 420.522 238.623 420.522 238.767C420.522 238.878 420.553 238.969 420.615 239.041C420.677 239.113 420.777 239.181 420.914 239.244C421.052 239.307 421.232 239.381 421.457 239.466C421.681 239.549 421.875 239.634 422.038 239.722C422.202 239.811 422.327 239.917 422.416 240.043C422.504 240.168 422.548 240.328 422.548 240.524Z" fill="white"/>
<path d="M426.072 240.524C426.072 240.753 426.014 240.945 425.9 241.101C425.786 241.257 425.622 241.374 425.41 241.452C425.197 241.53 424.944 241.57 424.65 241.57C424.4 241.57 424.183 241.55 424 241.511C423.817 241.472 423.657 241.416 423.52 241.344V240.844C423.666 240.916 423.84 240.982 424.042 241.04C424.245 241.099 424.452 241.129 424.663 241.129C424.972 241.129 425.197 241.079 425.336 240.978C425.476 240.878 425.545 240.742 425.545 240.57C425.545 240.472 425.518 240.386 425.462 240.31C425.406 240.235 425.313 240.162 425.182 240.091C425.052 240.021 424.871 239.943 424.64 239.858C424.411 239.771 424.214 239.684 424.047 239.598C423.881 239.512 423.752 239.407 423.662 239.283C423.571 239.159 423.526 238.997 423.526 238.799C423.526 238.496 423.649 238.264 423.894 238.102C424.139 237.939 424.46 237.858 424.859 237.858C425.075 237.858 425.277 237.88 425.465 237.922C425.654 237.965 425.83 238.022 425.993 238.094L425.81 238.528C425.662 238.465 425.504 238.412 425.336 238.368C425.168 238.325 424.997 238.303 424.823 238.303C424.573 238.303 424.381 238.344 424.247 238.427C424.113 238.51 424.046 238.623 424.046 238.767C424.046 238.878 424.077 238.969 424.139 239.041C424.201 239.113 424.301 239.181 424.438 239.244C424.575 239.307 424.756 239.381 424.98 239.466C425.205 239.549 425.398 239.634 425.562 239.722C425.725 239.811 425.851 239.917 425.939 240.043C426.028 240.168 426.072 240.328 426.072 240.524Z" fill="white"/>
<path d="M398.825 284.378H397.744L397.5 256.449H399.069L398.825 284.378Z" fill="#AD6E47"/>
<path d="M400.679 275.018H395.891L396.737 272.937H399.832L400.679 275.018Z" fill="#874F2E"/>
<path d="M400.679 275.018H395.891L396.813 276.725C396.932 276.946 397.164 277.084 397.415 277.084H399.155C399.406 277.084 399.637 276.946 399.756 276.725L400.679 275.018Z" fill="#704226"/>
<path d="M406.206 284.378H405.066L399.273 272.937H400.098C400.661 272.937 401.172 273.267 401.405 273.78L406.206 284.378Z" fill="#AD6E47"/>
<path d="M390.359 284.378H391.499L397.292 272.937H396.468C395.904 272.937 395.393 273.267 395.161 273.78L390.359 284.378Z" fill="#AD6E47"/>
<path d="M386.489 257.169C386.489 257.169 394.787 257.169 401.091 257.169C407.394 257.169 410.741 252.888 412.064 247.441C413.387 241.994 414.009 238.725 414.71 235.379C415.41 232.032 414.165 227.157 409.963 227.157C405.76 227.157 405.138 227.157 401.947 227.157C398.756 227.157 397.036 226.161 395.562 231.353C394.087 236.546 392.775 243.316 391.874 246.74C390.974 250.164 384.145 249.678 381.713 251.896C379.822 253.622 379.748 257.169 386.489 257.169Z" fill="white"/>
<path d="M408.251 240.456C407.492 236.896 406.325 233.766 406.149 232.529C405.994 231.431 406.943 228.729 406.133 227.157C404.798 227.157 403.81 227.157 401.947 227.157C398.756 227.157 397.036 226.161 395.562 231.353C394.087 236.546 392.775 243.316 391.875 246.74C390.974 250.164 384.145 249.678 381.713 251.896C379.821 253.622 379.748 257.169 386.49 257.169C386.49 257.169 389.788 257.169 393.806 257.169C392.882 255.837 391.995 253.881 394.768 253.881C398.971 253.881 401.13 253.881 401.13 253.881C404.574 253.881 406.15 252.947 407.434 250.787C408.718 248.628 409.009 244.017 408.251 240.456Z" fill="#E3E3E3"/>
<path d="M372.23 273.9C372.23 273.9 371.063 280.818 370.641 282.254C370.456 282.882 368.349 284.176 367.684 284.434C367.018 284.693 365.762 284.73 365.762 285.174C365.762 285.617 368.941 285.691 370.493 285.58C372.045 285.469 373.561 285.654 373.598 285.137C373.635 284.619 373.043 284.25 373.191 283.141C373.339 282.032 376.185 273.9 376.185 273.9H372.23Z" fill="#F86C6C"/>
<path d="M387.996 273.9C387.996 273.9 389.276 280.554 389.16 282.254C389.116 282.907 386.869 284.176 386.203 284.434C385.538 284.693 384.281 284.73 384.281 285.174C384.281 285.617 387.46 285.691 389.012 285.58C390.565 285.469 392.08 285.654 392.117 285.137C392.154 284.619 391.8 284.256 391.711 283.141C391.611 281.897 391.951 273.9 391.951 273.9H387.996Z" fill="#F86C6C"/>
<path d="M388.414 276.204L391.803 277.776C391.873 275.731 391.951 273.9 391.951 273.9H387.996C387.996 273.9 388.187 274.891 388.414 276.204Z" fill="#A63B3B"/>
<path d="M371.852 276.078L375.027 277.258C375.646 275.433 376.183 273.9 376.183 273.9H372.228C372.228 273.9 372.071 274.831 371.852 276.078Z" fill="#A63B3B"/>
<path d="M380.39 274.835H371.207C371.207 274.835 374.787 254.212 375.799 250.865C376.81 247.519 381.789 244.956 395.331 244.954L393.613 251.332L384.048 254.99C384.048 254.99 382.693 257.25 382.359 259.894C382.024 262.539 382.102 263.706 381.246 265.029C380.39 266.352 381.091 267.286 380.857 269.154C380.624 271.021 380.39 274.835 380.39 274.835Z" fill="#38856D"/>
<path d="M376.305 249.764C378.651 249.294 379.497 251.756 379.652 255.691C379.789 259.175 381.381 261.65 382.058 262.552C382.152 261.844 382.22 260.999 382.36 259.894C382.695 257.25 384.049 254.99 384.049 254.99L393.614 251.332L395.332 244.954C383.321 244.956 378.05 246.973 376.305 249.764Z" fill="#286150"/>
<path d="M372.297 272.85H379.301" stroke="#286150" stroke-width="1.0612" stroke-miterlimit="10" stroke-linecap="round" stroke-linejoin="round"/>
<path d="M383.698 251.896C383.698 251.896 381.285 253.063 380.701 254.931C380.118 256.799 379.943 261.76 379.301 263.394C378.659 265.028 379.145 265.846 379.048 267.363C378.95 268.881 378.25 272.85 378.25 272.85" stroke="#286150" stroke-width="1.0612" stroke-miterlimit="10" stroke-linecap="round" stroke-linejoin="round"/>
<path d="M384.478 228.958L381.404 240.476L368.641 243.55H383.07C384.449 243.55 385.678 242.678 386.133 241.376L389.458 231.877C389.458 231.877 386.851 228.336 384.478 228.958Z" fill="#B85050"/>
<path d="M389.458 231.877C389.458 231.877 386.851 228.336 384.477 228.958L383.523 232.531C383.762 232.78 384.091 232.99 384.555 233.094C386.013 233.422 386.505 236.571 387.412 237.722L389.458 231.877Z" fill="#A63B3B"/>
<path d="M394.494 221.194C394.494 221.194 398.388 222.013 400.489 223.005C402.59 223.997 403.232 226.39 403.787 230.125L399.691 230.359C399.691 230.359 401.598 237.869 402.532 240.554C403.466 243.238 405.45 244.6 404.088 244.873C402.726 245.145 391.559 244.873 389.73 244.873C387.901 244.873 390.236 242.227 390.469 240.67C390.703 239.114 390.353 236.39 389.458 235.261C388.563 234.133 387.395 234.522 387.59 231.02L383.699 229.425C383.699 229.425 385.061 225.494 387.629 223.627C390.197 221.76 391.982 221.329 394.494 221.194Z" fill="#638296"/>
<path d="M402.531 240.554C401.597 237.869 399.691 230.359 399.691 230.359L400.77 230.298L396.111 230.549L396.525 228.201C396.525 228.201 395.489 230.709 395.255 233.278C395.046 235.575 392.055 237.211 390.518 238.958C390.558 239.586 390.542 240.186 390.469 240.671C390.235 242.227 387.901 244.873 389.73 244.873C391.559 244.873 402.726 245.146 404.088 244.873C405.449 244.6 403.465 243.239 402.531 240.554Z" fill="#313F4A"/>
<path d="M402.879 230.177L399.674 240.573C399.129 242.343 397.493 243.55 395.641 243.55H379.301C379.301 243.55 379.729 242.149 380.896 242.032C382.064 241.916 382.336 242.149 383.153 242.188C383.97 242.227 394.124 239.817 394.124 239.817L396.937 230.549L402.879 230.177Z" fill="#F86C6C"/>
<path d="M386.113 230.414L387.592 231.02C387.747 229.777 388.294 228.403 388.292 227.401C388.291 226.7 387.787 227.605 387.125 228.884C386.799 229.514 386.417 230.041 386.113 230.414Z" fill="#313F4A"/>
<path d="M396.94 230.548H396.113C396.113 230.548 396.25 228.43 396.94 227.157" stroke="#313F4A" stroke-width="1.0612" stroke-miterlimit="10" stroke-linecap="round" stroke-linejoin="round"/>
<path d="M403.465 243.784C403.465 243.784 407.842 253.881 401.13 253.881C394.418 253.881 391.441 253.881 391.441 253.881C391.441 253.881 391.774 255.451 391.404 256.76C391.243 257.332 391.222 257.934 391.391 258.504C391.856 260.071 392.723 263.084 393.017 264.679C393.426 266.897 393.831 267.364 394.124 269.348C394.418 271.332 395.702 272.792 395.293 274.834H385.196C385.196 274.834 383.095 261.118 382.453 255.398C381.811 249.678 384.496 245.534 389.924 245.534C389.924 245.534 396.344 244.659 397.22 244.25L403.465 243.784Z" fill="#38856D"/>
<path d="M385.816 272.85H394.358" stroke="#286150" stroke-width="1.0612" stroke-miterlimit="10" stroke-linecap="round" stroke-linejoin="round"/>
<path d="M391.676 272.85C391.676 272.85 391.676 269.99 391.326 268.064C390.975 266.138 390.625 263.926 390.392 262.551C390.158 261.176 389.983 258.842 389.808 257.149C389.633 255.456 389.963 254.289 390.09 252.305C392.376 251.838 398.738 252.421 400.781 251.604C402.824 250.787 404.403 250.262 404.868 248.511" stroke="#286150" stroke-width="1.0612" stroke-miterlimit="10" stroke-linecap="round" stroke-linejoin="round"/>
<path d="M396.59 231.702C397.632 231.599 400.178 231.489 402.157 232.529L402.882 230.177L396.94 230.549L396.59 231.702Z" fill="#A63B3B"/>
<path d="M369.826 283.13C369.102 283.692 368.105 284.27 367.684 284.434C367.018 284.693 365.762 284.73 365.762 285.174C365.762 285.617 368.941 285.691 370.493 285.58C372.045 285.469 373.561 285.654 373.598 285.137C373.628 284.712 373.236 284.387 373.176 283.672C372.774 283.691 372.286 283.707 371.694 283.714C370.587 283.726 370.066 283.441 369.826 283.13Z" fill="#53786B"/>
<path d="M388.345 283.13C387.622 283.692 386.624 284.27 386.203 284.434C385.538 284.693 384.281 284.73 384.281 285.174C384.281 285.617 387.46 285.691 389.012 285.58C390.565 285.469 392.08 285.654 392.117 285.137C392.147 284.712 391.756 284.387 391.695 283.672C391.294 283.691 390.805 283.707 390.213 283.714C389.107 283.726 388.586 283.441 388.345 283.13Z" fill="#53786B"/>
<path d="M388.889 218.847C389.152 219.445 389.181 219.868 389.575 220.262C389.817 220.503 390.224 220.685 390.502 220.789C390.686 220.857 390.89 220.844 391.065 220.755L391.394 220.587L391.877 221.896L391.146 222.209C390.478 222.495 389.961 223.049 389.724 223.736C389.2 225.258 389.112 227.805 391.599 227.805C394.609 227.805 396.37 224.745 397.237 222.981C397.418 222.611 397.196 222.17 396.791 222.1C396.086 221.977 395.113 221.686 394.799 221.006C394.289 219.897 393.895 218.744 393.895 218.744C393.895 218.744 394.026 216.439 393.88 215.738C393.734 215.038 392.815 213.301 390.991 213.783C389.167 214.265 387.717 215.642 387.985 217.431C388.028 217.723 388.889 218.847 388.889 218.847Z" fill="#F86C6C"/>
<path d="M391.875 221.896L392.2 222.801" stroke="#A63B3B" stroke-width="0.7959" stroke-miterlimit="10" stroke-linecap="round"/>
<path d="M391.615 221.195C392.276 221.194 392.549 219.795 392.759 219.454C392.969 219.114 392.782 218.909 392.627 219.162C392.471 219.415 392.024 220.252 391.391 220.587L391.615 221.195Z" fill="#A63B3B"/>
<path d="M391.268 214.425C391.268 214.425 391.389 215.429 392.173 216.409C392.406 216.701 392.377 217.927 392.757 218.073C393.136 218.219 392.698 217.46 392.932 216.935C393.165 216.409 393.691 216.643 393.691 217.227C393.691 217.81 393.399 218.423 393.399 218.423L393.895 218.744C393.895 218.744 394.128 217.46 394.449 215.972C394.77 214.483 393.399 212.908 390.977 213.199C390.977 213.199 387.883 211.74 386.628 214.746C385.373 217.752 387.708 218.102 387.708 218.102L388.919 218.919L388.534 217.978C388.382 217.607 388.518 217.182 388.857 216.966C389.607 216.489 390.851 215.558 391.268 214.425Z" fill="#7A2C2C"/>
<path d="M395.241 212.252C395.405 211.169 394.659 210.159 393.577 209.995C392.494 209.832 391.483 210.577 391.319 211.66C391.156 212.743 391.901 213.753 392.984 213.917C394.067 214.081 395.077 213.335 395.241 212.252Z" fill="#7A2C2C"/>
<path d="M409.538 243.55H386.113V245.768H409.538V243.55Z" stroke="#16367C" stroke-width="0.756" stroke-miterlimit="10"/>
<path d="M391.217 242.837H357.512V243.549H391.217V242.837Z" fill="#E3E3E3"/>
<path d="M378.38 243.55H356.778L353.387 228.104H374.989L378.38 243.55Z" fill="white"/>
<path d="M378.383 243.55H377.59L374.199 228.104H374.992L378.383 243.55Z" fill="#E3E3E3"/>
<path d="M367.331 235.827C367.576 236.946 366.869 237.853 365.75 237.853C364.631 237.853 363.525 236.946 363.279 235.827C363.034 234.708 363.741 233.801 364.86 233.801C365.979 233.801 367.085 234.708 367.331 235.827Z" fill="#F59D00"/>
<path d="M345.057 236.878C345.057 236.878 343.672 235.906 344.445 234.611C345.219 233.315 348.377 233.761 348.538 232.749C348.7 231.737 345.158 231.818 342.506 231.858C339.855 231.898 338.802 231.64 338.802 230.972C338.802 230.188 339.807 230.248 339.774 229.273C339.734 228.088 333.641 228.721 333.641 228.721C333.641 228.721 334.892 228.289 337.244 228.118C338.984 227.992 341.94 227.79 342.102 229.166C342.264 230.542 343.397 230.38 345.684 230.542C347.972 230.704 350.016 231.372 349.854 233.498C349.692 235.623 345.509 234.193 345.016 235.259C344.523 236.325 346.008 236.878 346.008 236.878H345.057Z" fill="white"/>
<path d="M341.75 236.429L342.263 242.784C342.298 243.216 342.659 243.549 343.093 243.549H344.485H345.876C346.31 243.549 346.671 243.216 346.706 242.784L347.22 236.429H341.75Z" fill="#F59D00"/>
<path opacity="0.2" d="M403.454 209.753V217.377L398.902 220.33H403.454V222.567H421.743V209.753H403.454Z" fill="black"/>
<path d="M402.879 209.082V216.706L398.328 219.659H402.879V221.896H421.169V209.082H402.879Z" fill="#F86C6C"/>
<path d="M409.626 217.212L405.93 215.575V215.21L409.626 213.381V213.95L406.622 215.368L409.626 216.647V217.212Z" fill="white"/>
<path d="M413.232 212.528L411.142 218.146H410.512L412.606 212.528H413.232Z" fill="white"/>
<path d="M414.105 216.647L417.114 215.375L414.105 213.95V213.381L417.802 215.21V215.575L414.105 217.212V216.647Z" fill="white"/>
<path opacity="0.2" d="M435.169 243.773H418.398V252.587H435.169V243.773Z" fill="black"/>
<path d="M434.528 243.074H417.758V251.887H434.528V243.074Z" fill="#F86C6C"/>
<path d="M422.866 248.522H422.56V247.279H421.174V248.522H420.867V245.884H421.174V247.008H422.56V245.884H422.866V248.522Z" fill="white"/>
<path d="M424.584 248.522H424.275V246.155H423.445V245.884H425.41V246.155H424.584V248.522Z" fill="white"/>
<path d="M427.156 248.522L426.27 246.187H426.256C426.26 246.237 426.265 246.297 426.268 246.368C426.272 246.439 426.275 246.516 426.277 246.6C426.28 246.683 426.281 246.768 426.281 246.855V248.522H425.996V245.884H426.451L427.286 248.078H427.299L428.147 245.884H428.598V248.522H428.294V246.833C428.294 246.755 428.296 246.677 428.298 246.598C428.301 246.519 428.303 246.445 428.307 246.374C428.311 246.304 428.314 246.243 428.318 246.191H428.304L427.407 248.522H427.156Z" fill="white"/>
<path d="M429.504 248.522V245.884H429.811V248.248H430.981V248.522H429.504Z" fill="white"/>
<path d="M428.389 266.085C428.462 265.639 428.501 265.181 428.501 264.714C428.501 264.247 428.462 263.789 428.389 263.343H426.038C425.882 262.659 425.613 262.019 425.25 261.443L426.912 259.781C426.375 259.034 425.72 258.379 424.973 257.842L423.311 259.504C422.735 259.141 422.095 258.872 421.411 258.716V256.365C420.964 256.292 420.507 256.252 420.04 256.252C419.573 256.252 419.115 256.292 418.669 256.365V258.716C417.985 258.872 417.345 259.141 416.768 259.504L415.106 257.842C414.36 258.379 413.704 259.034 413.167 259.781L414.829 261.443C414.467 262.019 414.198 262.659 414.042 263.343H411.69C411.617 263.789 411.578 264.247 411.578 264.714C411.578 265.181 411.617 265.639 411.69 266.085H414.042C414.198 266.769 414.467 267.409 414.829 267.986L413.167 269.648C413.704 270.394 414.359 271.05 415.106 271.587L416.768 269.925C417.345 270.287 417.985 270.556 418.669 270.712V273.064C419.115 273.136 419.573 273.176 420.04 273.176C420.507 273.176 420.964 273.136 421.411 273.064V270.712C422.095 270.556 422.735 270.287 423.311 269.924L424.973 271.587C425.72 271.049 426.375 270.394 426.912 269.647L425.25 267.985C425.613 267.409 425.882 266.769 426.038 266.085H428.389ZM420.04 267.742C418.367 267.742 417.011 266.387 417.011 264.714C417.011 263.041 418.367 261.685 420.04 261.685C421.712 261.685 423.068 263.041 423.068 264.714C423.068 266.387 421.712 267.742 420.04 267.742Z" fill="#4D4D4D"/>
<path d="M436.952 272.228C436.974 271.943 436.975 271.654 436.95 271.361C436.925 271.068 436.877 270.783 436.808 270.507L435.332 270.631C435.198 270.21 434.996 269.822 434.738 269.48L435.693 268.349C435.317 267.909 434.872 267.532 434.375 267.234L433.419 268.365C433.039 268.168 432.623 268.032 432.185 267.971L432.062 266.495C431.777 266.473 431.488 266.472 431.195 266.497C430.902 266.522 430.617 266.57 430.341 266.64L430.465 268.115C430.044 268.249 429.656 268.451 429.313 268.709L428.183 267.754C427.743 268.13 427.366 268.576 427.068 269.072L428.199 270.028C428.002 270.408 427.866 270.824 427.805 271.262L426.329 271.386C426.307 271.67 426.306 271.959 426.331 272.252C426.356 272.545 426.404 272.83 426.474 273.106L427.949 272.983C428.083 273.403 428.285 273.791 428.543 274.134L427.588 275.264C427.964 275.704 428.41 276.081 428.906 276.379L429.862 275.248C430.242 275.445 430.658 275.581 431.096 275.642L431.22 277.118C431.504 277.14 431.793 277.141 432.086 277.116C432.379 277.091 432.664 277.043 432.94 276.974L432.817 275.498C433.237 275.364 433.625 275.162 433.968 274.904L435.098 275.859C435.538 275.483 435.915 275.038 436.213 274.541L435.082 273.585C435.279 273.205 435.415 272.789 435.476 272.351L436.952 272.228ZM431.8 273.707C430.751 273.795 429.828 273.015 429.74 271.966C429.652 270.916 430.432 269.994 431.481 269.906C432.531 269.818 433.453 270.598 433.541 271.647C433.629 272.697 432.849 273.619 431.8 273.707Z" fill="#7D7D7D"/>
<g opacity="0.2">
<path d="M379.863 203.116H353.833C352.65 203.116 351.691 204.075 351.691 205.258V220.497C351.691 221.68 352.65 222.639 353.833 222.639H364.451C364.815 222.639 365.148 222.845 365.312 223.17L366.625 225.784C366.717 225.968 366.98 225.968 367.072 225.784L368.385 223.17C368.548 222.845 368.882 222.639 369.246 222.639H379.863C381.046 222.639 382.005 221.68 382.005 220.497V205.258C382.005 204.075 381.046 203.116 379.863 203.116Z" fill="black"/>
</g>
<path d="M379.398 202.239H353.368C352.186 202.239 351.227 203.198 351.227 204.381V219.62C351.227 220.803 352.186 221.762 353.368 221.762H363.986C364.35 221.762 364.683 221.968 364.847 222.293L366.16 224.907C366.252 225.091 366.515 225.091 366.607 224.907L367.92 222.293C368.084 221.968 368.417 221.762 368.781 221.762H379.399C380.582 221.762 381.541 220.803 381.541 219.62V204.381C381.54 203.198 380.581 202.239 379.398 202.239Z" fill="#313F4A"/>
<path d="M362.377 206.169H355.361C355.131 206.169 354.945 205.983 354.945 205.753C354.945 205.524 355.131 205.337 355.361 205.337H362.377C362.607 205.337 362.793 205.524 362.793 205.753C362.793 205.983 362.607 206.169 362.377 206.169Z" fill="#F59D00"/>
<path d="M365.344 208.061H355.361C355.131 208.061 354.945 207.875 354.945 207.645C354.945 207.416 355.131 207.229 355.361 207.229H365.344C365.574 207.229 365.76 207.416 365.76 207.645C365.76 207.875 365.574 208.061 365.344 208.061Z" fill="white"/>
<path d="M377.048 206.169H364.205C363.975 206.169 363.789 205.983 363.789 205.753C363.789 205.524 363.975 205.337 364.205 205.337H377.048C377.278 205.337 377.464 205.524 377.464 205.753C377.464 205.983 377.278 206.169 377.048 206.169Z" fill="#3593BF"/>
<path d="M377.047 208.061H367.064C366.835 208.061 366.648 207.875 366.648 207.645C366.648 207.416 366.835 207.229 367.064 207.229H377.047C377.277 207.229 377.463 207.416 377.463 207.645C377.463 207.875 377.277 208.061 377.047 208.061Z" fill="white"/>
<path d="M370.433 209.511H355.14C355.032 209.511 354.945 209.424 354.945 209.317C354.945 209.209 355.032 209.122 355.14 209.122H370.433C370.541 209.122 370.628 209.209 370.628 209.317C370.628 209.424 370.541 209.511 370.433 209.511Z" fill="#F86C6C"/>
<path d="M367.28 213.042H355.361C355.131 213.042 354.945 212.856 354.945 212.626C354.945 212.397 355.131 212.21 355.361 212.21H367.28C367.51 212.21 367.696 212.397 367.696 212.626C367.696 212.856 367.51 213.042 367.28 213.042Z" fill="#F59D00"/>
<path d="M362.377 214.935H355.361C355.131 214.935 354.945 214.749 354.945 214.519C354.945 214.289 355.131 214.103 355.361 214.103H362.377C362.607 214.103 362.793 214.289 362.793 214.519C362.793 214.749 362.607 214.935 362.377 214.935Z" fill="#F59D00"/>
<path d="M365.344 216.827H355.361C355.131 216.827 354.945 216.641 354.945 216.411C354.945 216.181 355.131 215.995 355.361 215.995H365.344C365.574 215.995 365.76 216.181 365.76 216.411C365.76 216.641 365.574 216.827 365.344 216.827Z" fill="white"/>
<path d="M377.048 214.935H364.205C363.975 214.935 363.789 214.749 363.789 214.519C363.789 214.289 363.975 214.103 364.205 214.103H377.048C377.278 214.103 377.464 214.289 377.464 214.519C377.464 214.749 377.278 214.935 377.048 214.935Z" fill="#3593BF"/>
<path d="M377.047 216.827H367.064C366.835 216.827 366.648 216.641 366.648 216.411C366.648 216.181 366.835 215.995 367.064 215.995H377.047C377.277 215.995 377.463 216.181 377.463 216.411C377.463 216.641 377.277 216.827 377.047 216.827Z" fill="white"/>
<path d="M370.433 218.276H355.14C355.032 218.276 354.945 218.189 354.945 218.082C354.945 217.974 355.032 217.887 355.14 217.887H370.433C370.541 217.887 370.628 217.974 370.628 218.082C370.628 218.189 370.541 218.276 370.433 218.276Z" fill="#F86C6C"/>
<path d="M409.534 243.55H337.977V245.768H409.534V243.55Z" fill="#657C8F"/>
<path d="M390.733 245.768H389.035V288.141H390.733V245.768Z" fill="#657C8F"/>
<path d="M411.234 288.142H409.536L404.02 245.768H405.717L411.234 288.142Z" fill="#657C8F"/>
<path d="M390.733 249.165V245.768H389.035V248.939L390.733 249.165Z" fill="#313F4A"/>
<path d="M405.717 245.768H404.02L404.704 251.026L406.432 251.257L405.717 245.768Z" fill="#313F4A"/>
<path d="M342.6 245.768H340.902V288.141H342.6V245.768Z" fill="#657C8F"/>
<path d="M363.101 288.142H361.403L355.887 245.768H357.584L363.101 288.142Z" fill="#657C8F"/>
<path d="M342.6 249.165V245.768H340.902V248.939L342.6 249.165Z" fill="#313F4A"/>
<path d="M357.584 245.768H355.887L356.571 251.026L358.299 251.257L357.584 245.768Z" fill="#313F4A"/>
<path d="M339.027 288.142H344.514" stroke="#657C8F" stroke-width="1.0612" stroke-miterlimit="10"/>
<path d="M359.492 288.142H364.979" stroke="#657C8F" stroke-width="1.0612" stroke-miterlimit="10"/>
<path d="M386.996 288.142H392.483" stroke="#657C8F" stroke-width="1.0612" stroke-miterlimit="10"/>
<path d="M407.461 288.142H412.948" stroke="#657C8F" stroke-width="1.0612" stroke-miterlimit="10"/>
<path d="M318.691 267.721C318.691 267.721 318.501 262.967 315.73 260.437C312.959 257.908 309.73 257.247 308.329 259.426C306.928 261.605 309.029 263.745 311.092 265.69C313.154 267.636 317.964 267.69 318.691 267.721Z" fill="#999C48"/>
<path d="M318.956 259.446C318.956 259.446 313.852 256.196 311.946 252.149C310.039 248.102 312.841 245.106 314.436 244.659C316.032 244.211 319.456 244.703 320.506 249.165C321.557 253.628 318.956 259.446 318.956 259.446Z" fill="#53786B"/>
<path d="M326.804 254.322C326.804 254.322 325.346 251.462 324.704 247.552C324.062 243.641 326.221 238.096 331.357 238.797C336.494 239.497 335.014 245.873 332.583 248.719C330.905 250.684 326.804 254.322 326.804 254.322Z" fill="#999C48"/>
<path d="M330.734 239.297C330.734 239.297 324.594 259.375 323.496 274.161" stroke="#313F4A" stroke-width="1.0612" stroke-miterlimit="10"/>
<path d="M321.564 264.052C321.564 264.052 321.086 260.897 322.526 257.512C323.966 254.127 326.768 253.816 328.129 254.477C329.491 255.139 329.219 258.251 327.74 260.469C326.262 262.688 323.541 263.606 321.564 264.052Z" fill="#6D9C8B"/>
<path d="M321.489 273.9C321.489 273.9 319.466 257.791 315.73 248.141" stroke="#313F4A" stroke-width="1.0612" stroke-miterlimit="10"/>
<path d="M311.527 261.993C311.527 261.993 315.415 266.148 320.747 268.88" stroke="#313F4A" stroke-width="1.0612" stroke-miterlimit="10"/>
<path d="M326.547 256.701C326.547 256.701 323.026 262.966 320.156 265.437" stroke="#313F4A" stroke-width="1.0612" stroke-miterlimit="10"/>
<path d="M326.742 267.086C326.742 267.086 329.087 255.159 334.296 258.982C338.79 262.282 331.387 267.805 326.742 267.086Z" fill="#F86C6C"/>
<path d="M332.624 260.919C332.624 260.919 329.394 266.309 324.031 268.592" stroke="#313F4A" stroke-width="1.0612" stroke-miterlimit="10"/>
<path d="M323.66 271.613H317.727C317.788 276.644 318.648 281.675 319.037 283.705C319.141 284.248 319.617 284.64 320.17 284.64H323.66H327.151C327.704 284.64 328.18 284.248 328.284 283.705C328.672 281.675 329.532 276.644 329.594 271.613H323.66Z" fill="#313F4A"/>
<path d="M317.727 271.613C317.744 273.034 317.825 274.454 317.941 275.806C319.832 275.626 321.716 275.328 322.571 274.834C323.948 274.04 327.454 273.408 329.554 273.085C329.574 272.596 329.588 272.105 329.594 271.613H323.661H317.727Z" fill="#27323B"/>
<path d="M318.211 284.64H332.622" stroke="#313F4A" stroke-width="1.0612" stroke-miterlimit="10"/>
<path d="M377.722 294.402C377.627 294.499 377.545 294.607 377.478 294.722L377.376 294.668C377.361 294.603 377.299 294.558 377.231 294.566C377.158 294.575 377.106 294.641 377.114 294.713C377.123 294.786 377.189 294.838 377.262 294.83C377.276 294.828 377.29 294.824 377.302 294.818L377.401 294.87C377.346 294.992 377.306 295.12 377.283 295.253L377.447 295.283C377.498 294.995 377.634 294.731 377.841 294.518L377.722 294.402Z" fill="#A5B7C6"/>
<path d="M378.93 293.896C378.893 293.896 378.855 293.897 378.818 293.9L378.802 293.762C378.843 293.729 378.867 293.677 378.86 293.62C378.85 293.534 378.772 293.472 378.685 293.482C378.599 293.492 378.537 293.57 378.547 293.657C378.554 293.713 378.589 293.758 378.636 293.781L378.652 293.918C378.495 293.944 378.344 293.991 378.199 294.06L378.271 294.211C378.477 294.113 378.698 294.063 378.93 294.063C379.039 294.063 379.149 294.075 379.255 294.098L379.29 293.935C379.172 293.909 379.051 293.896 378.93 293.896Z" fill="#A5B7C6"/>
<path d="M380.381 294.457C380.454 294.448 380.506 294.382 380.497 294.309C380.488 294.236 380.422 294.185 380.349 294.193C380.281 294.202 380.231 294.26 380.232 294.327L380.141 294.407C380.049 294.313 379.945 294.228 379.831 294.157L379.742 294.298C379.992 294.455 380.187 294.677 380.306 294.941L380.458 294.872C380.403 294.751 380.333 294.637 380.251 294.532L380.339 294.455C380.353 294.458 380.367 294.459 380.381 294.457Z" fill="#A5B7C6"/>
<path d="M378.81 296.141C378.725 296.147 378.639 296.149 378.555 296.149C378.361 296.149 378.174 296.136 378.01 296.11C377.924 296.096 377.824 296.076 377.73 296.046C377.961 296.455 378.406 296.733 378.916 296.733C379.544 296.733 380.073 296.312 380.225 295.742C380.075 295.841 379.894 295.924 379.684 295.989C379.424 296.07 379.122 296.123 378.81 296.141Z" fill="#A5B7C6"/>
<path d="M378.927 294.229C378.19 294.229 377.59 294.816 377.59 295.537C377.59 295.631 377.6 295.724 377.62 295.814C377.768 295.921 378.215 296.01 378.797 295.975C379.43 295.937 379.962 295.765 380.264 295.5C380.263 295.457 380.26 295.414 380.254 295.372C380.171 294.721 379.6 294.229 378.927 294.229ZM378.452 295.663C378.228 295.663 378.045 295.48 378.045 295.256C378.045 295.031 378.228 294.849 378.452 294.849C378.677 294.849 378.859 295.031 378.859 295.256C378.859 295.48 378.677 295.663 378.452 295.663ZM379.495 295.463C379.33 295.463 379.195 295.329 379.195 295.164C379.195 294.999 379.33 294.864 379.495 294.864C379.66 294.864 379.794 294.998 379.794 295.164C379.794 295.329 379.66 295.463 379.495 295.463Z" fill="#A5B7C6"/>
<path d="M382.452 294.641C382.387 294.615 382.275 294.573 382.148 294.588C382.026 294.604 381.962 294.663 381.962 294.81V295H382.452V295.378H381.962V296.578H381.537V295.378H381.242V295H381.537V294.805C381.537 294.436 381.734 294.193 382.102 294.193C382.243 294.193 382.356 294.22 382.452 294.261V294.641Z" fill="#A5B7C6"/>
<path d="M383.486 295.373C383.447 295.367 383.407 295.363 383.371 295.363C383.173 295.363 383.038 295.484 383.038 295.718V296.578H382.613V295H383.025V295.173C383.125 295.025 383.276 294.958 383.47 294.958C383.561 294.958 383.657 294.986 383.711 295.032L383.486 295.373Z" fill="#A5B7C6"/>
<path d="M385.171 295.786C385.171 295.835 385.167 295.894 385.162 295.93H384.044C384.089 296.158 384.249 296.257 384.449 296.257C384.586 296.257 384.734 296.202 384.848 296.106L385.097 296.379C384.918 296.544 384.69 296.619 384.425 296.619C383.941 296.619 383.605 296.29 383.605 295.793C383.605 295.296 383.931 294.958 384.403 294.958C384.858 294.958 385.169 295.295 385.171 295.786ZM384.045 295.64H384.744C384.705 295.438 384.583 295.324 384.4 295.324C384.2 295.324 384.083 295.445 384.045 295.64Z" fill="#A5B7C6"/>
<path d="M386.854 295.786C386.854 295.835 386.851 295.894 386.846 295.93H385.727C385.773 296.158 385.933 296.257 386.133 296.257C386.27 296.257 386.418 296.202 386.532 296.106L386.781 296.379C386.602 296.544 386.374 296.619 386.108 296.619C385.625 296.619 385.289 296.29 385.289 295.793C385.289 295.296 385.615 294.958 386.087 294.958C386.542 294.958 386.853 295.295 386.854 295.786ZM385.729 295.64H386.428C386.388 295.438 386.266 295.324 386.084 295.324C385.884 295.324 385.766 295.445 385.729 295.64Z" fill="#A5B7C6"/>
<path d="M388.69 295.788C388.69 296.262 388.361 296.619 387.926 296.619C387.715 296.619 387.565 296.535 387.462 296.413V297.229H387.039V295H387.454V295.174C387.557 295.045 387.708 294.958 387.925 294.958C388.361 294.958 388.69 295.314 388.69 295.788ZM387.441 295.788C387.441 296.037 387.605 296.223 387.846 296.223C388.097 296.223 388.253 296.029 388.253 295.788C388.253 295.547 388.097 295.353 387.846 295.353C387.606 295.353 387.441 295.539 387.441 295.788Z" fill="#A5B7C6"/>
<path d="M389.374 294.484C389.374 294.637 389.256 294.754 389.102 294.754C388.949 294.754 388.832 294.637 388.832 294.484C388.832 294.331 388.949 294.21 389.102 294.21C389.255 294.21 389.374 294.331 389.374 294.484ZM389.317 296.578H388.892V295H389.317V296.578Z" fill="#A5B7C6"/>
<path d="M390.027 295.562L390.621 295H391.142L390.376 295.742L391.147 296.578H390.624L390.026 295.939V296.578H389.602V294.233H390.027V295.562Z" fill="#A5B7C6"/>
<path d="M361.069 296.564V296.332C360.954 296.49 360.763 296.602 360.544 296.602C360.138 296.602 359.852 296.293 359.852 295.787C359.852 295.291 360.135 294.968 360.544 294.968C360.754 294.968 360.944 295.072 361.069 295.242V294.414H361.311V296.563H361.069V296.564ZM361.069 296.142V295.436C360.983 295.301 360.796 295.184 360.602 295.184C360.29 295.184 360.103 295.442 360.103 295.787C360.103 296.132 360.29 296.386 360.602 296.386C360.796 296.387 360.983 296.277 361.069 296.142Z" fill="#A5B7C6"/>
<path d="M361.625 295.784C361.625 295.333 361.947 294.969 362.392 294.969C362.862 294.969 363.139 295.336 363.139 295.803V295.865H361.88C361.899 296.158 362.105 296.403 362.44 296.403C362.618 296.403 362.798 296.332 362.92 296.206L363.036 296.364C362.882 296.519 362.672 296.603 362.418 296.603C361.957 296.603 361.625 296.271 361.625 295.784ZM362.389 295.169C362.057 295.169 361.893 295.449 361.88 295.687H362.901C362.898 295.455 362.743 295.169 362.389 295.169Z" fill="#A5B7C6"/>
<path d="M363.312 296.358L363.439 296.184C363.542 296.303 363.739 296.406 363.951 296.406C364.19 296.406 364.318 296.293 364.318 296.138C364.318 295.761 363.355 295.994 363.355 295.417C363.355 295.175 363.565 294.969 363.935 294.969C364.199 294.969 364.386 295.069 364.512 295.194L364.398 295.362C364.305 295.249 364.135 295.165 363.935 295.165C363.722 295.165 363.59 295.272 363.59 295.41C363.59 295.752 364.553 295.526 364.553 296.132C364.553 296.393 364.344 296.602 363.941 296.602C363.686 296.603 363.471 296.525 363.312 296.358Z" fill="#A5B7C6"/>
<path d="M364.824 294.623C364.824 294.533 364.898 294.459 364.985 294.459C365.075 294.459 365.15 294.533 365.15 294.623C365.15 294.714 365.075 294.784 364.985 294.784C364.898 294.784 364.824 294.714 364.824 294.623ZM364.866 296.563V295.007H365.108V296.563H364.866Z" fill="#A5B7C6"/>
<path d="M365.509 296.963L365.631 296.783C365.76 296.938 365.915 296.996 366.137 296.996C366.395 296.996 366.637 296.87 366.637 296.529V296.306C366.524 296.464 366.334 296.583 366.115 296.583C365.709 296.583 365.422 296.28 365.422 295.778C365.422 295.278 365.705 294.969 366.115 294.969C366.324 294.969 366.511 295.072 366.637 295.243V295.007H366.878V296.519C366.878 297.035 366.517 297.196 366.137 297.196C365.873 297.196 365.693 297.144 365.509 296.963ZM366.637 296.116V295.436C366.553 295.301 366.366 295.185 366.173 295.185C365.86 295.185 365.674 295.433 365.674 295.777C365.674 296.119 365.86 296.37 366.173 296.37C366.366 296.371 366.553 296.251 366.637 296.116Z" fill="#A5B7C6"/>
<path d="M368.328 296.564V295.545C368.328 295.271 368.189 295.184 367.98 295.184C367.79 295.184 367.609 295.3 367.519 295.426V296.563H367.277V295.007H367.519V295.232C367.629 295.104 367.841 294.968 368.073 294.968C368.399 294.968 368.57 295.133 368.57 295.471V296.563H368.328V296.564Z" fill="#A5B7C6"/>
<path d="M368.883 295.784C368.883 295.333 369.205 294.969 369.65 294.969C370.12 294.969 370.397 295.336 370.397 295.803V295.865H369.137C369.157 296.158 369.363 296.403 369.698 296.403C369.875 296.403 370.056 296.332 370.178 296.206L370.294 296.364C370.14 296.519 369.93 296.603 369.676 296.603C369.215 296.603 368.883 296.271 368.883 295.784ZM369.647 295.169C369.315 295.169 369.15 295.449 369.138 295.687H370.159C370.156 295.455 370.001 295.169 369.647 295.169Z" fill="#A5B7C6"/>
<path d="M371.836 296.564V296.332C371.72 296.49 371.529 296.602 371.31 296.602C370.904 296.602 370.617 296.293 370.617 295.787C370.617 295.291 370.901 294.968 371.31 294.968C371.52 294.968 371.71 295.072 371.836 295.242V294.414H372.077V296.563H371.836V296.564ZM371.836 296.142V295.436C371.748 295.301 371.562 295.184 371.368 295.184C371.056 295.184 370.869 295.442 370.869 295.787C370.869 296.132 371.056 296.386 371.368 296.386C371.562 296.387 371.748 296.277 371.836 296.142Z" fill="#A5B7C6"/>
<path d="M373.23 296.564V294.415H373.472V295.243C373.598 295.072 373.785 294.969 373.998 294.969C374.404 294.969 374.69 295.291 374.69 295.788C374.69 296.293 374.404 296.603 373.998 296.603C373.778 296.603 373.588 296.49 373.472 296.332V296.564H373.23ZM373.936 296.387C374.252 296.387 374.439 296.132 374.439 295.787C374.439 295.442 374.252 295.185 373.936 295.185C373.746 295.185 373.556 295.301 373.472 295.436V296.142C373.556 296.277 373.746 296.387 373.936 296.387Z" fill="#A5B7C6"/>
<path d="M374.957 296.953C374.992 296.969 375.05 296.979 375.089 296.979C375.195 296.979 375.266 296.944 375.321 296.815L375.424 296.579L374.773 295.007H375.035L375.553 296.283L376.069 295.007H376.333L375.553 296.879C375.46 297.105 375.302 297.192 375.096 297.195C375.044 297.195 374.964 297.185 374.918 297.172L374.957 296.953Z" fill="#A5B7C6"/>
</g>
</g>
<path d="M38.5547 98.7348V72.4302H46.5621C48.522 72.4302 50.0693 72.7139 51.2041 73.2812C52.3646 73.8485 53.1899 74.6481 53.6798 75.6796C54.1956 76.7111 54.4535 77.9232 54.4535 79.3158V80.3989C54.4535 82.4362 53.5767 83.9965 51.823 85.0796C53.0609 85.5695 54.0022 86.2788 54.6469 87.2072C55.2916 88.1356 55.614 89.2444 55.614 90.5339V91.617C55.614 93.0354 55.3561 94.2862 54.8403 95.3693C54.3245 96.4267 53.4734 97.2519 52.2872 97.845C51.101 98.4382 49.515 98.7348 47.5292 98.7348H38.5547ZM46.5621 76.6853H43.1967V83.2615H46.5621C47.5936 83.2615 48.3673 83.0294 48.8831 82.5652C49.4247 82.0752 49.6954 81.4176 49.6954 80.5923V79.3158C49.6954 78.4905 49.4247 77.8458 48.8831 77.3816C48.3673 76.9174 47.5936 76.6853 46.5621 76.6853ZM47.5292 87.5166H43.1967V94.4796H47.5292C48.6123 94.4796 49.4376 94.2217 50.0049 93.7059C50.5722 93.1901 50.8559 92.4938 50.8559 91.617V90.3405C50.8559 89.4637 50.5722 88.7802 50.0049 88.2903C49.4376 87.7745 48.6123 87.5166 47.5292 87.5166ZM77.3182 98.7348L75.6935 93.5899H66.6804L65.0557 98.7348H60.4524L69.2334 72.4302H73.3339L82.1536 98.7348H77.3182ZM69.1948 85.5438L67.9956 89.3347H74.3396L73.1404 85.5438L71.2063 78.8903L69.1948 85.5438ZM88.8685 98.7348V72.4302H93.1237C95.1609 75.0864 97.0951 77.8974 98.9262 80.8631C100.757 83.803 102.42 86.8333 103.916 89.9537L103.568 82.101V72.4302H108.017V98.7348H103.762C102.111 95.4854 100.396 92.223 98.6167 88.9479C96.863 85.6469 94.9933 82.5394 93.0076 79.6253L93.3171 88.6771V98.7348H88.8685ZM117.595 98.7348V72.4302H121.85C123.888 75.0864 125.822 77.8974 127.653 80.8631C129.484 83.803 131.147 86.8333 132.643 89.9537L132.295 82.101V72.4302H136.743V98.7348H132.488C130.838 95.4854 129.123 92.223 127.343 88.9479C125.59 85.6469 123.72 82.5394 121.734 79.6253L122.044 88.6771V98.7348H117.595ZM161.563 94.2862V98.7348H146.322V72.4302H161.177V76.8787H150.964V83.1841H160.016V87.6327H150.964V94.2862H161.563ZM174.024 89.064V98.7348H169.382V72.4302H178.163C180.819 72.4302 182.857 73.1135 184.275 74.4804C185.72 75.8214 186.442 77.6267 186.442 79.896V81.5594C186.442 83.0551 186.119 84.3704 185.474 85.5051C184.83 86.6398 183.902 87.5037 182.689 88.0969C184.804 91.7073 186.61 95.2533 188.105 98.7348H182.805C181.516 95.5111 179.981 92.2876 178.202 89.064H174.024ZM178.163 76.6853H174.024V84.8088H178.163C179.298 84.8088 180.162 84.5251 180.755 83.9578C181.374 83.3646 181.684 82.5652 181.684 81.5594V79.896C181.684 78.916 181.374 78.1424 180.755 77.575C180.162 76.9819 179.298 76.6853 178.163 76.6853ZM220.582 94.2862V98.7348H205.341V72.4302H220.195V76.8787H209.983V83.1841H219.035V87.6327H209.983V94.2862H220.582ZM240.935 98.7348L235.442 89.1026L230.22 98.7348H225.346L233.044 85.0796L225.771 72.4302H231.032L236.1 81.25L240.858 72.4302H245.732L238.498 85.3117L246.196 98.7348H240.935ZM266.749 98.7348L265.124 93.5899H256.111L254.486 98.7348H249.883L258.664 72.4302H262.765L271.584 98.7348H266.749ZM258.626 85.5438L257.426 89.3347H263.77L262.571 85.5438L260.637 78.8903L258.626 85.5438ZM283.367 72.4302L290.717 90.4179L298.028 72.4302H303.095V98.7348H298.647V88.6771L299.227 79.4705L292.69 95.6401H288.551L282.168 79.4318L282.748 88.6771V98.7348H278.3V72.4302H283.367ZM312.692 98.7348V72.4302H321.358C324.117 72.4302 326.181 73.1265 327.547 74.5191C328.939 75.9117 329.636 77.7685 329.636 80.0894V82.1397C329.636 84.4607 328.939 86.3304 327.547 87.7487C326.181 89.1413 324.117 89.8376 321.358 89.8376H317.334V98.7348H312.692ZM321.358 76.8787H317.334V85.389H321.358C322.493 85.389 323.357 85.1053 323.949 84.538C324.568 83.9707 324.878 83.1712 324.878 82.1397V80.0894C324.878 79.0837 324.568 78.2971 323.949 77.7298C323.357 77.1625 322.493 76.8787 321.358 76.8787ZM352.39 94.2862V98.7348H337.226V72.4302H341.868V94.2862H352.39ZM374.395 94.2862V98.7348H359.153V72.4302H374.008V76.8787H363.795V83.1841H372.847V87.6327H363.795V94.2862H374.395Z" fill="white"/>
<path d="M45.2741 132.032V133.795H37.1797V118.998H39.0727V132.032H45.2741ZM56.1123 127.746V129.051C56.1123 130.589 55.7134 131.8 54.9155 132.685C54.1322 133.57 53.008 134.012 51.5429 134.012C50.0922 134.012 48.968 133.57 48.1702 132.685C47.3723 131.8 46.9734 130.589 46.9734 129.051V127.746C46.9734 126.237 47.3651 125.04 48.1484 124.155C48.9463 123.256 50.0777 122.806 51.5429 122.806C53.008 122.806 54.1322 123.256 54.9155 124.155C55.7134 125.04 56.1123 126.237 56.1123 127.746ZM54.2628 127.746C54.2628 126.716 54.0307 125.911 53.5665 125.33C53.1023 124.736 52.4277 124.438 51.5429 124.438C50.6725 124.438 49.998 124.736 49.5192 125.33C49.055 125.911 48.8229 126.716 48.8229 127.746V129.051C48.8229 130.125 49.055 130.952 49.5192 131.532C49.998 132.112 50.6725 132.402 51.5429 132.402C52.4277 132.402 53.1023 132.112 53.5665 131.532C54.0307 130.952 54.2628 130.125 54.2628 129.051V127.746ZM65.0122 124.591C64.3594 124.591 63.7212 124.707 63.0974 124.939C62.4881 125.171 61.8354 125.613 61.1391 126.266V133.795H59.3548V123.024H61.052V124.765C61.7918 124.039 62.4664 123.532 63.0756 123.241C63.6994 122.951 64.3449 122.806 65.0122 122.806V124.591ZM75.156 133.164C74.5032 133.483 73.8505 133.7 73.1977 133.817C72.5449 133.947 71.9429 134.012 71.3917 134.012C69.8395 134.012 68.679 133.57 67.9102 132.685C67.1559 131.8 66.7787 130.589 66.7787 129.051V127.746C66.7787 126.252 67.1559 125.055 67.9102 124.155C68.679 123.256 69.7597 122.806 71.1523 122.806C71.8921 122.806 72.5667 122.959 73.1759 123.263C73.7997 123.553 74.2929 124.003 74.6556 124.612C75.0327 125.207 75.2213 125.976 75.2213 126.919C75.2213 127.528 75.1343 128.224 74.9602 129.008H68.5412V129.051C68.5412 130.154 68.766 130.988 69.2157 131.554C69.6799 132.119 70.4197 132.402 71.4352 132.402C71.8994 132.402 72.4071 132.344 72.9583 132.228C73.5241 132.112 74.0753 131.931 74.612 131.684L75.156 133.164ZM71.1523 124.373C70.3109 124.373 69.6727 124.649 69.2375 125.2C68.8168 125.737 68.5847 126.498 68.5412 127.485H73.4153C73.4588 127.223 73.4806 126.977 73.4806 126.745C73.4806 125.932 73.2485 125.338 72.7843 124.96C72.3346 124.569 71.7906 124.373 71.1523 124.373ZM83.3791 124.482C82.9729 124.482 82.516 124.591 82.0082 124.808C81.5005 125.011 80.8623 125.417 80.0934 126.027V133.795H78.3092V123.024H80.0064V124.525C80.7752 123.887 81.457 123.445 82.0518 123.198C82.6465 122.937 83.234 122.806 83.8143 122.806C84.4961 122.806 85.0618 122.966 85.5115 123.285C85.9612 123.59 86.2948 124.032 86.5124 124.612C87.3103 123.931 88.0211 123.459 88.6448 123.198C89.2831 122.937 89.9069 122.806 90.5161 122.806C91.4735 122.806 92.2061 123.125 92.7138 123.764C93.2215 124.387 93.4754 125.28 93.4754 126.44V133.795H91.6911V126.701C91.6911 125.222 91.1544 124.482 90.0809 124.482C89.6748 124.482 89.2106 124.591 88.6883 124.808C88.1806 125.011 87.5424 125.417 86.7735 126.027C86.788 126.085 86.7953 126.15 86.7953 126.223C86.7953 126.295 86.7953 126.368 86.7953 126.44V133.795H85.011V126.701C85.011 125.222 84.467 124.482 83.3791 124.482ZM103.853 120.391H101.851V118.389H103.853V120.391ZM103.744 133.795H101.96V123.024H103.744V133.795ZM111.899 134.012C111.087 134.012 110.245 133.846 109.375 133.512V138.429H107.591V123.024H109.288V124.547C109.955 123.909 110.564 123.459 111.116 123.198C111.667 122.937 112.233 122.806 112.813 122.806C113.959 122.806 114.836 123.241 115.446 124.112C116.069 124.982 116.381 126.208 116.381 127.789V129.051C116.381 130.56 115.997 131.764 115.228 132.663C114.474 133.563 113.364 134.012 111.899 134.012ZM112.378 124.482C111.957 124.482 111.522 124.591 111.072 124.808C110.622 125.026 110.057 125.468 109.375 126.135V131.88C109.796 132.069 110.202 132.206 110.593 132.293C110.985 132.366 111.369 132.402 111.747 132.402C112.733 132.402 113.444 132.105 113.879 131.51C114.314 130.901 114.532 130.081 114.532 129.051V127.789C114.532 126.658 114.35 125.824 113.988 125.287C113.64 124.75 113.103 124.482 112.378 124.482ZM122.314 132.424C123.765 132.424 124.49 131.931 124.49 130.944C124.49 130.524 124.36 130.19 124.099 129.943C123.838 129.697 123.359 129.486 122.663 129.312L121.466 129.008C120.581 128.79 119.921 128.413 119.486 127.876C119.051 127.325 118.833 126.672 118.833 125.918C118.833 125.367 118.956 124.859 119.203 124.395C119.449 123.916 119.841 123.532 120.378 123.241C120.915 122.951 121.611 122.806 122.467 122.806C123.018 122.806 123.576 122.872 124.142 123.002C124.722 123.118 125.31 123.321 125.905 123.611L125.339 125.113C124.28 124.634 123.323 124.395 122.467 124.395C121.205 124.395 120.574 124.866 120.574 125.809C120.574 126.172 120.69 126.484 120.922 126.745C121.154 127.006 121.589 127.216 122.227 127.376L123.424 127.68C124.382 127.912 125.085 128.29 125.535 128.812C125.984 129.334 126.209 130.009 126.209 130.835C126.209 131.43 126.079 131.974 125.818 132.467C125.571 132.946 125.165 133.323 124.599 133.599C124.048 133.875 123.301 134.012 122.358 134.012C121.734 134.012 121.11 133.947 120.487 133.817C119.877 133.686 119.246 133.476 118.594 133.185L119.072 131.706C119.696 131.952 120.262 132.134 120.769 132.25C121.277 132.366 121.792 132.424 122.314 132.424ZM135.689 133.795V132.272C134.935 132.924 134.26 133.381 133.665 133.642C133.071 133.889 132.476 134.012 131.881 134.012C130.924 134.012 130.191 133.7 129.683 133.077C129.176 132.438 128.922 131.546 128.922 130.4V123.024H130.706V130.139C130.706 130.894 130.837 131.452 131.098 131.815C131.373 132.163 131.78 132.337 132.316 132.337C132.722 132.337 133.179 132.235 133.687 132.032C134.195 131.829 134.826 131.423 135.58 130.814V123.024H137.364V133.795H135.689ZM146.277 124.482C145.871 124.482 145.414 124.591 144.906 124.808C144.398 125.011 143.76 125.417 142.991 126.027V133.795H141.207V123.024H142.904V124.525C143.673 123.887 144.355 123.445 144.95 123.198C145.544 122.937 146.132 122.806 146.712 122.806C147.394 122.806 147.96 122.966 148.409 123.285C148.859 123.59 149.193 124.032 149.41 124.612C150.208 123.931 150.919 123.459 151.543 123.198C152.181 122.937 152.805 122.806 153.414 122.806C154.371 122.806 155.104 123.125 155.612 123.764C156.119 124.387 156.373 125.28 156.373 126.44V133.795H154.589V126.701C154.589 125.222 154.052 124.482 152.979 124.482C152.573 124.482 152.109 124.591 151.586 124.808C151.079 125.011 150.44 125.417 149.671 126.027C149.686 126.085 149.693 126.15 149.693 126.223C149.693 126.295 149.693 126.368 149.693 126.44V133.795H147.909V126.701C147.909 125.222 147.365 124.482 146.277 124.482ZM161.251 133.795H159.249V131.815H161.251V133.795Z" fill="white"/>
<path d="M45.3058 184.01V185.773H37.2113V170.976H39.1044V184.01H45.3058ZM56.1439 179.724V181.029C56.1439 182.567 55.745 183.778 54.9472 184.663C54.1638 185.548 53.0396 185.99 51.5745 185.99C50.1239 185.99 48.9996 185.548 48.2018 184.663C47.404 183.778 47.005 182.567 47.005 181.029V179.724C47.005 178.215 47.3967 177.018 48.18 176.133C48.9779 175.234 50.1094 174.784 51.5745 174.784C53.0396 174.784 54.1638 175.234 54.9472 176.133C55.745 177.018 56.1439 178.215 56.1439 179.724ZM54.2944 179.724C54.2944 178.694 54.0623 177.889 53.5981 177.308C53.1339 176.714 52.4594 176.416 51.5745 176.416C50.7041 176.416 50.0296 176.714 49.5509 177.308C49.0867 177.889 48.8546 178.694 48.8546 179.724V181.029C48.8546 182.103 49.0867 182.93 49.5509 183.51C50.0296 184.09 50.7041 184.38 51.5745 184.38C52.4594 184.38 53.1339 184.09 53.5981 183.51C54.0623 182.93 54.2944 182.103 54.2944 181.029V179.724ZM65.0438 176.569C64.3911 176.569 63.7528 176.685 63.129 176.917C62.5198 177.149 61.867 177.591 61.1707 178.244V185.773H59.3864V175.002H61.0836V176.743C61.8235 176.017 62.498 175.51 63.1073 175.22C63.731 174.929 64.3765 174.784 65.0438 174.784V176.569ZM75.1876 185.142C74.5349 185.461 73.8821 185.679 73.2293 185.795C72.5765 185.925 71.9745 185.99 71.4233 185.99C69.8711 185.99 68.7106 185.548 67.9418 184.663C67.1875 183.778 66.8103 182.567 66.8103 181.029V179.724C66.8103 178.23 67.1875 177.033 67.9418 176.133C68.7106 175.234 69.7913 174.784 71.1839 174.784C71.9237 174.784 72.5983 174.937 73.2075 175.241C73.8313 175.531 74.3245 175.981 74.6872 176.59C75.0643 177.185 75.2529 177.954 75.2529 178.897C75.2529 179.506 75.1659 180.202 74.9918 180.986H68.5728V181.029C68.5728 182.132 68.7977 182.966 69.2474 183.532C69.7116 184.097 70.4514 184.38 71.4668 184.38C71.931 184.38 72.4387 184.322 72.99 184.206C73.5557 184.09 74.1069 183.909 74.6437 183.662L75.1876 185.142ZM71.1839 176.351C70.3426 176.351 69.7043 176.627 69.2691 177.178C68.8484 177.715 68.6163 178.476 68.5728 179.463H73.4469C73.4904 179.201 73.5122 178.955 73.5122 178.723C73.5122 177.91 73.2801 177.316 72.8159 176.939C72.3662 176.547 71.8222 176.351 71.1839 176.351ZM83.4107 176.46C83.0045 176.46 82.5476 176.569 82.0399 176.786C81.5322 176.989 80.8939 177.395 80.1251 178.005V185.773H78.3408V175.002H80.038V176.503C80.8068 175.865 81.4886 175.423 82.0834 175.176C82.6781 174.915 83.2656 174.784 83.8459 174.784C84.5277 174.784 85.0934 174.944 85.5431 175.263C85.9928 175.568 86.3265 176.01 86.544 176.59C87.3419 175.909 88.0527 175.437 88.6765 175.176C89.3147 174.915 89.9385 174.784 90.5477 174.784C91.5052 174.784 92.2377 175.103 92.7454 175.742C93.2531 176.366 93.507 177.258 93.507 178.418V185.773H91.7227V178.679C91.7227 177.2 91.186 176.46 90.1126 176.46C89.7064 176.46 89.2422 176.569 88.72 176.786C88.2123 176.989 87.574 177.395 86.8052 178.005C86.8197 178.063 86.8269 178.128 86.8269 178.201C86.8269 178.273 86.8269 178.346 86.8269 178.418V185.773H85.0427V178.679C85.0427 177.2 84.4987 176.46 83.4107 176.46ZM103.884 172.369H101.882V170.367H103.884V172.369ZM103.775 185.773H101.991V175.002H103.775V185.773ZM111.931 185.99C111.118 185.99 110.277 185.824 109.407 185.49V190.408H107.622V175.002H109.319V176.525C109.987 175.887 110.596 175.437 111.147 175.176C111.698 174.915 112.264 174.784 112.844 174.784C113.99 174.784 114.868 175.22 115.477 176.09C116.101 176.96 116.413 178.186 116.413 179.767V181.029C116.413 182.538 116.029 183.742 115.26 184.641C114.505 185.541 113.396 185.99 111.931 185.99ZM112.409 176.46C111.989 176.46 111.553 176.569 111.104 176.786C110.654 177.004 110.088 177.446 109.407 178.114V183.858C109.827 184.047 110.233 184.184 110.625 184.271C111.017 184.344 111.401 184.38 111.778 184.38C112.765 184.38 113.475 184.083 113.911 183.488C114.346 182.879 114.563 182.059 114.563 181.029V179.767C114.563 178.636 114.382 177.802 114.019 177.265C113.671 176.728 113.135 176.46 112.409 176.46ZM122.346 184.402C123.797 184.402 124.522 183.909 124.522 182.922C124.522 182.502 124.391 182.168 124.13 181.921C123.869 181.675 123.39 181.464 122.694 181.29L121.497 180.986C120.613 180.768 119.952 180.391 119.517 179.854C119.082 179.303 118.865 178.65 118.865 177.896C118.865 177.345 118.988 176.837 119.234 176.373C119.481 175.894 119.873 175.51 120.409 175.22C120.946 174.929 121.642 174.784 122.498 174.784C123.05 174.784 123.608 174.85 124.174 174.98C124.754 175.096 125.342 175.299 125.936 175.589L125.371 177.091C124.312 176.612 123.354 176.373 122.498 176.373C121.236 176.373 120.605 176.844 120.605 177.787C120.605 178.15 120.721 178.462 120.953 178.723C121.186 178.984 121.621 179.194 122.259 179.354L123.456 179.658C124.413 179.891 125.117 180.268 125.566 180.79C126.016 181.312 126.241 181.987 126.241 182.814C126.241 183.408 126.11 183.952 125.849 184.445C125.603 184.924 125.196 185.301 124.631 185.577C124.08 185.853 123.332 185.99 122.39 185.99C121.766 185.99 121.142 185.925 120.518 185.795C119.909 185.664 119.278 185.454 118.625 185.164L119.104 183.684C119.728 183.931 120.293 184.112 120.801 184.228C121.309 184.344 121.824 184.402 122.346 184.402ZM135.721 185.773V184.25C134.966 184.902 134.292 185.359 133.697 185.62C133.102 185.867 132.507 185.99 131.913 185.99C130.955 185.99 130.223 185.679 129.715 185.055C129.207 184.416 128.953 183.524 128.953 182.378V175.002H130.738V182.117C130.738 182.872 130.868 183.43 131.129 183.793C131.405 184.141 131.811 184.315 132.348 184.315C132.754 184.315 133.211 184.213 133.719 184.01C134.226 183.807 134.857 183.401 135.612 182.792V175.002H137.396V185.773H135.721ZM146.309 176.46C145.902 176.46 145.446 176.569 144.938 176.786C144.43 176.989 143.792 177.395 143.023 178.005V185.773H141.239V175.002H142.936V176.503C143.705 175.865 144.387 175.423 144.981 175.176C145.576 174.915 146.164 174.784 146.744 174.784C147.426 174.784 147.991 174.944 148.441 175.263C148.891 175.568 149.224 176.01 149.442 176.59C150.24 175.909 150.951 175.437 151.574 175.176C152.213 174.915 152.836 174.784 153.446 174.784C154.403 174.784 155.136 175.103 155.643 175.742C156.151 176.366 156.405 177.258 156.405 178.418V185.773H154.621V178.679C154.621 177.2 154.084 176.46 153.011 176.46C152.604 176.46 152.14 176.569 151.618 176.786C151.11 176.989 150.472 177.395 149.703 178.005C149.718 178.063 149.725 178.128 149.725 178.201C149.725 178.273 149.725 178.346 149.725 178.418V185.773H147.941V178.679C147.941 177.2 147.397 176.46 146.309 176.46ZM171.438 185.773V184.271C170.771 184.91 170.162 185.359 169.61 185.62C169.074 185.867 168.515 185.99 167.935 185.99C166.789 185.99 165.904 185.555 165.28 184.685C164.671 183.814 164.366 182.596 164.366 181.029V179.767C164.366 178.244 164.744 177.033 165.498 176.133C166.267 175.234 167.376 174.784 168.827 174.784C169.248 174.784 169.668 174.828 170.089 174.915C170.51 175.002 170.93 175.125 171.351 175.285V169.671H173.135V185.773H171.438ZM166.216 181.029C166.216 182.161 166.39 182.995 166.738 183.532C167.101 184.054 167.638 184.315 168.348 184.315C168.769 184.315 169.204 184.213 169.654 184.01C170.104 183.793 170.669 183.35 171.351 182.683V176.939C170.93 176.75 170.524 176.619 170.133 176.547C169.741 176.46 169.357 176.416 168.979 176.416C167.993 176.416 167.282 176.714 166.847 177.308C166.426 177.903 166.216 178.723 166.216 179.767V181.029ZM185.509 179.724V181.029C185.509 182.567 185.11 183.778 184.312 184.663C183.529 185.548 182.405 185.99 180.94 185.99C179.489 185.99 178.365 185.548 177.567 184.663C176.769 183.778 176.37 182.567 176.37 181.029V179.724C176.37 178.215 176.762 177.018 177.545 176.133C178.343 175.234 179.475 174.784 180.94 174.784C182.405 174.784 183.529 175.234 184.312 176.133C185.11 177.018 185.509 178.215 185.509 179.724ZM183.66 179.724C183.66 178.694 183.428 177.889 182.963 177.308C182.499 176.714 181.825 176.416 180.94 176.416C180.069 176.416 179.395 176.714 178.916 177.308C178.452 177.889 178.22 178.694 178.22 179.724V181.029C178.22 182.103 178.452 182.93 178.916 183.51C179.395 184.09 180.069 184.38 180.94 184.38C181.825 184.38 182.499 184.09 182.963 183.51C183.428 182.93 183.66 182.103 183.66 181.029V179.724ZM188.731 183.162V169.671H190.515V183.075C190.515 183.466 190.573 183.764 190.689 183.967C190.82 184.155 191.074 184.25 191.451 184.25H191.799V185.882H191.298C190.341 185.882 189.674 185.628 189.297 185.12C188.919 184.612 188.731 183.96 188.731 183.162ZM203.019 179.724V181.029C203.019 182.567 202.62 183.778 201.823 184.663C201.039 185.548 199.915 185.99 198.45 185.99C196.999 185.99 195.875 185.548 195.077 184.663C194.279 183.778 193.88 182.567 193.88 181.029V179.724C193.88 178.215 194.272 177.018 195.055 176.133C195.853 175.234 196.985 174.784 198.45 174.784C199.915 174.784 201.039 175.234 201.823 176.133C202.62 177.018 203.019 178.215 203.019 179.724ZM201.17 179.724C201.17 178.694 200.938 177.889 200.474 177.308C200.009 176.714 199.335 176.416 198.45 176.416C197.58 176.416 196.905 176.714 196.426 177.308C195.962 177.889 195.73 178.694 195.73 179.724V181.029C195.73 182.103 195.962 182.93 196.426 183.51C196.905 184.09 197.58 184.38 198.45 184.38C199.335 184.38 200.009 184.09 200.474 183.51C200.938 182.93 201.17 182.103 201.17 181.029V179.724ZM211.919 176.569C211.266 176.569 210.628 176.685 210.004 176.917C209.395 177.149 208.742 177.591 208.046 178.244V185.773H206.261V175.002H207.959V176.743C208.699 176.017 209.373 175.51 209.982 175.22C210.606 174.929 211.252 174.784 211.919 174.784V176.569ZM221.622 184.402C223.073 184.402 223.798 183.909 223.798 182.922C223.798 182.502 223.668 182.168 223.407 181.921C223.145 181.675 222.667 181.464 221.97 181.29L220.774 180.986C219.889 180.768 219.229 180.391 218.794 179.854C218.358 179.303 218.141 178.65 218.141 177.896C218.141 177.345 218.264 176.837 218.511 176.373C218.757 175.894 219.149 175.51 219.686 175.22C220.222 174.929 220.919 174.784 221.775 174.784C222.326 174.784 222.884 174.85 223.45 174.98C224.03 175.096 224.618 175.299 225.213 175.589L224.647 177.091C223.588 176.612 222.63 176.373 221.775 176.373C220.513 176.373 219.882 176.844 219.882 177.787C219.882 178.15 219.998 178.462 220.23 178.723C220.462 178.984 220.897 179.194 221.535 179.354L222.732 179.658C223.689 179.891 224.393 180.268 224.843 180.79C225.292 181.312 225.517 181.987 225.517 182.814C225.517 183.408 225.387 183.952 225.126 184.445C224.879 184.924 224.473 185.301 223.907 185.577C223.356 185.853 222.609 185.99 221.666 185.99C221.042 185.99 220.418 185.925 219.795 185.795C219.185 185.664 218.554 185.454 217.901 185.164L218.38 183.684C219.004 183.931 219.57 184.112 220.077 184.228C220.585 184.344 221.1 184.402 221.622 184.402ZM230.253 172.369H228.252V170.367H230.253V172.369ZM230.145 185.773H228.36V175.002H230.145V185.773ZM239.91 185.381C239.097 185.787 238.234 185.99 237.32 185.99C236.537 185.99 235.921 185.831 235.471 185.512C235.036 185.193 234.724 184.765 234.535 184.228C234.361 183.691 234.274 183.096 234.274 182.444V176.569H232.403V175.002H234.274V171.999H236.058V175.002H239.583V176.569H236.058V182.378C236.058 183.133 236.182 183.655 236.428 183.945C236.689 184.221 237.088 184.358 237.625 184.358C237.886 184.358 238.155 184.329 238.43 184.271C238.72 184.199 239.032 184.083 239.366 183.923L239.91 185.381ZM254.873 185.882C254.206 185.882 253.669 185.729 253.263 185.425C252.871 185.12 252.595 184.743 252.436 184.293C251.725 184.917 251.08 185.359 250.499 185.62C249.919 185.867 249.339 185.99 248.759 185.99C247.816 185.99 247.119 185.686 246.67 185.076C246.22 184.467 245.995 183.72 245.995 182.835C245.995 182.241 246.104 181.711 246.321 181.247C246.539 180.783 246.909 180.42 247.431 180.159C247.953 179.883 248.657 179.745 249.542 179.745C249.934 179.745 250.361 179.774 250.826 179.832C251.29 179.876 251.761 179.934 252.24 180.007V178.549C252.24 177.736 252.059 177.185 251.696 176.895C251.348 176.59 250.833 176.438 250.151 176.438C249.223 176.438 248.186 176.692 247.04 177.2L246.474 175.72C247.141 175.415 247.779 175.183 248.389 175.024C248.998 174.864 249.614 174.784 250.238 174.784C251.254 174.784 252.03 174.951 252.566 175.285C253.103 175.618 253.473 176.061 253.676 176.612C253.879 177.163 253.981 177.765 253.981 178.418V183.075C253.981 183.408 254.046 183.691 254.177 183.923C254.307 184.141 254.568 184.25 254.96 184.25H255.199V185.882H254.873ZM247.758 182.814C247.758 183.307 247.874 183.706 248.106 184.01C248.338 184.315 248.672 184.467 249.107 184.467C249.484 184.467 249.919 184.358 250.412 184.141C250.905 183.909 251.515 183.452 252.24 182.77V181.399C251.254 181.24 250.383 181.16 249.629 181.16C248.962 181.16 248.483 181.298 248.193 181.573C247.903 181.849 247.758 182.262 247.758 182.814ZM262.797 176.46C262.391 176.46 261.934 176.569 261.426 176.786C260.918 176.989 260.28 177.395 259.511 178.005V185.773H257.727V175.002H259.424V176.503C260.193 175.865 260.875 175.423 261.47 175.176C262.064 174.915 262.652 174.784 263.232 174.784C263.914 174.784 264.48 174.944 264.929 175.263C265.379 175.568 265.713 176.01 265.93 176.59C266.728 175.909 267.439 175.437 268.063 175.176C268.701 174.915 269.325 174.784 269.934 174.784C270.891 174.784 271.624 175.103 272.132 175.742C272.639 176.366 272.893 177.258 272.893 178.418V185.773H271.109V178.679C271.109 177.2 270.572 176.46 269.499 176.46C269.093 176.46 268.628 176.569 268.106 176.786C267.598 176.989 266.96 177.395 266.191 178.005C266.206 178.063 266.213 178.128 266.213 178.201C266.213 178.273 266.213 178.346 266.213 178.418V185.773H264.429V178.679C264.429 177.2 263.885 176.46 262.797 176.46ZM284.451 185.142C283.798 185.461 283.145 185.679 282.493 185.795C281.84 185.925 281.238 185.99 280.687 185.99C279.134 185.99 277.974 185.548 277.205 184.663C276.451 183.778 276.074 182.567 276.074 181.029V179.724C276.074 178.23 276.451 177.033 277.205 176.133C277.974 175.234 279.055 174.784 280.447 174.784C281.187 174.784 281.862 174.937 282.471 175.241C283.095 175.531 283.588 175.981 283.951 176.59C284.328 177.185 284.516 177.954 284.516 178.897C284.516 179.506 284.429 180.202 284.255 180.986H277.836V181.029C277.836 182.132 278.061 182.966 278.511 183.532C278.975 184.097 279.715 184.38 280.73 184.38C281.194 184.38 281.702 184.322 282.253 184.206C282.819 184.09 283.37 183.909 283.907 183.662L284.451 185.142ZM280.447 176.351C279.606 176.351 278.968 176.627 278.532 177.178C278.112 177.715 277.88 178.476 277.836 179.463H282.71C282.754 179.201 282.776 178.955 282.776 178.723C282.776 177.91 282.543 177.316 282.079 176.939C281.63 176.547 281.086 176.351 280.447 176.351ZM293.522 185.381C292.71 185.787 291.847 185.99 290.933 185.99C290.149 185.99 289.533 185.831 289.083 185.512C288.648 185.193 288.336 184.765 288.148 184.228C287.974 183.691 287.887 183.096 287.887 182.444V176.569H286.015V175.002H287.887V171.999H289.671V175.002H293.196V176.569H289.671V182.378C289.671 183.133 289.794 183.655 290.041 183.945C290.302 184.221 290.701 184.358 291.237 184.358C291.499 184.358 291.767 184.329 292.043 184.271C292.333 184.199 292.645 184.083 292.978 183.923L293.522 185.381ZM296.936 183.793V184.206C296.936 185.265 296.805 186.273 296.544 187.231C296.283 188.188 295.812 189.211 295.13 190.299L293.955 189.646C294.318 188.95 294.579 188.311 294.738 187.731C294.912 187.165 295.021 186.571 295.065 185.947C295.123 185.338 295.152 184.62 295.152 183.793H296.936ZM38.0817 206.34V207.624C38.0817 208.726 38.2848 209.561 38.6909 210.126C39.0971 210.678 39.7426 210.953 40.6275 210.953C41.4979 210.953 42.4335 210.728 43.4345 210.279L43.9784 211.78C42.7889 212.317 41.6357 212.585 40.5187 212.585C39.1261 212.585 38.0672 212.143 37.3419 211.258C36.6166 210.373 36.2539 209.162 36.2539 207.624V206.34C36.2539 204.803 36.6166 203.591 37.3419 202.706C38.0672 201.821 39.1261 201.379 40.5187 201.379C41.0409 201.379 41.5777 201.452 42.1289 201.597C42.6946 201.727 43.2604 201.916 43.8261 202.162L43.2821 203.686C42.8034 203.482 42.3392 203.323 41.8896 203.207C41.4544 203.091 41.0337 203.033 40.6275 203.033C39.7426 203.033 39.0971 203.316 38.6909 203.881C38.2848 204.433 38.0817 205.252 38.0817 206.34ZM55.0815 206.318V207.624C55.0815 209.162 54.6826 210.373 53.8847 211.258C53.1014 212.143 51.9772 212.585 50.512 212.585C49.0614 212.585 47.9372 212.143 47.1393 211.258C46.3415 210.373 45.9426 209.162 45.9426 207.624V206.318C45.9426 204.81 46.3342 203.613 47.1176 202.728C47.9154 201.829 49.0469 201.379 50.512 201.379C51.9772 201.379 53.1014 201.829 53.8847 202.728C54.6826 203.613 55.0815 204.81 55.0815 206.318ZM53.2319 206.318C53.2319 205.288 52.9998 204.483 52.5356 203.903C52.0714 203.308 51.3969 203.011 50.512 203.011C49.6417 203.011 48.9671 203.308 48.4884 203.903C48.0242 204.483 47.7921 205.288 47.7921 206.318V207.624C47.7921 208.697 48.0242 209.524 48.4884 210.105C48.9671 210.685 49.6417 210.975 50.512 210.975C51.3969 210.975 52.0714 210.685 52.5356 210.105C52.9998 209.524 53.2319 208.697 53.2319 207.624V206.318ZM63.5027 203.055C63.0965 203.055 62.6178 203.156 62.0666 203.359C61.5298 203.562 60.8771 203.976 60.1082 204.599V212.367H58.324V201.597H60.0212V203.098C60.79 202.445 61.4863 201.996 62.1101 201.749C62.7484 201.502 63.3576 201.379 63.9379 201.379C64.9388 201.379 65.7004 201.698 66.2226 202.336C66.7593 202.96 67.0277 203.852 67.0277 205.013V212.367H65.2434V205.274C65.2434 203.794 64.6632 203.055 63.5027 203.055ZM73.3877 210.997C74.8383 210.997 75.5636 210.503 75.5636 209.517C75.5636 209.096 75.433 208.763 75.1719 208.516C74.9108 208.269 74.4321 208.059 73.7358 207.885L72.5391 207.58C71.6542 207.363 70.9941 206.986 70.559 206.449C70.1238 205.898 69.9062 205.245 69.9062 204.491C69.9062 203.939 70.0295 203.432 70.2761 202.967C70.5227 202.489 70.9144 202.104 71.4511 201.814C71.9878 201.524 72.6841 201.379 73.54 201.379C74.0912 201.379 74.6497 201.444 75.2154 201.575C75.7957 201.691 76.3832 201.894 76.9779 202.184L76.4122 203.686C75.3533 203.207 74.3958 202.967 73.54 202.967C72.2779 202.967 71.6469 203.439 71.6469 204.382C71.6469 204.744 71.763 205.056 71.9951 205.317C72.2272 205.579 72.6624 205.789 73.3006 205.948L74.4974 206.253C75.4548 206.485 76.1583 206.862 76.608 207.385C77.0577 207.907 77.2826 208.581 77.2826 209.408C77.2826 210.003 77.152 210.547 76.8909 211.04C76.6443 211.519 76.2381 211.896 75.6724 212.172C75.1212 212.447 74.3741 212.585 73.4312 212.585C72.8074 212.585 72.1837 212.52 71.5599 212.389C70.9506 212.259 70.3196 212.048 69.6668 211.758L70.1455 210.279C70.7693 210.525 71.335 210.707 71.8428 210.823C72.3505 210.939 72.8654 210.997 73.3877 210.997ZM87.9372 211.736C87.2845 212.056 86.6317 212.273 85.9789 212.389C85.3261 212.52 84.7241 212.585 84.1729 212.585C82.6207 212.585 81.4602 212.143 80.6914 211.258C79.9371 210.373 79.5599 209.162 79.5599 207.624V206.318C79.5599 204.824 79.9371 203.628 80.6914 202.728C81.4602 201.829 82.5409 201.379 83.9335 201.379C84.6734 201.379 85.3479 201.531 85.9571 201.836C86.5809 202.126 87.0741 202.576 87.4368 203.185C87.8139 203.78 88.0025 204.549 88.0025 205.492C88.0025 206.101 87.9155 206.797 87.7414 207.58H81.3224V207.624C81.3224 208.726 81.5473 209.561 81.997 210.126C82.4612 210.692 83.201 210.975 84.2164 210.975C84.6806 210.975 85.1883 210.917 85.7396 210.801C86.3053 210.685 86.8565 210.503 87.3933 210.257L87.9372 211.736ZM83.9335 202.946C83.0922 202.946 82.4539 203.221 82.0187 203.773C81.598 204.309 81.3659 205.071 81.3224 206.057H86.1965C86.24 205.796 86.2618 205.55 86.2618 205.317C86.2618 204.505 86.0297 203.91 85.5655 203.533C85.1158 203.142 84.5718 202.946 83.9335 202.946ZM92.3523 206.34V207.624C92.3523 208.726 92.5554 209.561 92.9616 210.126C93.3677 210.678 94.0133 210.953 94.8982 210.953C95.7685 210.953 96.7042 210.728 97.7051 210.279L98.2491 211.78C97.0596 212.317 95.9063 212.585 94.7894 212.585C93.3968 212.585 92.3378 212.143 91.6125 211.258C90.8872 210.373 90.5245 209.162 90.5245 207.624V206.34C90.5245 204.803 90.8872 203.591 91.6125 202.706C92.3378 201.821 93.3968 201.379 94.7894 201.379C95.3116 201.379 95.8483 201.452 96.3995 201.597C96.9653 201.727 97.531 201.916 98.0968 202.162L97.5528 203.686C97.0741 203.482 96.6099 203.323 96.1602 203.207C95.725 203.091 95.3043 203.033 94.8982 203.033C94.0133 203.033 93.3677 203.316 92.9616 203.881C92.5554 204.433 92.3523 205.252 92.3523 206.34ZM106.784 211.976C105.971 212.382 105.108 212.585 104.194 212.585C103.411 212.585 102.794 212.426 102.345 212.106C101.909 211.787 101.598 211.359 101.409 210.823C101.235 210.286 101.148 209.691 101.148 209.038V203.163H99.2766V201.597H101.148V198.594H102.932V201.597H106.457V203.163H102.932V208.973C102.932 209.727 103.055 210.25 103.302 210.54C103.563 210.815 103.962 210.953 104.499 210.953C104.76 210.953 105.028 210.924 105.304 210.866C105.594 210.794 105.906 210.678 106.24 210.518L106.784 211.976ZM116.943 211.736C116.29 212.056 115.637 212.273 114.984 212.389C114.331 212.52 113.729 212.585 113.178 212.585C111.626 212.585 110.466 212.143 109.697 211.258C108.942 210.373 108.565 209.162 108.565 207.624V206.318C108.565 204.824 108.942 203.628 109.697 202.728C110.466 201.829 111.546 201.379 112.939 201.379C113.679 201.379 114.353 201.531 114.962 201.836C115.586 202.126 116.079 202.576 116.442 203.185C116.819 203.78 117.008 204.549 117.008 205.492C117.008 206.101 116.921 206.797 116.747 207.58H110.328V207.624C110.328 208.726 110.553 209.561 111.002 210.126C111.467 210.692 112.206 210.975 113.222 210.975C113.686 210.975 114.194 210.917 114.745 210.801C115.311 210.685 115.862 210.503 116.399 210.257L116.943 211.736ZM112.939 202.946C112.098 202.946 111.459 203.221 111.024 203.773C110.603 204.309 110.371 205.071 110.328 206.057H115.202C115.245 205.796 115.267 205.55 115.267 205.317C115.267 204.505 115.035 203.91 114.571 203.533C114.121 203.142 113.577 202.946 112.939 202.946ZM126.014 211.976C125.202 212.382 124.339 212.585 123.425 212.585C122.641 212.585 122.025 212.426 121.575 212.106C121.14 211.787 120.828 211.359 120.64 210.823C120.466 210.286 120.379 209.691 120.379 209.038V203.163H118.507V201.597H120.379V198.594H122.163V201.597H125.688V203.163H122.163V208.973C122.163 209.727 122.286 210.25 122.533 210.54C122.794 210.815 123.193 210.953 123.729 210.953C123.991 210.953 124.259 210.924 124.535 210.866C124.825 210.794 125.137 210.678 125.47 210.518L126.014 211.976ZM134.998 212.367V210.844C134.244 211.497 133.569 211.954 132.975 212.215C132.38 212.462 131.785 212.585 131.19 212.585C130.233 212.585 129.5 212.273 128.993 211.649C128.485 211.011 128.231 210.119 128.231 208.973V201.597H130.015V208.712C130.015 209.466 130.146 210.025 130.407 210.387C130.683 210.736 131.089 210.91 131.625 210.91C132.032 210.91 132.489 210.808 132.996 210.605C133.504 210.402 134.135 209.996 134.889 209.386V201.597H136.674V212.367H134.998ZM146.173 203.163C145.52 203.163 144.882 203.279 144.258 203.511C143.649 203.744 142.996 204.186 142.3 204.839V212.367H140.516V201.597H142.213V203.337C142.953 202.612 143.627 202.104 144.237 201.814C144.86 201.524 145.506 201.379 146.173 201.379V203.163ZM161.122 212.476C160.455 212.476 159.918 212.324 159.512 212.019C159.12 211.715 158.844 211.338 158.685 210.888C157.974 211.512 157.329 211.954 156.748 212.215C156.168 212.462 155.588 212.585 155.008 212.585C154.065 212.585 153.368 212.28 152.919 211.671C152.469 211.062 152.244 210.315 152.244 209.43C152.244 208.835 152.353 208.306 152.57 207.842C152.788 207.377 153.158 207.015 153.68 206.754C154.202 206.478 154.906 206.34 155.791 206.34C156.183 206.34 156.61 206.369 157.075 206.427C157.539 206.471 158.01 206.529 158.489 206.601V205.143C158.489 204.331 158.308 203.78 157.945 203.49C157.597 203.185 157.082 203.033 156.4 203.033C155.472 203.033 154.435 203.287 153.289 203.794L152.723 202.315C153.39 202.01 154.028 201.778 154.638 201.618C155.247 201.459 155.863 201.379 156.487 201.379C157.503 201.379 158.279 201.546 158.815 201.88C159.352 202.213 159.722 202.656 159.925 203.207C160.128 203.758 160.23 204.36 160.23 205.013V209.669C160.23 210.003 160.295 210.286 160.426 210.518C160.556 210.736 160.817 210.844 161.209 210.844H161.448V212.476H161.122ZM154.007 209.408C154.007 209.901 154.123 210.3 154.355 210.605C154.587 210.91 154.92 211.062 155.356 211.062C155.733 211.062 156.168 210.953 156.661 210.736C157.154 210.503 157.764 210.047 158.489 209.365V207.994C157.503 207.834 156.632 207.755 155.878 207.755C155.211 207.755 154.732 207.892 154.442 208.168C154.152 208.444 154.007 208.857 154.007 209.408ZM170.526 212.367V210.866C169.858 211.504 169.249 211.954 168.698 212.215C168.161 212.462 167.603 212.585 167.022 212.585C165.876 212.585 164.991 212.15 164.368 211.28C163.758 210.409 163.454 209.191 163.454 207.624V206.362C163.454 204.839 163.831 203.628 164.585 202.728C165.354 201.829 166.464 201.379 167.914 201.379C168.335 201.379 168.756 201.423 169.176 201.51C169.597 201.597 170.018 201.72 170.438 201.88V196.266H172.223V212.367H170.526ZM165.303 207.624C165.303 208.755 165.477 209.59 165.826 210.126C166.188 210.648 166.725 210.91 167.436 210.91C167.856 210.91 168.292 210.808 168.741 210.605C169.191 210.387 169.757 209.945 170.438 209.278V203.533C170.018 203.345 169.612 203.214 169.22 203.142C168.828 203.055 168.444 203.011 168.067 203.011C167.08 203.011 166.369 203.308 165.934 203.903C165.514 204.498 165.303 205.317 165.303 206.362V207.624ZM177.959 198.964H175.957V196.962H177.959V198.964ZM177.85 212.367H176.066V201.597H177.85V212.367ZM186.006 212.585C185.194 212.585 184.352 212.418 183.482 212.085V217.002H181.698V201.597H183.395V203.12C184.062 202.482 184.671 202.032 185.223 201.771C185.774 201.51 186.34 201.379 186.92 201.379C188.066 201.379 188.944 201.814 189.553 202.685C190.177 203.555 190.488 204.781 190.488 206.362V207.624C190.488 209.133 190.104 210.337 189.335 211.236C188.581 212.135 187.471 212.585 186.006 212.585ZM186.485 203.055C186.064 203.055 185.629 203.163 185.179 203.381C184.729 203.598 184.164 204.041 183.482 204.708V210.453C183.903 210.641 184.309 210.779 184.7 210.866C185.092 210.939 185.477 210.975 185.854 210.975C186.84 210.975 187.551 210.678 187.986 210.083C188.421 209.474 188.639 208.654 188.639 207.624V206.362C188.639 205.23 188.458 204.396 188.095 203.86C187.747 203.323 187.21 203.055 186.485 203.055ZM195.682 198.964H193.68V196.962H195.682V198.964ZM195.573 212.367H193.789V201.597H195.573V212.367ZM202.052 210.997C203.503 210.997 204.228 210.503 204.228 209.517C204.228 209.096 204.098 208.763 203.837 208.516C203.575 208.269 203.097 208.059 202.4 207.885L201.204 207.58C200.319 207.363 199.659 206.986 199.224 206.449C198.788 205.898 198.571 205.245 198.571 204.491C198.571 203.939 198.694 203.432 198.941 202.967C199.187 202.489 199.579 202.104 200.116 201.814C200.652 201.524 201.349 201.379 202.205 201.379C202.756 201.379 203.314 201.444 203.88 201.575C204.46 201.691 205.048 201.894 205.643 202.184L205.077 203.686C204.018 203.207 203.06 202.967 202.205 202.967C200.943 202.967 200.312 203.439 200.312 204.382C200.312 204.744 200.428 205.056 200.66 205.317C200.892 205.579 201.327 205.789 201.965 205.948L203.162 206.253C204.119 206.485 204.823 206.862 205.273 207.385C205.722 207.907 205.947 208.581 205.947 209.408C205.947 210.003 205.817 210.547 205.556 211.04C205.309 211.519 204.903 211.896 204.337 212.172C203.786 212.447 203.039 212.585 202.096 212.585C201.472 212.585 200.848 212.52 200.224 212.389C199.615 212.259 198.984 212.048 198.331 211.758L198.81 210.279C199.434 210.525 200 210.707 200.507 210.823C201.015 210.939 201.53 210.997 202.052 210.997ZM210.052 206.34V207.624C210.052 208.726 210.256 209.561 210.662 210.126C211.068 210.678 211.713 210.953 212.598 210.953C213.469 210.953 214.404 210.728 215.405 210.279L215.949 211.78C214.76 212.317 213.606 212.585 212.489 212.585C211.097 212.585 210.038 212.143 209.313 211.258C208.587 210.373 208.225 209.162 208.225 207.624V206.34C208.225 204.803 208.587 203.591 209.313 202.706C210.038 201.821 211.097 201.379 212.489 201.379C213.012 201.379 213.548 201.452 214.1 201.597C214.665 201.727 215.231 201.916 215.797 202.162L215.253 203.686C214.774 203.482 214.31 203.323 213.86 203.207C213.425 203.091 213.004 203.033 212.598 203.033C211.713 203.033 211.068 203.316 210.662 203.881C210.256 204.433 210.052 205.252 210.052 206.34ZM220.458 198.964H218.456V196.962H220.458V198.964ZM220.349 212.367H218.565V201.597H220.349V212.367ZM229.375 203.055C228.968 203.055 228.49 203.156 227.939 203.359C227.402 203.562 226.749 203.976 225.98 204.599V212.367H224.196V201.597H225.893V203.098C226.662 202.445 227.358 201.996 227.982 201.749C228.62 201.502 229.23 201.379 229.81 201.379C230.811 201.379 231.572 201.698 232.095 202.336C232.631 202.96 232.9 203.852 232.9 205.013V212.367H231.115V205.274C231.115 203.794 230.535 203.055 229.375 203.055ZM245.243 213.717C245.243 214.776 244.808 215.624 243.938 216.262C243.082 216.901 241.9 217.22 240.391 217.22C239.637 217.22 238.846 217.118 238.019 216.915C237.207 216.712 236.438 216.386 235.713 215.936L236.322 214.543C237.047 214.95 237.744 215.232 238.411 215.392C239.093 215.566 239.753 215.653 240.391 215.653C241.377 215.653 242.139 215.494 242.676 215.174C243.212 214.855 243.481 214.427 243.481 213.891C243.481 213.499 243.35 213.194 243.089 212.977C242.828 212.774 242.407 212.672 241.827 212.672H239.325C238.382 212.672 237.7 212.447 237.279 211.998C236.859 211.548 236.648 211.055 236.648 210.518C236.648 210.141 236.735 209.771 236.909 209.408C237.083 209.031 237.33 208.661 237.649 208.299C237.141 207.994 236.735 207.58 236.431 207.058C236.126 206.521 235.974 205.876 235.974 205.122C235.974 204.295 236.148 203.606 236.496 203.055C236.859 202.503 237.337 202.09 237.932 201.814C238.527 201.524 239.194 201.379 239.934 201.379H240.304C240.812 201.379 241.276 201.452 241.696 201.597H245.57V203.185L243.22 202.859C243.524 203.12 243.771 203.446 243.959 203.838C244.148 204.215 244.242 204.679 244.242 205.23C244.242 206.014 244.061 206.674 243.698 207.211C243.35 207.747 242.879 208.161 242.284 208.451C241.689 208.726 241.029 208.864 240.304 208.864H239.934C239.745 208.864 239.564 208.857 239.39 208.842C239.216 208.813 239.042 208.784 238.868 208.755C238.447 209.22 238.237 209.677 238.237 210.126C238.237 210.707 238.643 210.997 239.455 210.997H241.892C242.937 210.997 243.756 211.229 244.351 211.693C244.946 212.157 245.243 212.832 245.243 213.717ZM240.304 207.319C240.87 207.319 241.37 207.138 241.805 206.775C242.24 206.413 242.458 205.861 242.458 205.122C242.458 204.396 242.24 203.852 241.805 203.49C241.37 203.113 240.87 202.924 240.304 202.924H239.934C239.354 202.924 238.846 203.113 238.411 203.49C237.976 203.852 237.758 204.396 237.758 205.122C237.758 205.861 237.976 206.413 238.411 206.775C238.846 207.138 239.354 207.319 239.934 207.319H240.304ZM44.6312 238.331C43.9784 238.65 43.3257 238.868 42.6729 238.984C42.0201 239.115 41.4181 239.18 40.8669 239.18C39.3147 239.18 38.1542 238.737 37.3854 237.852C36.6311 236.968 36.2539 235.756 36.2539 234.219V232.913C36.2539 231.419 36.6311 230.222 37.3854 229.323C38.1542 228.423 39.2349 227.974 40.6275 227.974C41.3673 227.974 42.0419 228.126 42.6511 228.431C43.2749 228.721 43.7681 229.171 44.1308 229.78C44.5079 230.375 44.6965 231.143 44.6965 232.086C44.6965 232.696 44.6095 233.392 44.4354 234.175H38.0164V234.219C38.0164 235.321 38.2413 236.155 38.6909 236.721C39.1551 237.287 39.895 237.57 40.9104 237.57C41.3746 237.57 41.8823 237.512 42.4335 237.396C42.9993 237.279 43.5505 237.098 44.0872 236.852L44.6312 238.331ZM40.6275 229.54C39.7862 229.54 39.1479 229.816 38.7127 230.367C38.292 230.904 38.0599 231.666 38.0164 232.652H42.8905C42.934 232.391 42.9558 232.144 42.9558 231.912C42.9558 231.1 42.7237 230.505 42.2595 230.128C41.8098 229.736 41.2658 229.54 40.6275 229.54ZM47.7625 236.351V222.86H49.5468V236.264C49.5468 236.656 49.6048 236.953 49.7208 237.156C49.8514 237.345 50.1052 237.439 50.4824 237.439H50.8306V239.071H50.3301C49.3727 239.071 48.7054 238.817 48.3282 238.309C47.9511 237.802 47.7625 237.149 47.7625 236.351ZM55.4146 225.558H53.4128V223.557H55.4146V225.558ZM55.3058 238.962H53.5216V228.191H55.3058V238.962ZM65.0712 238.571C64.2588 238.977 63.3957 239.18 62.4818 239.18C61.6985 239.18 61.082 239.02 60.6323 238.701C60.1971 238.382 59.8852 237.954 59.6966 237.417C59.5225 236.881 59.4355 236.286 59.4355 235.633V229.758H57.5642V228.191H59.4355V225.189H61.2198V228.191H64.7448V229.758H61.2198V235.568C61.2198 236.322 61.3431 236.844 61.5897 237.134C61.8508 237.41 62.2497 237.548 62.7864 237.548C63.0475 237.548 63.3159 237.519 63.5915 237.461C63.8816 237.388 64.1935 237.272 64.5272 237.113L65.0712 238.571ZM68.5936 238.962H66.5918V236.982H68.5936V238.962Z" fill="white"/>
<path d="M44.769 48.466H43.1372V52.0124H41.3531V48.466H35V47.0083C36.1169 45.3112 37.1249 43.6577 38.0242 42.0477C38.938 40.4376 39.6923 38.8276 40.287 37.2176H42.2886C41.6794 38.7986 40.9397 40.3724 40.0694 41.9389C39.2136 43.5054 38.2273 45.1227 37.1104 46.7907H41.3531V44.0928H43.1372V46.7907H44.769V48.466ZM56.1438 48.1179C56.1438 48.8867 55.9698 49.5829 55.6217 50.2066C55.2881 50.8303 54.7659 51.3235 54.0551 51.6861C53.3444 52.0487 52.4306 52.23 51.3137 52.23C50.2404 52.23 49.3629 52.0559 48.6811 51.7078C47.9994 51.3597 47.499 50.9028 47.1799 50.3371C46.8608 49.7569 46.7012 49.1115 46.7012 48.4007C46.7012 47.632 46.8898 46.9358 47.2669 46.3121C47.644 45.6738 48.2532 45.0864 49.0945 44.5497C48.4273 44.1726 47.9124 43.6939 47.5498 43.1138C47.1871 42.5336 47.0058 41.8228 47.0058 40.9816C47.0058 40.2853 47.1654 39.6399 47.4845 39.0452C47.8036 38.436 48.2895 37.9428 48.9422 37.5657C49.5949 37.1886 50.4072 37 51.379 37C52.3799 37 53.2066 37.1741 53.8593 37.5222C54.5266 37.8703 55.0197 38.3344 55.3388 38.9146C55.6579 39.4948 55.8175 40.1475 55.8175 40.8728C55.8175 41.5835 55.6507 42.229 55.3171 42.8092C54.998 43.3893 54.4613 43.9333 53.707 44.4409C54.5048 44.8326 55.1067 45.3185 55.5129 45.8987C55.9335 46.4789 56.1438 47.2186 56.1438 48.1179ZM51.0744 43.4619L52.2711 43.8753C52.9238 43.3676 53.3662 42.8889 53.5983 42.4393C53.8448 41.9896 53.9681 41.5255 53.9681 41.0468C53.9681 40.3216 53.7578 39.7414 53.3372 39.3063C52.9165 38.8711 52.2783 38.6535 51.4225 38.6535C50.6683 38.6535 50.0518 38.8494 49.5732 39.241C49.0945 39.6326 48.8552 40.2128 48.8552 40.9816C48.8552 41.5908 49.022 42.0912 49.3556 42.4828C49.7037 42.8599 50.2767 43.1863 51.0744 43.4619ZM48.5506 48.1614C48.5506 48.9012 48.7827 49.4959 49.2468 49.9455C49.7255 50.3806 50.4362 50.5982 51.379 50.5982C52.2928 50.5982 53.0036 50.3951 53.5112 49.989C54.0334 49.5684 54.2945 48.9737 54.2945 48.2049C54.2945 47.5377 54.1059 47.0228 53.7288 46.6602C53.3662 46.283 52.7207 45.9349 51.7924 45.6158L50.5305 45.1807C49.7908 45.7174 49.2758 46.225 48.9857 46.7037C48.6956 47.1678 48.5506 47.6537 48.5506 48.1614ZM69.168 42.9832V46.225C69.168 48.1977 68.7256 49.6917 67.8408 50.707C66.9561 51.7223 65.7231 52.23 64.1421 52.23C62.5611 52.23 61.3282 51.7223 60.4434 50.707C59.5731 49.6917 59.138 48.1977 59.138 46.225V42.9832C59.138 41.0251 59.5804 39.5383 60.4652 38.523C61.35 37.5077 62.5756 37 64.1421 37C65.7231 37 66.9561 37.5077 67.8408 38.523C68.7256 39.5383 69.168 41.0251 69.168 42.9832ZM67.2534 42.9832C67.2534 41.4747 66.9778 40.3869 66.4266 39.7196C65.8899 39.0524 65.1284 38.7188 64.1421 38.7188C63.1703 38.7188 62.4088 39.0524 61.8576 39.7196C61.3209 40.3869 61.0526 41.4747 61.0526 42.9832V46.225C61.0526 47.719 61.3209 48.8141 61.8576 49.5104C62.4088 50.1921 63.1703 50.5329 64.1421 50.5329C65.1284 50.5329 65.8899 50.1921 66.4266 49.5104C66.9778 48.8141 67.2534 47.719 67.2534 46.225V42.9832ZM83.0285 44.1581L81.7231 45.1154L81.3097 44.5497L79.9608 42.0259L78.6118 44.5715L78.1985 45.1154L76.893 44.1581L77.3064 43.6142L79.2863 41.569L76.4796 41.0468L75.8052 40.8293L76.3056 39.2845L76.9583 39.5238L79.5256 40.7422L79.1558 37.9138V37.2176H80.7658V37.9138L80.3742 40.7422L82.9415 39.5021L83.616 39.2845L84.0946 40.8075L83.4419 41.0468L80.6353 41.5472L82.6152 43.5924L83.0285 44.1581ZM98.4994 48.1614C98.4994 49.3508 98.1296 50.3299 97.3898 51.0986C96.6501 51.8529 95.4607 52.23 93.8217 52.23C93.1689 52.23 92.4872 52.1575 91.7765 52.0124C91.0803 51.8529 90.355 51.6063 89.6008 51.2727L90.1665 49.7062C90.8917 49.9963 91.5372 50.2066 92.1028 50.3371C92.683 50.4677 93.2415 50.5329 93.7781 50.5329C94.6774 50.5329 95.3737 50.3444 95.8668 49.9673C96.3745 49.5901 96.6283 48.9737 96.6283 48.1179V47.7698C96.6283 47.0445 96.418 46.4644 95.9974 46.0292C95.5767 45.5941 94.9313 45.3765 94.061 45.3765H91.8853V43.723H94.061C94.8878 43.723 95.497 43.5199 95.8886 43.1138C96.2802 42.6931 96.476 42.1274 96.476 41.4167V41.1121C96.476 40.2563 96.2439 39.6471 95.7798 39.2845C95.3156 38.9074 94.6702 38.7188 93.8434 38.7188C93.3357 38.7188 92.8136 38.7841 92.2769 38.9146C91.7402 39.0307 91.131 39.2337 90.4493 39.5238L89.8401 37.9356C90.5653 37.6019 91.2616 37.3626 91.9288 37.2176C92.6105 37.0725 93.2632 37 93.8869 37C95.4534 37 96.5921 37.3771 97.3028 38.1314C98.0135 38.8856 98.3689 39.8647 98.3689 41.0686V41.3732C98.3689 42.0984 98.1948 42.7366 97.8467 43.2878C97.4986 43.8245 97.0272 44.2451 96.4325 44.5497C97.0707 44.8398 97.5711 45.2677 97.9338 45.8334C98.3109 46.3846 98.4994 47.0445 98.4994 47.8133V48.1614ZM109.401 52.0124H100.959V50.5765C100.959 49.4886 101.09 48.5748 101.351 47.8351C101.626 47.0953 101.989 46.4861 102.438 46.0075C102.903 45.5143 103.418 45.1227 103.983 44.8326L105.397 44.1146C106.065 43.7665 106.594 43.4039 106.986 43.0267C107.392 42.6496 107.595 42.1057 107.595 41.3949V41.0251C107.595 40.2128 107.363 39.6254 106.899 39.2627C106.449 38.9001 105.782 38.7188 104.897 38.7188C104.404 38.7188 103.882 38.7841 103.33 38.9146C102.779 39.0307 102.17 39.2337 101.503 39.5238L100.894 37.9356C101.619 37.6019 102.315 37.3626 102.982 37.2176C103.664 37.0725 104.317 37 104.941 37C106.551 37 107.704 37.3771 108.4 38.1314C109.096 38.8711 109.444 39.8357 109.444 41.0251V41.3949C109.444 42.1782 109.292 42.8309 108.987 43.3531C108.697 43.8753 108.306 44.3176 107.812 44.6803C107.334 45.0284 106.819 45.3402 106.268 45.6158L104.853 46.3556C104.172 46.7182 103.664 47.2186 103.33 47.8568C103.011 48.495 102.837 49.3073 102.808 50.2936H109.401V52.0124ZM122.35 42.9832V46.225C122.35 48.1977 121.907 49.6917 121.023 50.707C120.138 51.7223 118.905 52.23 117.324 52.23C115.743 52.23 114.51 51.7223 113.625 50.707C112.755 49.6917 112.32 48.1977 112.32 46.225V42.9832C112.32 41.0251 112.762 39.5383 113.647 38.523C114.532 37.5077 115.757 37 117.324 37C118.905 37 120.138 37.5077 121.023 38.523C121.907 39.5383 122.35 41.0251 122.35 42.9832ZM120.435 42.9832C120.435 41.4747 120.16 40.3869 119.608 39.7196C119.072 39.0524 118.31 38.7188 117.324 38.7188C116.352 38.7188 115.591 39.0524 115.039 39.7196C114.503 40.3869 114.234 41.4747 114.234 42.9832V46.225C114.234 47.719 114.503 48.8141 115.039 49.5104C115.591 50.1921 116.352 50.5329 117.324 50.5329C118.31 50.5329 119.072 50.1921 119.608 49.5104C120.16 48.8141 120.435 47.719 120.435 46.225V42.9832Z" fill="white"/>
</g>
<defs>
<clipPath id="clip0_93_150">
<rect width="480" height="320" fill="white"/>
</clipPath>
</defs>
</svg>
